<svg width="94" height="42" viewBox="0 0 94 42" fill="none" xmlns="http://www.w3.org/2000/svg">
<path d="M6.91172 25.466L14.8157 25.694C15.9304 25.694 17.0071 25.3267 18.0457 24.592L19.0717 25.96C18.5651 26.5427 18.1597 26.986 17.8557 27.29C17.5517 27.5687 17.0957 27.8473 16.4877 28.126C15.9051 28.4047 15.2464 28.544 14.5117 28.544L7.40572 28.24C4.23905 28.24 2.69372 28.278 2.76972 28.354C1.83239 28.3287 1.36372 27.9107 1.36372 27.1C1.43972 26.5933 1.78172 25.7573 2.38972 24.592C2.99772 23.4013 3.82105 21.2607 4.85972 18.17C3.28905 18.17 1.88305 17.7013 0.641719 16.764L1.43972 15.358C2.52905 16.0673 3.85905 16.422 5.42972 16.422C6.89905 12.8247 8.76105 10.1267 11.0157 8.328C13.2704 6.52933 15.6264 5.63 18.0837 5.63C19.2491 5.63 20.1864 5.934 20.8957 6.542C21.6051 7.12467 21.9597 7.91 21.9597 8.898C21.9597 11.026 20.5537 13.0273 17.7417 14.902C14.9551 16.7513 11.7757 17.79 8.20372 18.018C7.03839 21.7167 5.73372 24.2373 4.28972 25.58C4.92305 25.504 5.79705 25.466 6.91172 25.466ZM15.9937 7.682C14.4231 7.682 12.9664 8.48 11.6237 10.076C10.2811 11.672 9.31839 13.7367 8.73572 16.27C11.2691 16.0927 13.4857 15.3327 15.3857 13.99C17.2857 12.6473 18.2357 11.2413 18.2357 9.772C18.2357 9.18933 18.0204 8.69533 17.5897 8.29C17.1591 7.88467 16.6271 7.682 15.9937 7.682ZM39.0238 25.162L39.8978 25.808C39.5431 26.568 38.8845 27.29 37.9218 27.974C36.9845 28.658 36.1231 29 35.3378 29C33.8431 29 33.0958 28.2147 33.0958 26.644C33.0958 25.9093 33.2858 25.0353 33.6658 24.022L32.2598 25.466C30.8918 26.8593 29.7011 27.7967 28.6878 28.278C27.6998 28.7593 26.7245 29 25.7618 29C24.7991 29 24.0645 28.734 23.5578 28.202C23.0765 27.6447 22.8358 26.8847 22.8358 25.922C22.8358 24.1487 23.5198 22.4007 24.8878 20.678C26.2558 18.93 28.0038 17.5113 30.1318 16.422C32.2598 15.3327 34.3878 14.7753 36.5158 14.75L36.5918 16.004L34.9958 16.346C32.6905 16.8527 30.6511 17.866 28.8778 19.386C27.1298 20.906 26.2558 22.426 26.2558 23.946C26.2558 25.4407 26.8638 26.188 28.0798 26.188C29.2198 26.188 30.6258 25.39 32.2978 23.794C33.9698 22.198 35.3631 20.3233 36.4778 18.17L38.0738 19.12C36.5031 22.2867 35.7178 24.3007 35.7178 25.162C35.7178 25.5167 35.8318 25.8207 36.0598 26.074C36.3131 26.302 36.5538 26.416 36.7818 26.416C37.0351 26.416 37.1998 26.4033 37.2758 26.378C37.3518 26.3527 37.4278 26.3273 37.5038 26.302C37.5798 26.2513 37.6685 26.188 37.7698 26.112C37.8965 26.036 37.9978 25.96 38.0738 25.884C38.1751 25.808 38.3271 25.694 38.5298 25.542C38.7325 25.39 38.8971 25.2633 39.0238 25.162ZM46.1963 22.008C48.1216 19.12 49.7936 17.1567 51.2123 16.118C52.631 15.054 53.8723 14.522 54.9363 14.522C56.0003 14.522 56.8236 14.8513 57.4063 15.51C57.989 16.1433 58.2803 16.954 58.2803 17.942C58.2803 20.678 57.2923 23.2113 55.3163 25.542C53.3656 27.8473 51.1616 29 48.7043 29C47.615 29 46.7536 28.81 46.1203 28.43L47.0323 26.796C48.3496 26.9733 49.173 27.062 49.5023 27.062C50.8703 27.062 52.1496 26.264 53.3403 24.668C54.531 23.072 55.1263 21.438 55.1263 19.766C55.1263 19.1327 54.9363 18.6133 54.5563 18.208C54.2016 17.7773 53.733 17.562 53.1503 17.562C51.757 17.562 50.1736 18.7907 48.4003 21.248C46.6523 23.7053 45.0056 26.7453 43.4603 30.368C41.9403 34.016 40.6103 37.892 39.4703 41.996L37.1903 41.198C37.241 41.046 37.7223 39.7287 38.6343 37.246C39.521 34.7887 40.395 32.344 41.2563 29.912C43.6376 23.224 44.8283 19.5633 44.8283 18.93C44.8283 17.3087 44.499 15.8393 43.8403 14.522L45.7403 13.572C46.5256 14.6613 46.9183 15.814 46.9183 17.03C46.9183 18.2207 46.6776 19.88 46.1963 22.008ZM74.7008 25.124L75.6508 25.96C74.1814 28.3667 72.6234 29.57 70.9768 29.57C69.9634 29.57 68.9248 28.8227 67.8608 27.328C66.7968 25.8333 66.2648 24.6047 66.2648 23.642C66.2648 23.034 67.1768 22.426 69.0007 21.818C69.6848 21.59 70.3054 21.248 70.8628 20.792C71.4454 20.3107 71.7368 19.8167 71.7368 19.31C71.7368 18.8033 71.5974 18.4233 71.3188 18.17C71.0401 17.8913 70.6854 17.752 70.2548 17.752C67.4681 18.0053 64.5548 21.7547 61.5148 29L59.1968 28.202C59.1968 27.1127 60.6661 22.7047 63.6048 14.978C66.5688 7.25133 68.6714 2.57733 69.9128 0.955999L71.7748 1.64C68.3548 7.59333 65.4921 14.5093 63.1868 22.388C65.1628 19.424 66.8601 17.448 68.2788 16.46C69.6974 15.472 71.0528 14.978 72.3448 14.978C73.1301 14.978 73.7508 15.2187 74.2068 15.7C74.6881 16.1813 74.9288 16.802 74.9288 17.562C74.9288 18.2967 74.7388 18.968 74.3588 19.576C74.0041 20.184 73.4848 20.716 72.8008 21.172C71.8128 21.8307 70.5968 22.4767 69.1528 23.11C69.3808 24.3007 69.7734 25.2 70.3308 25.808C70.8881 26.416 71.5214 26.72 72.2308 26.72C72.6108 26.72 73.4341 26.188 74.7008 25.124ZM92.8695 25.162L93.7435 25.808C93.3888 26.568 92.7302 27.29 91.7675 27.974C90.8302 28.658 89.9688 29 89.1835 29C87.6888 29 86.9415 28.2147 86.9415 26.644C86.9415 25.9093 87.1315 25.0353 87.5115 24.022L86.1055 25.466C84.7375 26.8593 83.5468 27.7967 82.5335 28.278C81.5455 28.7593 80.5702 29 79.6075 29C78.6448 29 77.9102 28.734 77.4035 28.202C76.9222 27.6447 76.6815 26.8847 76.6815 25.922C76.6815 24.1487 77.3655 22.4007 78.7335 20.678C80.1015 18.93 81.8495 17.5113 83.9775 16.422C86.1055 15.3327 88.2335 14.7753 90.3615 14.75L90.4375 16.004L88.8415 16.346C86.5362 16.8527 84.4968 17.866 82.7235 19.386C80.9755 20.906 80.1015 22.426 80.1015 23.946C80.1015 25.4407 80.7095 26.188 81.9255 26.188C83.0655 26.188 84.4715 25.39 86.1435 23.794C87.8155 22.198 89.2088 20.3233 90.3235 18.17L91.9195 19.12C90.3488 22.2867 89.5635 24.3007 89.5635 25.162C89.5635 25.5167 89.6775 25.8207 89.9055 26.074C90.1588 26.302 90.3995 26.416 90.6275 26.416C90.8808 26.416 91.0455 26.4033 91.1215 26.378C91.1975 26.3527 91.2735 26.3273 91.3495 26.302C91.4255 26.2513 91.5142 26.188 91.6155 26.112C91.7422 26.036 91.8435 25.96 91.9195 25.884C92.0208 25.808 92.1728 25.694 92.3755 25.542C92.5782 25.39 92.7428 25.2633 92.8695 25.162Z" fill="#456BA1"/>
</svg>
