<svg width="94" height="29" viewBox="0 0 94 29" fill="none" xmlns="http://www.w3.org/2000/svg">
<path d="M17.0138 22.036C17.0138 23.6827 17.3178 24.848 17.9258 25.532C18.5338 26.2413 19.5978 26.7353 21.1178 27.014L20.6618 28.42C20.0031 28.4707 19.5091 28.496 19.1798 28.496C17.6598 28.496 16.4184 27.85 15.4558 26.558C14.5184 25.2913 14.0498 23.632 14.0498 21.58C14.0498 16.3107 14.4298 11.5353 15.1898 7.254C15.4431 5.83533 15.5698 5.088 15.5698 5.012C15.5698 4.75867 15.4684 4.632 15.2658 4.632C14.8604 4.632 14.2144 5.89867 13.3278 8.432L12.2258 11.586C10.6044 16.1713 8.95778 19.7433 7.28578 22.302C5.63911 24.8607 3.73911 26.6593 1.58578 27.698L0.597779 25.608C3.05511 23.784 4.94245 21.922 6.25978 20.022C7.60245 18.122 9.05911 15.0567 10.6298 10.826L11.9218 7.368C12.8084 4.96133 13.5811 3.25133 14.2398 2.238C14.8984 1.19933 15.6331 0.679998 16.4438 0.679998C17.7864 0.679998 18.4578 1.49067 18.4578 3.112C18.4578 3.36533 18.3438 4.50533 18.1158 6.532C17.3811 12.5613 17.0138 17.7293 17.0138 22.036ZM38.2163 21.162L39.0903 21.808C38.7356 22.568 38.077 23.29 37.1143 23.974C36.177 24.658 35.3156 25 34.5303 25C33.0356 25 32.2883 24.2147 32.2883 22.644C32.2883 21.9093 32.4783 21.0353 32.8583 20.022L31.4523 21.466C30.0843 22.8593 28.8936 23.7967 27.8803 24.278C26.8923 24.7593 25.917 25 24.9543 25C23.9916 25 23.257 24.734 22.7503 24.202C22.269 23.6447 22.0283 22.8847 22.0283 21.922C22.0283 20.1487 22.7123 18.4007 24.0803 16.678C25.4483 14.93 27.1963 13.5113 29.3243 12.422C31.4523 11.3327 33.5803 10.7753 35.7083 10.75L35.7843 12.004L34.1883 12.346C31.883 12.8527 29.8436 13.866 28.0703 15.386C26.3223 16.906 25.4483 18.426 25.4483 19.946C25.4483 21.4407 26.0563 22.188 27.2723 22.188C28.4123 22.188 29.8183 21.39 31.4903 19.794C33.1623 18.198 34.5556 16.3233 35.6703 14.17L37.2663 15.12C35.6956 18.2867 34.9103 20.3007 34.9103 21.162C34.9103 21.5167 35.0243 21.8207 35.2523 22.074C35.5056 22.302 35.7463 22.416 35.9743 22.416C36.2276 22.416 36.3923 22.4033 36.4683 22.378C36.5443 22.3527 36.6203 22.3273 36.6963 22.302C36.7723 22.2513 36.861 22.188 36.9623 22.112C37.089 22.036 37.1903 21.96 37.2663 21.884C37.3676 21.808 37.5196 21.694 37.7223 21.542C37.925 21.39 38.0896 21.2633 38.2163 21.162ZM56.4281 20.402L57.2261 21.01C56.6688 22.1247 55.8961 23.062 54.9081 23.822C53.9454 24.582 53.0714 24.962 52.2861 24.962C51.5008 24.962 50.8801 24.734 50.4241 24.278C49.9681 23.822 49.7401 23.252 49.7401 22.568C49.7401 21.884 50.1708 20.6933 51.0321 18.996C51.9188 17.2733 52.3621 16.0067 52.3621 15.196C52.3621 14.8413 52.2101 14.5247 51.9061 14.246C51.6274 13.942 51.2854 13.79 50.8801 13.79C49.5881 13.79 48.2834 14.778 46.9661 16.754C45.6488 18.7047 44.1794 21.5293 42.5581 25.228L40.2781 24.43C40.7594 21.4913 41.4434 18.6287 42.3301 15.842C43.2421 13.03 44.0781 11.016 44.8381 9.8L46.3961 10.294C45.6868 12.0927 44.7874 15.196 43.6981 19.604C47.1941 13.6253 50.4114 10.636 53.3501 10.636C53.9834 10.636 54.5028 10.8513 54.9081 11.282C55.3388 11.7127 55.5541 12.2193 55.5541 12.802C55.5541 13.3847 55.4781 13.9167 55.3261 14.398C55.1741 14.854 54.6928 15.9433 53.8821 17.666C53.0968 19.3633 52.7041 20.4273 52.7041 20.858C52.7041 21.2887 52.8308 21.6307 53.0841 21.884C53.3374 22.112 53.5781 22.226 53.8061 22.226C54.0341 22.226 54.2241 22.188 54.3761 22.112C54.5281 22.036 54.6928 21.922 54.8701 21.77C55.0728 21.618 55.2501 21.4787 55.4021 21.352C55.5541 21.2253 55.7314 21.0607 55.9341 20.858C56.1621 20.63 56.3268 20.478 56.4281 20.402ZM72.5923 20.782L73.5423 21.618C72.073 24.0247 70.515 25.228 68.8683 25.228C67.931 25.228 66.9683 24.62 65.9803 23.404C65.0177 22.188 64.435 21.01 64.2323 19.87C64.0803 20.1487 63.6497 20.8833 62.9403 22.074C62.231 23.2647 61.7243 24.24 61.4203 25L59.1403 24.202C59.6723 21.086 60.3183 18.1473 61.0783 15.386C61.8637 12.6247 62.5983 10.6867 63.2823 9.572L64.8403 10.066C64.3843 11.2313 63.6243 14.3347 62.5603 19.376C63.9537 16.5133 65.3597 14.4233 66.7783 13.106C68.197 11.7633 69.755 10.8767 71.4523 10.446V12.954C69.6283 13.03 67.8677 14.2587 66.1703 16.64C66.2717 18.2867 66.753 19.6547 67.6143 20.744C68.501 21.8333 69.337 22.378 70.1223 22.378C70.5023 22.378 71.3257 21.846 72.5923 20.782ZM92.4702 21.162L93.3442 21.808C92.9895 22.568 92.3309 23.29 91.3682 23.974C90.4309 24.658 89.5695 25 88.7842 25C87.2895 25 86.5422 24.2147 86.5422 22.644C86.5422 21.9093 86.7322 21.0353 87.1122 20.022L85.7062 21.466C84.3382 22.8593 83.1475 23.7967 82.1342 24.278C81.1462 24.7593 80.1709 25 79.2082 25C78.2455 25 77.5109 24.734 77.0042 24.202C76.5229 23.6447 76.2822 22.8847 76.2822 21.922C76.2822 20.1487 76.9662 18.4007 78.3342 16.678C79.7022 14.93 81.4502 13.5113 83.5782 12.422C85.7062 11.3327 87.8342 10.7753 89.9622 10.75L90.0382 12.004L88.4422 12.346C86.1369 12.8527 84.0975 13.866 82.3242 15.386C80.5762 16.906 79.7022 18.426 79.7022 19.946C79.7022 21.4407 80.3102 22.188 81.5262 22.188C82.6662 22.188 84.0722 21.39 85.7442 19.794C87.4162 18.198 88.8095 16.3233 89.9242 14.17L91.5202 15.12C89.9495 18.2867 89.1642 20.3007 89.1642 21.162C89.1642 21.5167 89.2782 21.8207 89.5062 22.074C89.7595 22.302 90.0002 22.416 90.2282 22.416C90.4815 22.416 90.6462 22.4033 90.7222 22.378C90.7982 22.3527 90.8742 22.3273 90.9502 22.302C91.0262 22.2513 91.1149 22.188 91.2162 22.112C91.3429 22.036 91.4442 21.96 91.5202 21.884C91.6215 21.808 91.7735 21.694 91.9762 21.542C92.1789 21.39 92.3435 21.2633 92.4702 21.162Z" fill="#456BA1"/>
</svg>
