M48
; DRILL file {KiCad 8.0.7} date 2025-05-01T21:13:48+0700
; FORMAT={-:-/ absolute / metric / decimal}
; #@! TF.CreationDate,2025-05-01T21:13:48+07:00
; #@! TF.GenerationSoftware,Kicad,Pcbnew,8.0.7
; #@! TF.FileFunction,NonPlated,1,2,NPTH
FMAT,2
METRIC
; #@! TA.AperFunction,NonPlated,NPTH,ComponentDrill
T1C1.900
; #@! TA.AperFunction,NonPlated,NPTH,ComponentDrill
T2C5.050
%
G90
G05
T1
X86.846Y-80.921
X92.661Y-96.895
X97.183Y-77.158
X98.475Y-112.87
X102.997Y-93.133
X103.285Y-62.664
X107.685Y-79.085
X108.812Y-109.108
X112.084Y-95.506
X113.91Y-59.817
X118.31Y-76.238
X122.71Y-92.659
X123.063Y-52.671
X126.015Y-69.413
X128.967Y-86.155
X133.896Y-50.761
X136.848Y-67.503
X139.8Y-84.245
X144.941Y-54.345
X146.423Y-71.281
X147.904Y-88.216
X155.899Y-53.387
X156.923Y-114.151
X157.381Y-70.322
X158.862Y-87.257
X166.59Y-57.92
X166.59Y-91.92
X166.59Y-74.92
X167.881Y-113.193
X176.336Y-113.193
X177.59Y-57.92
X177.59Y-91.92
X177.59Y-74.92
X187.294Y-114.151
X195.621Y-115.62
X206.246Y-118.467
T2
X92.015Y-79.039
X97.829Y-95.014
X103.643Y-110.989
X108.597Y-61.241
X112.997Y-77.661
X117.397Y-94.082
X128.479Y-51.716
X131.431Y-68.458
X134.383Y-85.2
X150.42Y-53.866
X151.902Y-70.801
X153.383Y-87.737
X162.402Y-113.672
X172.09Y-57.92
X172.09Y-91.92
X172.09Y-74.92
X181.815Y-113.672
X200.933Y-117.043
M30
