G04 #@! TF.GenerationSoftware,KiCad,Pcbnew,8.0.7*
G04 #@! TF.CreationDate,2025-05-01T21:13:51+07:00*
G04 #@! TF.ProjectId,Lapka_ChocV1V2_Solder,4c61706b-615f-4436-986f-63563156325f,rev?*
G04 #@! TF.SameCoordinates,Original*
G04 #@! TF.FileFunction,Soldermask,Top*
G04 #@! TF.FilePolarity,Negative*
%FSLAX46Y46*%
G04 Gerber Fmt 4.6, Leading zero omitted, Abs format (unit mm)*
G04 Created by KiCad (PCBNEW 8.0.7) date 2025-05-01 21:13:51*
%MOMM*%
%LPD*%
G01*
G04 APERTURE LIST*
%ADD10C,0.000000*%
%ADD11C,1.900000*%
%ADD12C,5.050000*%
%ADD13C,2.200000*%
%ADD14R,1.400000X1.700000*%
%ADD15C,1.600000*%
G04 APERTURE END LIST*
D10*
G36*
X147338251Y-93446922D02*
G01*
X147127114Y-93492166D01*
X147070344Y-93505520D01*
X147014398Y-93520444D01*
X146959277Y-93536940D01*
X146904981Y-93555006D01*
X146851509Y-93574643D01*
X146798862Y-93595851D01*
X146747039Y-93618630D01*
X146696042Y-93642980D01*
X146645869Y-93668901D01*
X146596520Y-93696392D01*
X146547997Y-93725455D01*
X146500298Y-93756088D01*
X146453425Y-93788293D01*
X146407376Y-93822068D01*
X146362152Y-93857415D01*
X146317753Y-93894332D01*
X146275750Y-93932036D01*
X146236456Y-93969739D01*
X146199872Y-94007442D01*
X146165998Y-94045145D01*
X146134834Y-94082848D01*
X146106380Y-94120551D01*
X146080636Y-94158254D01*
X146057602Y-94195957D01*
X146037277Y-94233661D01*
X146019663Y-94271364D01*
X146004758Y-94309067D01*
X145992564Y-94346770D01*
X145983079Y-94384473D01*
X145976304Y-94422176D01*
X145972240Y-94459879D01*
X145970885Y-94497582D01*
X145971827Y-94533499D01*
X145974655Y-94567099D01*
X145979368Y-94598381D01*
X145985966Y-94627346D01*
X145989972Y-94640959D01*
X145994449Y-94653993D01*
X145999398Y-94666448D01*
X146004818Y-94678324D01*
X146010709Y-94689620D01*
X146017071Y-94700337D01*
X146023905Y-94710474D01*
X146031210Y-94720032D01*
X146038986Y-94729011D01*
X146047234Y-94737411D01*
X146055952Y-94745231D01*
X146065143Y-94752472D01*
X146074804Y-94759134D01*
X146084937Y-94765217D01*
X146095541Y-94770720D01*
X146106616Y-94775644D01*
X146118163Y-94779988D01*
X146130180Y-94783753D01*
X146142669Y-94786939D01*
X146155630Y-94789546D01*
X146169062Y-94791574D01*
X146182965Y-94793022D01*
X146197339Y-94793891D01*
X146212184Y-94794180D01*
X146240874Y-94792943D01*
X146270388Y-94789232D01*
X146300728Y-94783046D01*
X146331891Y-94774386D01*
X146363880Y-94763252D01*
X146396694Y-94749643D01*
X146430332Y-94733561D01*
X146464795Y-94715004D01*
X146500083Y-94693972D01*
X146536195Y-94670467D01*
X146573132Y-94644487D01*
X146610895Y-94616033D01*
X146649481Y-94585105D01*
X146688893Y-94551702D01*
X146729129Y-94515825D01*
X146770191Y-94477474D01*
X146811232Y-94437454D01*
X146851409Y-94396569D01*
X146890722Y-94354821D01*
X146929171Y-94312208D01*
X146966756Y-94268731D01*
X147003477Y-94224391D01*
X147039334Y-94179186D01*
X147074327Y-94133117D01*
X147108457Y-94086184D01*
X147141722Y-94038388D01*
X147174123Y-93989727D01*
X147205660Y-93940203D01*
X147236333Y-93889814D01*
X147266143Y-93838562D01*
X147295088Y-93786446D01*
X147323170Y-93733466D01*
X147534308Y-93859143D01*
X147461257Y-94009093D01*
X147397946Y-94144746D01*
X147344376Y-94266104D01*
X147300546Y-94373165D01*
X147266457Y-94465931D01*
X147242107Y-94544400D01*
X147233585Y-94578273D01*
X147227498Y-94608572D01*
X147223845Y-94635298D01*
X147222628Y-94658449D01*
X147222805Y-94667169D01*
X147223335Y-94675731D01*
X147224219Y-94684136D01*
X147225456Y-94692384D01*
X147227046Y-94700475D01*
X147228990Y-94708409D01*
X147231288Y-94716185D01*
X147233939Y-94723804D01*
X147236944Y-94731266D01*
X147240302Y-94738571D01*
X147244013Y-94745719D01*
X147248078Y-94752709D01*
X147252496Y-94759543D01*
X147257268Y-94766219D01*
X147262393Y-94772737D01*
X147267872Y-94779099D01*
X147274136Y-94784578D01*
X147280360Y-94789703D01*
X147286545Y-94794475D01*
X147292691Y-94798893D01*
X147298798Y-94802958D01*
X147304866Y-94806670D01*
X147310894Y-94810027D01*
X147316884Y-94813032D01*
X147322834Y-94815683D01*
X147328745Y-94817980D01*
X147334617Y-94819924D01*
X147340450Y-94821515D01*
X147346243Y-94822752D01*
X147351997Y-94823636D01*
X147357711Y-94824166D01*
X147363387Y-94824343D01*
X147375403Y-94824264D01*
X147386321Y-94824028D01*
X147396139Y-94823635D01*
X147404858Y-94823084D01*
X147412478Y-94822377D01*
X147418998Y-94821513D01*
X147424418Y-94820493D01*
X147428738Y-94819316D01*
X147458901Y-94809262D01*
X147466756Y-94803918D01*
X147475241Y-94797949D01*
X147484352Y-94791352D01*
X147494090Y-94784126D01*
X147500219Y-94780356D01*
X147506032Y-94776585D01*
X147511530Y-94772815D01*
X147516714Y-94769045D01*
X147521583Y-94765274D01*
X147526139Y-94761504D01*
X147530380Y-94757734D01*
X147534308Y-94753964D01*
X147594633Y-94708720D01*
X147613799Y-94694266D01*
X147631078Y-94681069D01*
X147646472Y-94669130D01*
X147659984Y-94658449D01*
X147775607Y-94743909D01*
X147766338Y-94762702D01*
X147756126Y-94781377D01*
X147744972Y-94799934D01*
X147732876Y-94818373D01*
X147719837Y-94836695D01*
X147705856Y-94854898D01*
X147690932Y-94872984D01*
X147675066Y-94890952D01*
X147658257Y-94908802D01*
X147640505Y-94926534D01*
X147621811Y-94944149D01*
X147602174Y-94961645D01*
X147581594Y-94979024D01*
X147560072Y-94996285D01*
X147537607Y-95013428D01*
X147514199Y-95030453D01*
X147491067Y-95046889D01*
X147468171Y-95062265D01*
X147445510Y-95076581D01*
X147423084Y-95089836D01*
X147400894Y-95102030D01*
X147378940Y-95113165D01*
X147357221Y-95123238D01*
X147335738Y-95132252D01*
X147314490Y-95140205D01*
X147293478Y-95147097D01*
X147272702Y-95152930D01*
X147252161Y-95157701D01*
X147231857Y-95161413D01*
X147211788Y-95164064D01*
X147191955Y-95165654D01*
X147172358Y-95166185D01*
X147154110Y-95165880D01*
X147136441Y-95164967D01*
X147119351Y-95163445D01*
X147102841Y-95161315D01*
X147086910Y-95158575D01*
X147071559Y-95155227D01*
X147056787Y-95151271D01*
X147042594Y-95146705D01*
X147028980Y-95141531D01*
X147015946Y-95135748D01*
X147003491Y-95129356D01*
X146991616Y-95122356D01*
X146980319Y-95114747D01*
X146969602Y-95106529D01*
X146959465Y-95097702D01*
X146949907Y-95088266D01*
X146940928Y-95078222D01*
X146932528Y-95067569D01*
X146924708Y-95056307D01*
X146917467Y-95044437D01*
X146910805Y-95031957D01*
X146904722Y-95018869D01*
X146899219Y-95005172D01*
X146894295Y-94990867D01*
X146889951Y-94975952D01*
X146886185Y-94960429D01*
X146882999Y-94944297D01*
X146880393Y-94927556D01*
X146878365Y-94910207D01*
X146876917Y-94892248D01*
X146876048Y-94873681D01*
X146875759Y-94854505D01*
X146876053Y-94836065D01*
X146876937Y-94817193D01*
X146878410Y-94797890D01*
X146880472Y-94778154D01*
X146883123Y-94757986D01*
X146886363Y-94737387D01*
X146890192Y-94716355D01*
X146894610Y-94694892D01*
X146899618Y-94672997D01*
X146905215Y-94650670D01*
X146911400Y-94627911D01*
X146918175Y-94604720D01*
X146925539Y-94581097D01*
X146933492Y-94557042D01*
X146951166Y-94507636D01*
X146765164Y-94698666D01*
X146698398Y-94764959D01*
X146633831Y-94825598D01*
X146602372Y-94853797D01*
X146571463Y-94880583D01*
X146541104Y-94905954D01*
X146511294Y-94929912D01*
X146482035Y-94952455D01*
X146453325Y-94973585D01*
X146425166Y-94993301D01*
X146397556Y-95011603D01*
X146370497Y-95028491D01*
X146343987Y-95043964D01*
X146318028Y-95058024D01*
X146292618Y-95070670D01*
X146268131Y-95082235D01*
X146243683Y-95093055D01*
X146219274Y-95103128D01*
X146194904Y-95112456D01*
X146170574Y-95121037D01*
X146146283Y-95128872D01*
X146122032Y-95135961D01*
X146097820Y-95142304D01*
X146073647Y-95147901D01*
X146049513Y-95152752D01*
X146025418Y-95156856D01*
X146001363Y-95160214D01*
X145977346Y-95162826D01*
X145953369Y-95164692D01*
X145929431Y-95165811D01*
X145905532Y-95166185D01*
X145882006Y-95165772D01*
X145859188Y-95164535D01*
X145837076Y-95162473D01*
X145815672Y-95159586D01*
X145794974Y-95155875D01*
X145774984Y-95151339D01*
X145755701Y-95145978D01*
X145737125Y-95139792D01*
X145719256Y-95132782D01*
X145702093Y-95124947D01*
X145685638Y-95116287D01*
X145669889Y-95106802D01*
X145654847Y-95096492D01*
X145640512Y-95085358D01*
X145626883Y-95073399D01*
X145613962Y-95060616D01*
X145602396Y-95046478D01*
X145591577Y-95031711D01*
X145581503Y-95016316D01*
X145572176Y-95000293D01*
X145563595Y-94983641D01*
X145555759Y-94966361D01*
X145548670Y-94948452D01*
X145542327Y-94929915D01*
X145536731Y-94910749D01*
X145531880Y-94890955D01*
X145527776Y-94870532D01*
X145524418Y-94849481D01*
X145521806Y-94827801D01*
X145519940Y-94805493D01*
X145518820Y-94782556D01*
X145518447Y-94758991D01*
X145519508Y-94715044D01*
X145522689Y-94671175D01*
X145527991Y-94627385D01*
X145535414Y-94583674D01*
X145544957Y-94540041D01*
X145556622Y-94496486D01*
X145570407Y-94453010D01*
X145586313Y-94409612D01*
X145604340Y-94366292D01*
X145624487Y-94323051D01*
X145646755Y-94279889D01*
X145671145Y-94236805D01*
X145697654Y-94193799D01*
X145726285Y-94150872D01*
X145757037Y-94108023D01*
X145789909Y-94065253D01*
X145824431Y-94022405D01*
X145860131Y-93980578D01*
X145897010Y-93939772D01*
X145935066Y-93899987D01*
X145974301Y-93861223D01*
X146014714Y-93823481D01*
X146056306Y-93786759D01*
X146099075Y-93751059D01*
X146143023Y-93716380D01*
X146188149Y-93682722D01*
X146234453Y-93650085D01*
X146281935Y-93618469D01*
X146330596Y-93587875D01*
X146380435Y-93558302D01*
X146431452Y-93529750D01*
X146483647Y-93502220D01*
X146536431Y-93476025D01*
X146589216Y-93451479D01*
X146642000Y-93428582D01*
X146694784Y-93407335D01*
X146747569Y-93387737D01*
X146800353Y-93369788D01*
X146853137Y-93353489D01*
X146905922Y-93338840D01*
X146958706Y-93325840D01*
X147011491Y-93314489D01*
X147064275Y-93304788D01*
X147117059Y-93296737D01*
X147169844Y-93290335D01*
X147222628Y-93285583D01*
X147275412Y-93282481D01*
X147328197Y-93281028D01*
X147338251Y-93446922D01*
G37*
G36*
X140214914Y-93446922D02*
G01*
X140003776Y-93492166D01*
X139947006Y-93505520D01*
X139891061Y-93520444D01*
X139835940Y-93536940D01*
X139781643Y-93555006D01*
X139728171Y-93574643D01*
X139675524Y-93595851D01*
X139623702Y-93618630D01*
X139572704Y-93642980D01*
X139522531Y-93668901D01*
X139473183Y-93696392D01*
X139424659Y-93725455D01*
X139376961Y-93756088D01*
X139330087Y-93788293D01*
X139284038Y-93822068D01*
X139238815Y-93857415D01*
X139194416Y-93894332D01*
X139152412Y-93932036D01*
X139113119Y-93969739D01*
X139076535Y-94007442D01*
X139042661Y-94045145D01*
X139011497Y-94082848D01*
X138983043Y-94120551D01*
X138957299Y-94158254D01*
X138934265Y-94195957D01*
X138913940Y-94233661D01*
X138896326Y-94271364D01*
X138881421Y-94309067D01*
X138869227Y-94346770D01*
X138859742Y-94384473D01*
X138852967Y-94422176D01*
X138848902Y-94459879D01*
X138847547Y-94497582D01*
X138848490Y-94533499D01*
X138851318Y-94567099D01*
X138856031Y-94598381D01*
X138862629Y-94627346D01*
X138866635Y-94640959D01*
X138871112Y-94653993D01*
X138876060Y-94666448D01*
X138881480Y-94678324D01*
X138887371Y-94689620D01*
X138893734Y-94700337D01*
X138900567Y-94710474D01*
X138907872Y-94720032D01*
X138915649Y-94729011D01*
X138923896Y-94737411D01*
X138932615Y-94745231D01*
X138941805Y-94752472D01*
X138951467Y-94759134D01*
X138961599Y-94765217D01*
X138972203Y-94770720D01*
X138983279Y-94775644D01*
X138994825Y-94779988D01*
X139006843Y-94783753D01*
X139019332Y-94786939D01*
X139032293Y-94789546D01*
X139045724Y-94791574D01*
X139059627Y-94793022D01*
X139074002Y-94793891D01*
X139088847Y-94794180D01*
X139117537Y-94792943D01*
X139147052Y-94789232D01*
X139177391Y-94783046D01*
X139208555Y-94774386D01*
X139240544Y-94763252D01*
X139273357Y-94749643D01*
X139306995Y-94733561D01*
X139341458Y-94715004D01*
X139376746Y-94693972D01*
X139412859Y-94670467D01*
X139449796Y-94644487D01*
X139487558Y-94616033D01*
X139526145Y-94585105D01*
X139565556Y-94551702D01*
X139605792Y-94515825D01*
X139646853Y-94477474D01*
X139687895Y-94437454D01*
X139728072Y-94396569D01*
X139767385Y-94354821D01*
X139805834Y-94312208D01*
X139843419Y-94268731D01*
X139880140Y-94224391D01*
X139915997Y-94179186D01*
X139950990Y-94133117D01*
X139985119Y-94086184D01*
X140018384Y-94038388D01*
X140050785Y-93989727D01*
X140082323Y-93940203D01*
X140112996Y-93889814D01*
X140142805Y-93838562D01*
X140171751Y-93786446D01*
X140199832Y-93733466D01*
X140410970Y-93859143D01*
X140337919Y-94009093D01*
X140274609Y-94144746D01*
X140221039Y-94266104D01*
X140177209Y-94373165D01*
X140143120Y-94465931D01*
X140118771Y-94544400D01*
X140110248Y-94578273D01*
X140104161Y-94608572D01*
X140100509Y-94635298D01*
X140099291Y-94658449D01*
X140099468Y-94667169D01*
X140099998Y-94675731D01*
X140100882Y-94684136D01*
X140102119Y-94692384D01*
X140103709Y-94700475D01*
X140105654Y-94708409D01*
X140107951Y-94716185D01*
X140110602Y-94723804D01*
X140113606Y-94731266D01*
X140116964Y-94738571D01*
X140120676Y-94745719D01*
X140124740Y-94752709D01*
X140129159Y-94759543D01*
X140133931Y-94766219D01*
X140139056Y-94772737D01*
X140144534Y-94779099D01*
X140150798Y-94784578D01*
X140157022Y-94789703D01*
X140163208Y-94794475D01*
X140169354Y-94798893D01*
X140175461Y-94802958D01*
X140181529Y-94806670D01*
X140187557Y-94810027D01*
X140193547Y-94813032D01*
X140199497Y-94815683D01*
X140205408Y-94817980D01*
X140211280Y-94819924D01*
X140217112Y-94821515D01*
X140222906Y-94822752D01*
X140228659Y-94823636D01*
X140234374Y-94824166D01*
X140240049Y-94824343D01*
X140252066Y-94824264D01*
X140262983Y-94824028D01*
X140272802Y-94823635D01*
X140281521Y-94823084D01*
X140289141Y-94822377D01*
X140295661Y-94821513D01*
X140301081Y-94820493D01*
X140305401Y-94819316D01*
X140335564Y-94809262D01*
X140343419Y-94803918D01*
X140351903Y-94797949D01*
X140361015Y-94791352D01*
X140370753Y-94784126D01*
X140376881Y-94780356D01*
X140382695Y-94776585D01*
X140388193Y-94772815D01*
X140393377Y-94769045D01*
X140398247Y-94765274D01*
X140402802Y-94761504D01*
X140407043Y-94757734D01*
X140410970Y-94753964D01*
X140471295Y-94708720D01*
X140490462Y-94694266D01*
X140507741Y-94681069D01*
X140523135Y-94669130D01*
X140536647Y-94658449D01*
X140652270Y-94743909D01*
X140643001Y-94762702D01*
X140632789Y-94781377D01*
X140621635Y-94799934D01*
X140609539Y-94818373D01*
X140596500Y-94836695D01*
X140582518Y-94854898D01*
X140567595Y-94872984D01*
X140551728Y-94890952D01*
X140534919Y-94908802D01*
X140517168Y-94926534D01*
X140498474Y-94944149D01*
X140478837Y-94961645D01*
X140458257Y-94979024D01*
X140436735Y-94996285D01*
X140414269Y-95013428D01*
X140390861Y-95030453D01*
X140367730Y-95046889D01*
X140344833Y-95062265D01*
X140322173Y-95076581D01*
X140299747Y-95089836D01*
X140277557Y-95102030D01*
X140255603Y-95113165D01*
X140233884Y-95123238D01*
X140212400Y-95132252D01*
X140191153Y-95140205D01*
X140170141Y-95147097D01*
X140149364Y-95152930D01*
X140128824Y-95157701D01*
X140108519Y-95161413D01*
X140088450Y-95164064D01*
X140068617Y-95165654D01*
X140049020Y-95166185D01*
X140030772Y-95165880D01*
X140013103Y-95164967D01*
X139996014Y-95163445D01*
X139979504Y-95161315D01*
X139963573Y-95158575D01*
X139948222Y-95155227D01*
X139933450Y-95151271D01*
X139919257Y-95146705D01*
X139905643Y-95141531D01*
X139892609Y-95135748D01*
X139880154Y-95129356D01*
X139868279Y-95122356D01*
X139856983Y-95114747D01*
X139846266Y-95106529D01*
X139836128Y-95097702D01*
X139826570Y-95088266D01*
X139817591Y-95078222D01*
X139809192Y-95067569D01*
X139801371Y-95056307D01*
X139794130Y-95044437D01*
X139787468Y-95031957D01*
X139781386Y-95018869D01*
X139775883Y-95005172D01*
X139770959Y-94990867D01*
X139766614Y-94975952D01*
X139762849Y-94960429D01*
X139759663Y-94944297D01*
X139757056Y-94927556D01*
X139755029Y-94910207D01*
X139753581Y-94892248D01*
X139752712Y-94873681D01*
X139752422Y-94854505D01*
X139752717Y-94836065D01*
X139753600Y-94817193D01*
X139755073Y-94797890D01*
X139757135Y-94778154D01*
X139759786Y-94757986D01*
X139763026Y-94737387D01*
X139766855Y-94716355D01*
X139771274Y-94694892D01*
X139776281Y-94672997D01*
X139781878Y-94650670D01*
X139788063Y-94627911D01*
X139794838Y-94604720D01*
X139802202Y-94581097D01*
X139810155Y-94557042D01*
X139827828Y-94507636D01*
X139641827Y-94698666D01*
X139575060Y-94764959D01*
X139510493Y-94825598D01*
X139479035Y-94853797D01*
X139448126Y-94880583D01*
X139417766Y-94905954D01*
X139387957Y-94929912D01*
X139358698Y-94952455D01*
X139329988Y-94973585D01*
X139301829Y-94993301D01*
X139274219Y-95011603D01*
X139247160Y-95028491D01*
X139220650Y-95043964D01*
X139194690Y-95058024D01*
X139169281Y-95070670D01*
X139144793Y-95082235D01*
X139120345Y-95093055D01*
X139095937Y-95103128D01*
X139071567Y-95112456D01*
X139047237Y-95121037D01*
X139022947Y-95128872D01*
X138998695Y-95135961D01*
X138974483Y-95142304D01*
X138950310Y-95147901D01*
X138926176Y-95152752D01*
X138902081Y-95156856D01*
X138878026Y-95160214D01*
X138854010Y-95162826D01*
X138830032Y-95164692D01*
X138806094Y-95165811D01*
X138782195Y-95166185D01*
X138758669Y-95165772D01*
X138735851Y-95164535D01*
X138713739Y-95162473D01*
X138692335Y-95159586D01*
X138671638Y-95155875D01*
X138651647Y-95151339D01*
X138632364Y-95145978D01*
X138613788Y-95139792D01*
X138595919Y-95132782D01*
X138578756Y-95124947D01*
X138562301Y-95116287D01*
X138546552Y-95106802D01*
X138531510Y-95096492D01*
X138517175Y-95085358D01*
X138503546Y-95073399D01*
X138490625Y-95060616D01*
X138479059Y-95046478D01*
X138468240Y-95031711D01*
X138458166Y-95016316D01*
X138448839Y-95000293D01*
X138440257Y-94983641D01*
X138432422Y-94966361D01*
X138425333Y-94948452D01*
X138418990Y-94929915D01*
X138413393Y-94910749D01*
X138408543Y-94890955D01*
X138404438Y-94870532D01*
X138401080Y-94849481D01*
X138398468Y-94827801D01*
X138396602Y-94805493D01*
X138395483Y-94782556D01*
X138395110Y-94758991D01*
X138396170Y-94715044D01*
X138399351Y-94671175D01*
X138404653Y-94627385D01*
X138412076Y-94583674D01*
X138421620Y-94540041D01*
X138433284Y-94496486D01*
X138447069Y-94453010D01*
X138462975Y-94409612D01*
X138481002Y-94366292D01*
X138501150Y-94323051D01*
X138523418Y-94279889D01*
X138547807Y-94236805D01*
X138574317Y-94193799D01*
X138602948Y-94150872D01*
X138633700Y-94108023D01*
X138666572Y-94065253D01*
X138701094Y-94022405D01*
X138736794Y-93980578D01*
X138773673Y-93939772D01*
X138811729Y-93899987D01*
X138850964Y-93861223D01*
X138891377Y-93823481D01*
X138932968Y-93786759D01*
X138975738Y-93751059D01*
X139019686Y-93716380D01*
X139064811Y-93682722D01*
X139111116Y-93650085D01*
X139158598Y-93618469D01*
X139207259Y-93587875D01*
X139257097Y-93558302D01*
X139308114Y-93529750D01*
X139360310Y-93502220D01*
X139413094Y-93476025D01*
X139465879Y-93451479D01*
X139518663Y-93428582D01*
X139571447Y-93407335D01*
X139624232Y-93387737D01*
X139677016Y-93369788D01*
X139729800Y-93353489D01*
X139782585Y-93338840D01*
X139835369Y-93325840D01*
X139888153Y-93314489D01*
X139940938Y-93304788D01*
X139993722Y-93296737D01*
X140046507Y-93290335D01*
X140099291Y-93285583D01*
X140152075Y-93282481D01*
X140204860Y-93281028D01*
X140214914Y-93446922D01*
G37*
G36*
X137795000Y-92075000D02*
G01*
X137822847Y-92076414D01*
X137849986Y-92078770D01*
X137876418Y-92082069D01*
X137902143Y-92086311D01*
X137927161Y-92091495D01*
X137951472Y-92097622D01*
X137975075Y-92104691D01*
X137997972Y-92112703D01*
X138020161Y-92121657D01*
X138041644Y-92131554D01*
X138062419Y-92142394D01*
X138082488Y-92154176D01*
X138101849Y-92166901D01*
X138120503Y-92180568D01*
X138138451Y-92195178D01*
X138155497Y-92209945D01*
X138171444Y-92225341D01*
X138186290Y-92241365D01*
X138200036Y-92258017D01*
X138212683Y-92275298D01*
X138224229Y-92293207D01*
X138234676Y-92311744D01*
X138244023Y-92330910D01*
X138252270Y-92350704D01*
X138259417Y-92371126D01*
X138265465Y-92392177D01*
X138270413Y-92413857D01*
X138274261Y-92436164D01*
X138277010Y-92459100D01*
X138278659Y-92482665D01*
X138279209Y-92506857D01*
X138278664Y-92533201D01*
X138277029Y-92559445D01*
X138274305Y-92585592D01*
X138270490Y-92611641D01*
X138259592Y-92663443D01*
X138244334Y-92714852D01*
X138224716Y-92765869D01*
X138200739Y-92816493D01*
X138172403Y-92866725D01*
X138139707Y-92916563D01*
X138102652Y-92966009D01*
X138061238Y-93015062D01*
X138015464Y-93063723D01*
X137965331Y-93111991D01*
X137910838Y-93159866D01*
X137851985Y-93207349D01*
X137788774Y-93254439D01*
X137721203Y-93301137D01*
X137651473Y-93345751D01*
X137580526Y-93387853D01*
X137508360Y-93427440D01*
X137434977Y-93464515D01*
X137360376Y-93499076D01*
X137284558Y-93531124D01*
X137207521Y-93560658D01*
X137129267Y-93587679D01*
X137049796Y-93612186D01*
X136969107Y-93634180D01*
X136887201Y-93653660D01*
X136804077Y-93670627D01*
X136719735Y-93685080D01*
X136634177Y-93697019D01*
X136547401Y-93706445D01*
X136459408Y-93713357D01*
X136400732Y-93889542D01*
X136370747Y-93972155D01*
X136340329Y-94051116D01*
X136309479Y-94126424D01*
X136278197Y-94198079D01*
X136246483Y-94266082D01*
X136214338Y-94330432D01*
X136181760Y-94391130D01*
X136148750Y-94448175D01*
X136115308Y-94501568D01*
X136081434Y-94551308D01*
X136047128Y-94597396D01*
X136012390Y-94639832D01*
X135977220Y-94678616D01*
X135941618Y-94713747D01*
X135974530Y-94710212D01*
X136010426Y-94707149D01*
X136049307Y-94704557D01*
X136091173Y-94702436D01*
X136136025Y-94700786D01*
X136183860Y-94699608D01*
X136234681Y-94698901D01*
X136288487Y-94698666D01*
X137334117Y-94728828D01*
X137361708Y-94728259D01*
X137389181Y-94726551D01*
X137416537Y-94723703D01*
X137443774Y-94719717D01*
X137470893Y-94714592D01*
X137497895Y-94708328D01*
X137524778Y-94700925D01*
X137551544Y-94692384D01*
X137578191Y-94682703D01*
X137604721Y-94671883D01*
X137631133Y-94659924D01*
X137657426Y-94646826D01*
X137683602Y-94632589D01*
X137709659Y-94617212D01*
X137735598Y-94600697D01*
X137761420Y-94583043D01*
X137897151Y-94764018D01*
X137849397Y-94818375D01*
X137806667Y-94865818D01*
X137768961Y-94906348D01*
X137751994Y-94924021D01*
X137736284Y-94939966D01*
X137728508Y-94946879D01*
X137720260Y-94953791D01*
X137711541Y-94960704D01*
X137702351Y-94967616D01*
X137692690Y-94974528D01*
X137682557Y-94981440D01*
X137671953Y-94988352D01*
X137660878Y-94995264D01*
X137649331Y-95002175D01*
X137637313Y-95009087D01*
X137624824Y-95015999D01*
X137611864Y-95022911D01*
X137598432Y-95029824D01*
X137584529Y-95036736D01*
X137570155Y-95043649D01*
X137555309Y-95050562D01*
X137540740Y-95057258D01*
X137525935Y-95063523D01*
X137510894Y-95069356D01*
X137495617Y-95074756D01*
X137480104Y-95079724D01*
X137464355Y-95084261D01*
X137448371Y-95088365D01*
X137432151Y-95092037D01*
X137415694Y-95095277D01*
X137399003Y-95098084D01*
X137382075Y-95100460D01*
X137364911Y-95102404D01*
X137347512Y-95103916D01*
X137329877Y-95104996D01*
X137312007Y-95105644D01*
X137293901Y-95105860D01*
X136353839Y-95065643D01*
X136079863Y-95066585D01*
X135886320Y-95069413D01*
X135819711Y-95071534D01*
X135773211Y-95074126D01*
X135746819Y-95077189D01*
X135741163Y-95078898D01*
X135740535Y-95080724D01*
X135718011Y-95079488D01*
X135696941Y-95077034D01*
X135677323Y-95073362D01*
X135668060Y-95071070D01*
X135659159Y-95068473D01*
X135650622Y-95065572D01*
X135642448Y-95062366D01*
X135634637Y-95058856D01*
X135627190Y-95055042D01*
X135620106Y-95050923D01*
X135613385Y-95046500D01*
X135607028Y-95041772D01*
X135601033Y-95036740D01*
X135595402Y-95031404D01*
X135590135Y-95025763D01*
X135585230Y-95019818D01*
X135580689Y-95013568D01*
X135576512Y-95007014D01*
X135572697Y-95000156D01*
X135569246Y-94992993D01*
X135566158Y-94985526D01*
X135563433Y-94977755D01*
X135561072Y-94969679D01*
X135559074Y-94961298D01*
X135557439Y-94952613D01*
X135556168Y-94943624D01*
X135555259Y-94934331D01*
X135554714Y-94924733D01*
X135554533Y-94914830D01*
X135556830Y-94901751D01*
X135559953Y-94887651D01*
X135563900Y-94872530D01*
X135568671Y-94856388D01*
X135574268Y-94839225D01*
X135580689Y-94821041D01*
X135587935Y-94801836D01*
X135596006Y-94781609D01*
X135604902Y-94760362D01*
X135614622Y-94738094D01*
X135636537Y-94690494D01*
X135661751Y-94638810D01*
X135690264Y-94583043D01*
X135721762Y-94518082D01*
X135755930Y-94441341D01*
X135792769Y-94352817D01*
X135832279Y-94252512D01*
X135874459Y-94140425D01*
X135919310Y-94016555D01*
X135966832Y-93880902D01*
X136017024Y-93733466D01*
X135978320Y-93732739D01*
X135940126Y-93730559D01*
X135902442Y-93726926D01*
X135865269Y-93721840D01*
X135828607Y-93715301D01*
X135792455Y-93707308D01*
X135756814Y-93697862D01*
X135721683Y-93686964D01*
X135687063Y-93674612D01*
X135652953Y-93660807D01*
X135619354Y-93645549D01*
X135586266Y-93628838D01*
X135553688Y-93610674D01*
X135521621Y-93591057D01*
X135490064Y-93569987D01*
X135459018Y-93547464D01*
X135564587Y-93361461D01*
X135591980Y-93378506D01*
X135620120Y-93394451D01*
X135649006Y-93409296D01*
X135678639Y-93423041D01*
X135709017Y-93435688D01*
X135740142Y-93447234D01*
X135772013Y-93457681D01*
X135804630Y-93467029D01*
X135837993Y-93475277D01*
X135872103Y-93482425D01*
X135906958Y-93488473D01*
X135942560Y-93493422D01*
X135978909Y-93497271D01*
X136016003Y-93500020D01*
X136053844Y-93501670D01*
X136092431Y-93502220D01*
X136100914Y-93482112D01*
X136529787Y-93482112D01*
X136592135Y-93476810D01*
X136653502Y-93469703D01*
X136713886Y-93460788D01*
X136773288Y-93450066D01*
X136831709Y-93437538D01*
X136889147Y-93423204D01*
X136945603Y-93407062D01*
X137001077Y-93389114D01*
X137055569Y-93369359D01*
X137109079Y-93347797D01*
X137161608Y-93324429D01*
X137213155Y-93299254D01*
X137263719Y-93272272D01*
X137313303Y-93243484D01*
X137361904Y-93212889D01*
X137409524Y-93180487D01*
X137455180Y-93147083D01*
X137497890Y-93113484D01*
X137537655Y-93079688D01*
X137574475Y-93045695D01*
X137608349Y-93011507D01*
X137639277Y-92977122D01*
X137667260Y-92942541D01*
X137692297Y-92907764D01*
X137714389Y-92872791D01*
X137733535Y-92837621D01*
X137749735Y-92802255D01*
X137762990Y-92766692D01*
X137773300Y-92730934D01*
X137780664Y-92694979D01*
X137785082Y-92658828D01*
X137786555Y-92622480D01*
X137786221Y-92608165D01*
X137785220Y-92594124D01*
X137783551Y-92580359D01*
X137781214Y-92566868D01*
X137778210Y-92553652D01*
X137774538Y-92540711D01*
X137770199Y-92528046D01*
X137765191Y-92515655D01*
X137759517Y-92503538D01*
X137753174Y-92491697D01*
X137746164Y-92480131D01*
X137738485Y-92468840D01*
X137730139Y-92457824D01*
X137721126Y-92447082D01*
X137711444Y-92436616D01*
X137701095Y-92426424D01*
X137690257Y-92416684D01*
X137679104Y-92407573D01*
X137667637Y-92399090D01*
X137655856Y-92391235D01*
X137643760Y-92384008D01*
X137631350Y-92377410D01*
X137618625Y-92371441D01*
X137605587Y-92366099D01*
X137592233Y-92361386D01*
X137578566Y-92357302D01*
X137564583Y-92353846D01*
X137550287Y-92351018D01*
X137535676Y-92348819D01*
X137520751Y-92347248D01*
X137505511Y-92346305D01*
X137489957Y-92345991D01*
X137451175Y-92347228D01*
X137412747Y-92350939D01*
X137374672Y-92357125D01*
X137336950Y-92365785D01*
X137299581Y-92376919D01*
X137262565Y-92390528D01*
X137225903Y-92406610D01*
X137189594Y-92425167D01*
X137153638Y-92446199D01*
X137118036Y-92469704D01*
X137082787Y-92495684D01*
X137047891Y-92524138D01*
X137013349Y-92555066D01*
X136979160Y-92588469D01*
X136945324Y-92624346D01*
X136911842Y-92662697D01*
X136879129Y-92703012D01*
X136847593Y-92744780D01*
X136817235Y-92788001D01*
X136788055Y-92832676D01*
X136760053Y-92878804D01*
X136733229Y-92926384D01*
X136707583Y-92975418D01*
X136683115Y-93025905D01*
X136659825Y-93077846D01*
X136637714Y-93131239D01*
X136616780Y-93186085D01*
X136597025Y-93242385D01*
X136578448Y-93300137D01*
X136561049Y-93359342D01*
X136544829Y-93420001D01*
X136529787Y-93482112D01*
X136100914Y-93482112D01*
X136129486Y-93414384D01*
X136167758Y-93329337D01*
X136207248Y-93247078D01*
X136247956Y-93167607D01*
X136289881Y-93090925D01*
X136333023Y-93017031D01*
X136377383Y-92945925D01*
X136422961Y-92877608D01*
X136469756Y-92812079D01*
X136517768Y-92749339D01*
X136566998Y-92689387D01*
X136617445Y-92632223D01*
X136669110Y-92577847D01*
X136721992Y-92526260D01*
X136776092Y-92477462D01*
X136831409Y-92431451D01*
X136887493Y-92388230D01*
X136943892Y-92347797D01*
X137000604Y-92310153D01*
X137057630Y-92275297D01*
X137114971Y-92243230D01*
X137172626Y-92213951D01*
X137230594Y-92187461D01*
X137288877Y-92163759D01*
X137347474Y-92142845D01*
X137406385Y-92124721D01*
X137465610Y-92109384D01*
X137525149Y-92096836D01*
X137585002Y-92087076D01*
X137645170Y-92080105D01*
X137705651Y-92075923D01*
X137766447Y-92074528D01*
X137795000Y-92075000D01*
G37*
G36*
X141444055Y-93152307D02*
G01*
X141461708Y-93179621D01*
X141478144Y-93207132D01*
X141493362Y-93234840D01*
X141507363Y-93262744D01*
X141520147Y-93290845D01*
X141531713Y-93319142D01*
X141542062Y-93347635D01*
X141551193Y-93376325D01*
X141559107Y-93405212D01*
X141565804Y-93434295D01*
X141571283Y-93463574D01*
X141575544Y-93493049D01*
X141578588Y-93522721D01*
X141580415Y-93552589D01*
X141581024Y-93582653D01*
X141579531Y-93644629D01*
X141575053Y-93712417D01*
X141567591Y-93786016D01*
X141557143Y-93865428D01*
X141543711Y-93950653D01*
X141527295Y-94041689D01*
X141507894Y-94138539D01*
X141485509Y-94241201D01*
X141579451Y-94103663D01*
X141670252Y-93977594D01*
X141757911Y-93862993D01*
X141842429Y-93759860D01*
X141883509Y-93712593D01*
X141923805Y-93668194D01*
X141963315Y-93626662D01*
X142002039Y-93587996D01*
X142039979Y-93552198D01*
X142077132Y-93519266D01*
X142113501Y-93489201D01*
X142149084Y-93462003D01*
X142183999Y-93436436D01*
X142218365Y-93412518D01*
X142252180Y-93390250D01*
X142285445Y-93369631D01*
X142318161Y-93350661D01*
X142350326Y-93333341D01*
X142381942Y-93317671D01*
X142413007Y-93303650D01*
X142443523Y-93291279D01*
X142473489Y-93280557D01*
X142502905Y-93271485D01*
X142531771Y-93264062D01*
X142560088Y-93258289D01*
X142587854Y-93254165D01*
X142615071Y-93251691D01*
X142641738Y-93250866D01*
X142667757Y-93251376D01*
X142693030Y-93252908D01*
X142717556Y-93255460D01*
X142741337Y-93259034D01*
X142764371Y-93263629D01*
X142786659Y-93269245D01*
X142808200Y-93275882D01*
X142828996Y-93283540D01*
X142849045Y-93292220D01*
X142868348Y-93301920D01*
X142886905Y-93312642D01*
X142904716Y-93324385D01*
X142921781Y-93337149D01*
X142938099Y-93350935D01*
X142953672Y-93365742D01*
X142968499Y-93381570D01*
X142982500Y-93397554D01*
X142995599Y-93414088D01*
X143007794Y-93431171D01*
X143019085Y-93448805D01*
X143029473Y-93466989D01*
X143038958Y-93485723D01*
X143047539Y-93505007D01*
X143055217Y-93524840D01*
X143061992Y-93545224D01*
X143067863Y-93566157D01*
X143072831Y-93587640D01*
X143076896Y-93609673D01*
X143080057Y-93632256D01*
X143082315Y-93655389D01*
X143083670Y-93679071D01*
X143084122Y-93703303D01*
X143082590Y-93770855D01*
X143077995Y-93837777D01*
X143070336Y-93904072D01*
X143059615Y-93969738D01*
X143045829Y-94034776D01*
X143028981Y-94099185D01*
X143009069Y-94162966D01*
X142986094Y-94226118D01*
X142960055Y-94288642D01*
X142930953Y-94350538D01*
X142898787Y-94411806D01*
X142863558Y-94472445D01*
X142825266Y-94532456D01*
X142783910Y-94591839D01*
X142739491Y-94650593D01*
X142692009Y-94708720D01*
X142643230Y-94764115D01*
X142593665Y-94815937D01*
X142543315Y-94864185D01*
X142492180Y-94908859D01*
X142440259Y-94949959D01*
X142387553Y-94987485D01*
X142334062Y-95021438D01*
X142279785Y-95051817D01*
X142224723Y-95078621D01*
X142168875Y-95101852D01*
X142112242Y-95121509D01*
X142054824Y-95137592D01*
X141996620Y-95150101D01*
X141937631Y-95159036D01*
X141877856Y-95164397D01*
X141817296Y-95166185D01*
X141790630Y-95165890D01*
X141764670Y-95165006D01*
X141739417Y-95163534D01*
X141714871Y-95161472D01*
X141691032Y-95158821D01*
X141667899Y-95155580D01*
X141645473Y-95151751D01*
X141623754Y-95147333D01*
X141602742Y-95142325D01*
X141582437Y-95136729D01*
X141562839Y-95130543D01*
X141543948Y-95123768D01*
X141525764Y-95116405D01*
X141508287Y-95108452D01*
X141491518Y-95099909D01*
X141475455Y-95090778D01*
X141596105Y-94874614D01*
X141714555Y-94890007D01*
X141808499Y-94901004D01*
X141877937Y-94907603D01*
X141903465Y-94909253D01*
X141922865Y-94909803D01*
X141956661Y-94908566D01*
X141990181Y-94904855D01*
X142023426Y-94898669D01*
X142056397Y-94890009D01*
X142089092Y-94878875D01*
X142121512Y-94865266D01*
X142153658Y-94849184D01*
X142185529Y-94830627D01*
X142217125Y-94809595D01*
X142248446Y-94786090D01*
X142279492Y-94760110D01*
X142310263Y-94731656D01*
X142340760Y-94700727D01*
X142370982Y-94667325D01*
X142400929Y-94631448D01*
X142430601Y-94593097D01*
X142459213Y-94553450D01*
X142485979Y-94513685D01*
X142510898Y-94473802D01*
X142533972Y-94433801D01*
X142555200Y-94393683D01*
X142574582Y-94353446D01*
X142592117Y-94313092D01*
X142607807Y-94272620D01*
X142621651Y-94232031D01*
X142633649Y-94191323D01*
X142643801Y-94150498D01*
X142652107Y-94109554D01*
X142658568Y-94068493D01*
X142663182Y-94027315D01*
X142665951Y-93986018D01*
X142666874Y-93944603D01*
X142666579Y-93929071D01*
X142665696Y-93913892D01*
X142664223Y-93899066D01*
X142662161Y-93884594D01*
X142659510Y-93870475D01*
X142656270Y-93856709D01*
X142652440Y-93843296D01*
X142648022Y-93830237D01*
X142643015Y-93817532D01*
X142637418Y-93805180D01*
X142631232Y-93793181D01*
X142624458Y-93781536D01*
X142617094Y-93770245D01*
X142609141Y-93759307D01*
X142600599Y-93748723D01*
X142591468Y-93738493D01*
X142582493Y-93728143D01*
X142573165Y-93718462D01*
X142563484Y-93709448D01*
X142553449Y-93701102D01*
X142543061Y-93693424D01*
X142532320Y-93686413D01*
X142521225Y-93680071D01*
X142509777Y-93674396D01*
X142497976Y-93669389D01*
X142485821Y-93665049D01*
X142473312Y-93661377D01*
X142460450Y-93658373D01*
X142447235Y-93656036D01*
X142433665Y-93654368D01*
X142419742Y-93653366D01*
X142405465Y-93653032D01*
X142388111Y-93653509D01*
X142370610Y-93654937D01*
X142352961Y-93657318D01*
X142335166Y-93660652D01*
X142317222Y-93664938D01*
X142299132Y-93670176D01*
X142280894Y-93676367D01*
X142262509Y-93683510D01*
X142243976Y-93691605D01*
X142225296Y-93700653D01*
X142187495Y-93721606D01*
X142149104Y-93746369D01*
X142110124Y-93774941D01*
X142070555Y-93807323D01*
X142030397Y-93843514D01*
X141989650Y-93883514D01*
X141948314Y-93927324D01*
X141906389Y-93974944D01*
X141863875Y-94026373D01*
X141820772Y-94081612D01*
X141777080Y-94140659D01*
X141690991Y-94266178D01*
X141606159Y-94398923D01*
X141522583Y-94538896D01*
X141440264Y-94686095D01*
X141359202Y-94840521D01*
X141279397Y-95002173D01*
X141200849Y-95171053D01*
X141123559Y-95347159D01*
X141049331Y-95529548D01*
X140977460Y-95714765D01*
X140907944Y-95902809D01*
X140840786Y-96093681D01*
X140775983Y-96287381D01*
X140713538Y-96483908D01*
X140653448Y-96683264D01*
X140595715Y-96885447D01*
X140294091Y-96779878D01*
X140309802Y-96735892D01*
X140346877Y-96634094D01*
X140485120Y-96257061D01*
X140659814Y-95770693D01*
X140831989Y-95286835D01*
X141038725Y-94698351D01*
X141186396Y-94260051D01*
X141238081Y-94097220D01*
X141275000Y-93971936D01*
X141297151Y-93884198D01*
X141304534Y-93834007D01*
X141304024Y-93794027D01*
X141302492Y-93754518D01*
X141299940Y-93715480D01*
X141296366Y-93676912D01*
X141291771Y-93638816D01*
X141286155Y-93601191D01*
X141279518Y-93564038D01*
X141271860Y-93527355D01*
X141263180Y-93491144D01*
X141253480Y-93455404D01*
X141242758Y-93420136D01*
X141231015Y-93385339D01*
X141218251Y-93351013D01*
X141204465Y-93317159D01*
X141189659Y-93283777D01*
X141173830Y-93250866D01*
X141425184Y-93125189D01*
X141444055Y-93152307D01*
G37*
G36*
X144869332Y-91546685D02*
G01*
X144703123Y-91847995D01*
X144543827Y-92161245D01*
X144391443Y-92486434D01*
X144245971Y-92823562D01*
X144107412Y-93172630D01*
X143975765Y-93533637D01*
X143851031Y-93906585D01*
X143733210Y-94291472D01*
X143829510Y-94150557D01*
X143922354Y-94021895D01*
X144011741Y-93905486D01*
X144097673Y-93801331D01*
X144139342Y-93753849D01*
X144180148Y-93709430D01*
X144220090Y-93668074D01*
X144259167Y-93629782D01*
X144297381Y-93594553D01*
X144334731Y-93562388D01*
X144371217Y-93533286D01*
X144406840Y-93507247D01*
X144441930Y-93483506D01*
X144476824Y-93461296D01*
X144511522Y-93440618D01*
X144546024Y-93421472D01*
X144580330Y-93403858D01*
X144614439Y-93387775D01*
X144648353Y-93373224D01*
X144682070Y-93360205D01*
X144715591Y-93348717D01*
X144748915Y-93338761D01*
X144782043Y-93330337D01*
X144814975Y-93323444D01*
X144847711Y-93318083D01*
X144880250Y-93314254D01*
X144912592Y-93311957D01*
X144944738Y-93311191D01*
X144963962Y-93311564D01*
X144982675Y-93312683D01*
X145000878Y-93314549D01*
X145018571Y-93317161D01*
X145035753Y-93320519D01*
X145052425Y-93324624D01*
X145068586Y-93329474D01*
X145084237Y-93335071D01*
X145099378Y-93341414D01*
X145114008Y-93348503D01*
X145128127Y-93356338D01*
X145141736Y-93364920D01*
X145154834Y-93374247D01*
X145167422Y-93384320D01*
X145179499Y-93395140D01*
X145191065Y-93406705D01*
X145202631Y-93418860D01*
X145213450Y-93431447D01*
X145223524Y-93444466D01*
X145232851Y-93457917D01*
X145241432Y-93471800D01*
X145249267Y-93486116D01*
X145256356Y-93500863D01*
X145262699Y-93516043D01*
X145268296Y-93531654D01*
X145273147Y-93547698D01*
X145277251Y-93564174D01*
X145280609Y-93581082D01*
X145283221Y-93598421D01*
X145285087Y-93616193D01*
X145286206Y-93634397D01*
X145286579Y-93653032D01*
X145286285Y-93671158D01*
X145285401Y-93689087D01*
X145283928Y-93706820D01*
X145281867Y-93724356D01*
X145279215Y-93741696D01*
X145275975Y-93758839D01*
X145272146Y-93775785D01*
X145267728Y-93792536D01*
X145262720Y-93809089D01*
X145257124Y-93825447D01*
X145250938Y-93841608D01*
X145244163Y-93857573D01*
X145236799Y-93873341D01*
X145228847Y-93888913D01*
X145220305Y-93904288D01*
X145211173Y-93919468D01*
X145202120Y-93934431D01*
X145192556Y-93949159D01*
X145182482Y-93963651D01*
X145171897Y-93977908D01*
X145160802Y-93991928D01*
X145149196Y-94005714D01*
X145137080Y-94019263D01*
X145124454Y-94032577D01*
X145111317Y-94045655D01*
X145097670Y-94058498D01*
X145083512Y-94071105D01*
X145068843Y-94083476D01*
X145053664Y-94095612D01*
X145037974Y-94107512D01*
X145021774Y-94119177D01*
X145005062Y-94130606D01*
X144954635Y-94163204D01*
X144901379Y-94195646D01*
X144845296Y-94227930D01*
X144786385Y-94260056D01*
X144724646Y-94292025D01*
X144660079Y-94323836D01*
X144592685Y-94355490D01*
X144522463Y-94386987D01*
X144528374Y-94416070D01*
X144534795Y-94444249D01*
X144541726Y-94471526D01*
X144549168Y-94497898D01*
X144557120Y-94523368D01*
X144565583Y-94547934D01*
X144574557Y-94571596D01*
X144584041Y-94594355D01*
X144594036Y-94616211D01*
X144604542Y-94637164D01*
X144615558Y-94657213D01*
X144627085Y-94676359D01*
X144639123Y-94694601D01*
X144651672Y-94711941D01*
X144664732Y-94728377D01*
X144678302Y-94743909D01*
X144692244Y-94758519D01*
X144706421Y-94772187D01*
X144720833Y-94784912D01*
X144735482Y-94796694D01*
X144750366Y-94807533D01*
X144765486Y-94817430D01*
X144780842Y-94826385D01*
X144796434Y-94834397D01*
X144812261Y-94841466D01*
X144828324Y-94847593D01*
X144844623Y-94852777D01*
X144861158Y-94857019D01*
X144877929Y-94860318D01*
X144894935Y-94862674D01*
X144912178Y-94864088D01*
X144929656Y-94864559D01*
X144934541Y-94864353D01*
X144939769Y-94863734D01*
X144945341Y-94862704D01*
X144951257Y-94861260D01*
X144964119Y-94857136D01*
X144978356Y-94851363D01*
X144993967Y-94843940D01*
X145010953Y-94834868D01*
X145029313Y-94824146D01*
X145049048Y-94811775D01*
X145070158Y-94797754D01*
X145092642Y-94782084D01*
X145116501Y-94764764D01*
X145141734Y-94745795D01*
X145168343Y-94725176D01*
X145196326Y-94702907D01*
X145225684Y-94678989D01*
X145256417Y-94653422D01*
X145382094Y-94764018D01*
X145345508Y-94821849D01*
X145308648Y-94875950D01*
X145271514Y-94926319D01*
X145234104Y-94972958D01*
X145196420Y-95015865D01*
X145158461Y-95055041D01*
X145120227Y-95090485D01*
X145081719Y-95122199D01*
X145042936Y-95150182D01*
X145003878Y-95174433D01*
X144964546Y-95194953D01*
X144924938Y-95211743D01*
X144885056Y-95224801D01*
X144844900Y-95234129D01*
X144804469Y-95239725D01*
X144763763Y-95241591D01*
X144751185Y-95241301D01*
X144738587Y-95240432D01*
X144725969Y-95238984D01*
X144713332Y-95236956D01*
X144700676Y-95234350D01*
X144688000Y-95231164D01*
X144675304Y-95227398D01*
X144662589Y-95223054D01*
X144637100Y-95212627D01*
X144611532Y-95199883D01*
X144585886Y-95184821D01*
X144560162Y-95167443D01*
X144534360Y-95147747D01*
X144508478Y-95125734D01*
X144482519Y-95101404D01*
X144456481Y-95074756D01*
X144430364Y-95045791D01*
X144404169Y-95014509D01*
X144377895Y-94980910D01*
X144351542Y-94944993D01*
X144325974Y-94908330D01*
X144302056Y-94872492D01*
X144279788Y-94837479D01*
X144259169Y-94803291D01*
X144240200Y-94769927D01*
X144222880Y-94737389D01*
X144207209Y-94705676D01*
X144193189Y-94674787D01*
X144180817Y-94644723D01*
X144170095Y-94615484D01*
X144161023Y-94587069D01*
X144153600Y-94559480D01*
X144147827Y-94532714D01*
X144143703Y-94506774D01*
X144141229Y-94481657D01*
X144140404Y-94457366D01*
X144140758Y-94449825D01*
X144141818Y-94442285D01*
X144143585Y-94434744D01*
X144146060Y-94427203D01*
X144149241Y-94419663D01*
X144153129Y-94412122D01*
X144157724Y-94404581D01*
X144163026Y-94397041D01*
X144169035Y-94389500D01*
X144175750Y-94381960D01*
X144183173Y-94374419D01*
X144191303Y-94366878D01*
X144200139Y-94359338D01*
X144209683Y-94351797D01*
X144219933Y-94344256D01*
X144230890Y-94336716D01*
X144242554Y-94329175D01*
X144254925Y-94321635D01*
X144268003Y-94314094D01*
X144281788Y-94306553D01*
X144311478Y-94291472D01*
X144343996Y-94276391D01*
X144379341Y-94261310D01*
X144417514Y-94246228D01*
X144458514Y-94231147D01*
X144502342Y-94216066D01*
X144519212Y-94210234D01*
X144535885Y-94204048D01*
X144552362Y-94197509D01*
X144568642Y-94190616D01*
X144584726Y-94183370D01*
X144600612Y-94175770D01*
X144616303Y-94167817D01*
X144631796Y-94159511D01*
X144647094Y-94150851D01*
X144662195Y-94141838D01*
X144677100Y-94132471D01*
X144691808Y-94122750D01*
X144706321Y-94112677D01*
X144720637Y-94102249D01*
X144734757Y-94091469D01*
X144748681Y-94080335D01*
X144762681Y-94068376D01*
X144775778Y-94056379D01*
X144787971Y-94044342D01*
X144799262Y-94032265D01*
X144809650Y-94020150D01*
X144819135Y-94007995D01*
X144827716Y-93995800D01*
X144835395Y-93983566D01*
X144842170Y-93971293D01*
X144848042Y-93958981D01*
X144853011Y-93946629D01*
X144857076Y-93934237D01*
X144860238Y-93921807D01*
X144862497Y-93909337D01*
X144863852Y-93896827D01*
X144864304Y-93884278D01*
X144864088Y-93871906D01*
X144863440Y-93859927D01*
X144862359Y-93848340D01*
X144860847Y-93837147D01*
X144858902Y-93826346D01*
X144856525Y-93815938D01*
X144853717Y-93805923D01*
X144850476Y-93796301D01*
X144846804Y-93787072D01*
X144842700Y-93778235D01*
X144838164Y-93769791D01*
X144833196Y-93761741D01*
X144827796Y-93754083D01*
X144821965Y-93746818D01*
X144815702Y-93739945D01*
X144809007Y-93733466D01*
X144801976Y-93726769D01*
X144794710Y-93720504D01*
X144787207Y-93714671D01*
X144779470Y-93709271D01*
X144771496Y-93704303D01*
X144763288Y-93699767D01*
X144754843Y-93695663D01*
X144746163Y-93691991D01*
X144737248Y-93688751D01*
X144728097Y-93685943D01*
X144718711Y-93683567D01*
X144709089Y-93681623D01*
X144699232Y-93680112D01*
X144689139Y-93679032D01*
X144678811Y-93678384D01*
X144668248Y-93678168D01*
X144633637Y-93682664D01*
X144598928Y-93689871D01*
X144564121Y-93699787D01*
X144529216Y-93712414D01*
X144494213Y-93727750D01*
X144459112Y-93745797D01*
X144423912Y-93766553D01*
X144388615Y-93790019D01*
X144353219Y-93816195D01*
X144317725Y-93845082D01*
X144282133Y-93876678D01*
X144246443Y-93910984D01*
X144210654Y-93948000D01*
X144174768Y-93987726D01*
X144138783Y-94030162D01*
X144102700Y-94075307D01*
X144066519Y-94123163D01*
X144030239Y-94173729D01*
X143957386Y-94282990D01*
X143884140Y-94403090D01*
X143810502Y-94534030D01*
X143736470Y-94675809D01*
X143662046Y-94828428D01*
X143587229Y-94991887D01*
X143512020Y-95166185D01*
X143205367Y-95060616D01*
X143207645Y-95028451D01*
X143214478Y-94985996D01*
X143225868Y-94933252D01*
X143241813Y-94870217D01*
X143262313Y-94796893D01*
X143287370Y-94713279D01*
X143351151Y-94515181D01*
X143433155Y-94275923D01*
X143533382Y-93995505D01*
X143651833Y-93673928D01*
X143788509Y-93311191D01*
X143930209Y-92946806D01*
X144061227Y-92620281D01*
X144181562Y-92331616D01*
X144291214Y-92080812D01*
X144390184Y-91867868D01*
X144478472Y-91692784D01*
X144556079Y-91555560D01*
X144623004Y-91456197D01*
X144869332Y-91546685D01*
G37*
D11*
G04 #@! TO.C,SW6*
X92660798Y-96895300D03*
D12*
X97829107Y-95014189D03*
D11*
X102997416Y-93133078D03*
D13*
X95811188Y-89470003D03*
X91830967Y-93153458D03*
X101227894Y-89733256D03*
G04 #@! TD*
D11*
G04 #@! TO.C,SW4*
X155899173Y-53386743D03*
D12*
X150420102Y-53866100D03*
D11*
X144941031Y-54345457D03*
D13*
X150934321Y-59743649D03*
X155732267Y-57215861D03*
X145770320Y-58087419D03*
G04 #@! TD*
D11*
G04 #@! TO.C,SW5*
X177590001Y-57919998D03*
D12*
X172090001Y-57919998D03*
D11*
X166590001Y-57919998D03*
D13*
X172090001Y-63819998D03*
X177090001Y-61719998D03*
X167090001Y-61719998D03*
G04 #@! TD*
D11*
G04 #@! TO.C,SW13*
X128966959Y-86154861D03*
D12*
X134383402Y-85199796D03*
D11*
X139799845Y-84244731D03*
D13*
X133358878Y-79389430D03*
X128799500Y-82325767D03*
X138647578Y-80589286D03*
G04 #@! TD*
D14*
G04 #@! TO.C,REF\u002A\u002A*
X193879999Y-74269998D03*
X193880002Y-67969999D03*
X197480002Y-74269999D03*
X197479999Y-67969999D03*
G04 #@! TD*
D15*
G04 #@! TO.C,U2*
X187960000Y-62230000D03*
X187960000Y-64770000D03*
X187960000Y-67310000D03*
X187960000Y-69850000D03*
X187960000Y-72390000D03*
X187960000Y-74930000D03*
X187960000Y-77470000D03*
X187960000Y-80010000D03*
X187960000Y-82550000D03*
X187960000Y-85090000D03*
X187960000Y-87630000D03*
X187960000Y-90170000D03*
X203200010Y-62229990D03*
X203200010Y-64769990D03*
X203200010Y-67309990D03*
X203200010Y-69849990D03*
X203200010Y-72389990D03*
X203200010Y-74929990D03*
X203200010Y-77469990D03*
X203200010Y-80009990D03*
X203200010Y-82549990D03*
X203200010Y-85089990D03*
X203200010Y-87629990D03*
X203200010Y-90169990D03*
X187960000Y-59690000D03*
X203200010Y-59689990D03*
G04 #@! TD*
D11*
G04 #@! TO.C,SW3*
X133895847Y-50761230D03*
D12*
X128479404Y-51716295D03*
D11*
X123062961Y-52671360D03*
D13*
X129503928Y-57526661D03*
X134063306Y-54590324D03*
X124215228Y-56326805D03*
G04 #@! TD*
D11*
G04 #@! TO.C,SW7*
X107684510Y-79084906D03*
D12*
X112997102Y-77661401D03*
D11*
X118309694Y-76237896D03*
D13*
X111470070Y-71962439D03*
X107183960Y-75284978D03*
X116843219Y-72696788D03*
G04 #@! TD*
D11*
G04 #@! TO.C,SW12*
X112084407Y-95505596D03*
D12*
X117396999Y-94082091D03*
D11*
X122709591Y-92658586D03*
D13*
X115869967Y-88383129D03*
X111583857Y-91705668D03*
X121243116Y-89117478D03*
G04 #@! TD*
D11*
G04 #@! TO.C,SW17*
X176335829Y-113192736D03*
D12*
X181814900Y-113672093D03*
D11*
X187293971Y-114151450D03*
D13*
X182329119Y-107794544D03*
X177165118Y-109450774D03*
X187127065Y-110322332D03*
G04 #@! TD*
D11*
G04 #@! TO.C,SW10*
X166590008Y-74919990D03*
D12*
X172090008Y-74919990D03*
D11*
X177590008Y-74919990D03*
D13*
X172090008Y-69019990D03*
X167090008Y-71119990D03*
X177090008Y-71119990D03*
G04 #@! TD*
D11*
G04 #@! TO.C,SW1*
X97183118Y-77158283D03*
D12*
X92014809Y-79039394D03*
D11*
X86846500Y-80920505D03*
D13*
X94032728Y-84583580D03*
X98012949Y-80900125D03*
X88616022Y-84320327D03*
G04 #@! TD*
D11*
G04 #@! TO.C,SW2*
X113909699Y-59817192D03*
D12*
X108597107Y-61240697D03*
D11*
X103284515Y-62664202D03*
D13*
X110124139Y-66939659D03*
X114410249Y-63617120D03*
X104750990Y-66205310D03*
G04 #@! TD*
D11*
G04 #@! TO.C,SW18*
X195620598Y-115619588D03*
D12*
X200933190Y-117043093D03*
D11*
X206245782Y-118466598D03*
D13*
X202460222Y-111344131D03*
X197087073Y-112078480D03*
X206746332Y-114666670D03*
G04 #@! TD*
D11*
G04 #@! TO.C,SW15*
X166590003Y-91919996D03*
D12*
X172090003Y-91919996D03*
D11*
X177590003Y-91919996D03*
D13*
X172090003Y-86019996D03*
X167090003Y-88119996D03*
X177090003Y-88119996D03*
G04 #@! TD*
D11*
G04 #@! TO.C,SW11*
X98475091Y-112870098D03*
D12*
X103643400Y-110988987D03*
D11*
X108811709Y-109107876D03*
D13*
X101625481Y-105444801D03*
X97645260Y-109128256D03*
X107042187Y-105708054D03*
G04 #@! TD*
D11*
G04 #@! TO.C,SW9*
X146422732Y-71280752D03*
D12*
X151901803Y-70801395D03*
D11*
X157380874Y-70322038D03*
D13*
X151387584Y-64923846D03*
X146589638Y-67451634D03*
X156551585Y-66580076D03*
G04 #@! TD*
D11*
G04 #@! TO.C,SW8*
X126014958Y-69413158D03*
D12*
X131431401Y-68458093D03*
D11*
X136847844Y-67503028D03*
D13*
X130406877Y-62647727D03*
X125847499Y-65584064D03*
X135695577Y-63847583D03*
G04 #@! TD*
D11*
G04 #@! TO.C,SW14*
X147904339Y-88216054D03*
D12*
X153383410Y-87736697D03*
D11*
X158862481Y-87257340D03*
D13*
X152869191Y-81859148D03*
X148071245Y-84386936D03*
X158033192Y-83515378D03*
G04 #@! TD*
D11*
G04 #@! TO.C,SW16*
X156922733Y-114151453D03*
D12*
X162401804Y-113672096D03*
D11*
X167880875Y-113192739D03*
D13*
X161887585Y-107794547D03*
X157089639Y-110322335D03*
X167051586Y-109450777D03*
G04 #@! TD*
M02*
