G04 #@! TF.GenerationSoftware,KiCad,Pcbnew,8.0.7*
G04 #@! TF.CreationDate,2025-03-14T09:47:22+07:00*
G04 #@! TF.ProjectId,Lapka,4c61706b-612e-46b6-9963-61645f706362,rev?*
G04 #@! TF.SameCoordinates,Original*
G04 #@! TF.FileFunction,Copper,L1,Top*
G04 #@! TF.FilePolarity,Positive*
%FSLAX46Y46*%
G04 Gerber Fmt 4.6, Leading zero omitted, Abs format (unit mm)*
G04 Created by KiCad (PCBNEW 8.0.7) date 2025-03-14 09:47:22*
%MOMM*%
%LPD*%
G01*
G04 APERTURE LIST*
G04 #@! TA.AperFunction,ComponentPad*
%ADD10C,2.200000*%
G04 #@! TD*
G04 #@! TA.AperFunction,SMDPad,CuDef*
%ADD11R,1.400000X1.700000*%
G04 #@! TD*
G04 #@! TA.AperFunction,ComponentPad*
%ADD12C,1.600000*%
G04 #@! TD*
G04 #@! TA.AperFunction,ViaPad*
%ADD13C,0.600000*%
G04 #@! TD*
G04 #@! TA.AperFunction,Conductor*
%ADD14C,0.200000*%
G04 #@! TD*
G04 APERTURE END LIST*
D10*
G04 #@! TO.P,SW6,1,OUT*
G04 #@! TO.N,SW6*
X95811188Y-89470003D03*
G04 #@! TO.P,SW6,2,IN*
G04 #@! TO.N,GND*
X91830967Y-93153458D03*
X101227894Y-89733256D03*
G04 #@! TD*
G04 #@! TO.P,SW4,1,OUT*
G04 #@! TO.N,SW4*
X150934321Y-59743649D03*
G04 #@! TO.P,SW4,2,IN*
G04 #@! TO.N,GND*
X155732267Y-57215861D03*
X145770320Y-58087419D03*
G04 #@! TD*
G04 #@! TO.P,SW5,1,OUT*
G04 #@! TO.N,SW5*
X172090001Y-63819998D03*
G04 #@! TO.P,SW5,2,IN*
G04 #@! TO.N,GND*
X177090001Y-61719998D03*
X167090001Y-61719998D03*
G04 #@! TD*
G04 #@! TO.P,SW13,1,OUT*
G04 #@! TO.N,SW13*
X133358878Y-79389430D03*
G04 #@! TO.P,SW13,2,IN*
G04 #@! TO.N,GND*
X128799500Y-82325767D03*
X138647578Y-80589286D03*
G04 #@! TD*
D11*
G04 #@! TO.P,REF\u002A\u002A,1*
G04 #@! TO.N,RSTG0*
X193879999Y-74269998D03*
G04 #@! TO.N,RST0*
X193880002Y-67969999D03*
G04 #@! TO.P,REF\u002A\u002A,2*
G04 #@! TO.N,RSTG1*
X197480002Y-74269999D03*
G04 #@! TO.N,RST1*
X197479999Y-67969999D03*
G04 #@! TD*
D12*
G04 #@! TO.P,U2,1,D1*
G04 #@! TO.N,SW1*
X187960000Y-62230000D03*
G04 #@! TO.P,U2,2,D0*
G04 #@! TO.N,SW11*
X187960000Y-64770000D03*
G04 #@! TO.P,U2,3,GND*
G04 #@! TO.N,RST0*
X187960000Y-67310000D03*
G04 #@! TO.P,U2,4,GND*
G04 #@! TO.N,unconnected-(U2-GND-Pad4)*
X187960000Y-69850000D03*
G04 #@! TO.P,U2,5,D2*
G04 #@! TO.N,SW6*
X187960000Y-72390000D03*
G04 #@! TO.P,U2,6,D3*
G04 #@! TO.N,SW12*
X187960000Y-74930000D03*
G04 #@! TO.P,U2,7,D4*
G04 #@! TO.N,SW14*
X187960000Y-77470000D03*
G04 #@! TO.P,U2,8,D5*
G04 #@! TO.N,SW18*
X187960000Y-80010000D03*
G04 #@! TO.P,U2,9,D6*
G04 #@! TO.N,SW15*
X187960000Y-82550000D03*
G04 #@! TO.P,U2,10,D7*
G04 #@! TO.N,SW17*
X187960000Y-85090000D03*
G04 #@! TO.P,U2,11,D8*
G04 #@! TO.N,SW16*
X187960000Y-87630000D03*
G04 #@! TO.P,U2,12,D9*
G04 #@! TO.N,SW13*
X187960000Y-90170000D03*
G04 #@! TO.P,U2,13,RAW*
G04 #@! TO.N,SW1*
X203200010Y-62229990D03*
G04 #@! TO.P,U2,14,GND*
G04 #@! TO.N,SW11*
X203200010Y-64769990D03*
G04 #@! TO.P,U2,15,RST*
G04 #@! TO.N,RST1*
X203200010Y-67309990D03*
G04 #@! TO.P,U2,16,VCC*
G04 #@! TO.N,unconnected-(U2-VCC-Pad16)*
X203200010Y-69849990D03*
G04 #@! TO.P,U2,17,D21*
G04 #@! TO.N,SW5*
X203200010Y-72389990D03*
G04 #@! TO.P,U2,18,D20*
G04 #@! TO.N,SW10*
X203200010Y-74929990D03*
G04 #@! TO.P,U2,19,D19*
G04 #@! TO.N,SW4*
X203200010Y-77469990D03*
G04 #@! TO.P,U2,20,D18*
G04 #@! TO.N,SW9*
X203200010Y-80009990D03*
G04 #@! TO.P,U2,21,D15*
G04 #@! TO.N,SW3*
X203200010Y-82549990D03*
G04 #@! TO.P,U2,22,D14*
G04 #@! TO.N,SW8*
X203200010Y-85089990D03*
G04 #@! TO.P,U2,23,D16*
G04 #@! TO.N,SW2*
X203200010Y-87629990D03*
G04 #@! TO.P,U2,24,D10*
G04 #@! TO.N,SW7*
X203200010Y-90169990D03*
G04 #@! TO.P,U2,28,B-*
G04 #@! TO.N,GND*
X187960000Y-59690000D03*
G04 #@! TO.P,U2,29,B+*
X203200010Y-59689990D03*
G04 #@! TD*
D10*
G04 #@! TO.P,SW3,1,OUT*
G04 #@! TO.N,SW3*
X129503928Y-57526661D03*
G04 #@! TO.P,SW3,2,IN*
G04 #@! TO.N,GND*
X134063306Y-54590324D03*
X124215228Y-56326805D03*
G04 #@! TD*
G04 #@! TO.P,SW7,1,OUT*
G04 #@! TO.N,SW7*
X111470070Y-71962439D03*
G04 #@! TO.P,SW7,2,IN*
G04 #@! TO.N,GND*
X107183960Y-75284978D03*
X116843219Y-72696788D03*
G04 #@! TD*
G04 #@! TO.P,SW12,1,OUT*
G04 #@! TO.N,SW12*
X115869967Y-88383129D03*
G04 #@! TO.P,SW12,2,IN*
G04 #@! TO.N,GND*
X111583857Y-91705668D03*
X121243116Y-89117478D03*
G04 #@! TD*
G04 #@! TO.P,SW17,1,OUT*
G04 #@! TO.N,SW17*
X182329119Y-107794544D03*
G04 #@! TO.P,SW17,2,IN*
G04 #@! TO.N,GND*
X177165118Y-109450774D03*
X187127065Y-110322332D03*
G04 #@! TD*
G04 #@! TO.P,SW10,1,OUT*
G04 #@! TO.N,SW10*
X172090008Y-69019990D03*
G04 #@! TO.P,SW10,2,IN*
G04 #@! TO.N,GND*
X167090008Y-71119990D03*
X177090008Y-71119990D03*
G04 #@! TD*
G04 #@! TO.P,SW1,1,OUT*
G04 #@! TO.N,SW1*
X94032728Y-84583580D03*
G04 #@! TO.P,SW1,2,IN*
G04 #@! TO.N,GND*
X98012949Y-80900125D03*
X88616022Y-84320327D03*
G04 #@! TD*
G04 #@! TO.P,SW2,1,OUT*
G04 #@! TO.N,SW2*
X110124139Y-66939659D03*
G04 #@! TO.P,SW2,2,IN*
G04 #@! TO.N,GND*
X114410249Y-63617120D03*
X104750990Y-66205310D03*
G04 #@! TD*
G04 #@! TO.P,SW18,1,OUT*
G04 #@! TO.N,SW18*
X202460222Y-111344131D03*
G04 #@! TO.P,SW18,2,IN*
G04 #@! TO.N,GND*
X197087073Y-112078480D03*
X206746332Y-114666670D03*
G04 #@! TD*
G04 #@! TO.P,SW15,1,OUT*
G04 #@! TO.N,SW15*
X172090003Y-86019996D03*
G04 #@! TO.P,SW15,2,IN*
G04 #@! TO.N,GND*
X167090003Y-88119996D03*
X177090003Y-88119996D03*
G04 #@! TD*
G04 #@! TO.P,SW11,1,OUT*
G04 #@! TO.N,SW11*
X101625481Y-105444801D03*
G04 #@! TO.P,SW11,2,IN*
G04 #@! TO.N,GND*
X97645260Y-109128256D03*
X107042187Y-105708054D03*
G04 #@! TD*
G04 #@! TO.P,SW9,1,OUT*
G04 #@! TO.N,SW9*
X151387584Y-64923846D03*
G04 #@! TO.P,SW9,2,IN*
G04 #@! TO.N,GND*
X146589638Y-67451634D03*
X156551585Y-66580076D03*
G04 #@! TD*
G04 #@! TO.P,SW8,1,OUT*
G04 #@! TO.N,SW8*
X130406877Y-62647727D03*
G04 #@! TO.P,SW8,2,IN*
G04 #@! TO.N,GND*
X125847499Y-65584064D03*
X135695577Y-63847583D03*
G04 #@! TD*
G04 #@! TO.P,SW14,1,OUT*
G04 #@! TO.N,SW14*
X152869191Y-81859148D03*
G04 #@! TO.P,SW14,2,IN*
G04 #@! TO.N,GND*
X148071245Y-84386936D03*
X158033192Y-83515378D03*
G04 #@! TD*
G04 #@! TO.P,SW16,1,OUT*
G04 #@! TO.N,SW16*
X161887585Y-107794547D03*
G04 #@! TO.P,SW16,2,IN*
G04 #@! TO.N,GND*
X157089639Y-110322335D03*
X167051586Y-109450777D03*
G04 #@! TD*
D13*
G04 #@! TO.N,SW11*
X190500000Y-65405000D03*
G04 #@! TO.N,GND*
X194945000Y-84455000D03*
X195580000Y-84455000D03*
X196850000Y-85725000D03*
X195580000Y-83185000D03*
X197485000Y-84455000D03*
X194310000Y-85725000D03*
X194310000Y-83820000D03*
X196215000Y-83820000D03*
X194945000Y-83820000D03*
X195580000Y-85090000D03*
X194945000Y-85725000D03*
X194945000Y-81280000D03*
X196215000Y-85725000D03*
X194945000Y-81915000D03*
X194945000Y-83185000D03*
X196850000Y-83820000D03*
X193675000Y-84455000D03*
X193675000Y-83185000D03*
X194310000Y-84455000D03*
X193675000Y-82550000D03*
X197485000Y-83185000D03*
X194310000Y-85090000D03*
X197485000Y-82550000D03*
X196850000Y-81280000D03*
X196850000Y-85090000D03*
X196850000Y-84455000D03*
X196215000Y-81915000D03*
X194945000Y-85090000D03*
X198120000Y-83185000D03*
X193040000Y-82550000D03*
X196850000Y-81915000D03*
X194310000Y-81280000D03*
X196215000Y-85090000D03*
X195580000Y-83820000D03*
X198120000Y-82550000D03*
X194310000Y-81915000D03*
X193675000Y-85090000D03*
X196215000Y-81280000D03*
X193040000Y-83185000D03*
X196215000Y-84455000D03*
X196215000Y-83185000D03*
X197485000Y-85090000D03*
G04 #@! TO.N,RST0*
X193880002Y-67969999D03*
G04 #@! TO.N,RST1*
X197479999Y-67969999D03*
G04 #@! TO.N,RSTG1*
X197480002Y-74269999D03*
G04 #@! TO.N,RSTG0*
X193879999Y-74269998D03*
G04 #@! TD*
D14*
G04 #@! TO.N,SW11*
X190500000Y-65405000D02*
X189865000Y-64770000D01*
X187960010Y-64769990D02*
X187960000Y-64770000D01*
X189865000Y-64770000D02*
X187960000Y-64770000D01*
G04 #@! TO.N,SW8*
X157480000Y-76200000D02*
X162560000Y-81280000D01*
X186055000Y-78740000D02*
X196850000Y-78740000D01*
X162560000Y-81280000D02*
X183515000Y-81280000D01*
X130406877Y-62647727D02*
X143959150Y-76200000D01*
X196850000Y-78740000D02*
X203200001Y-85090001D01*
X143959150Y-76200000D02*
X157480000Y-76200000D01*
X183515000Y-81280000D02*
X186055000Y-78740000D01*
G04 #@! TO.N,SW10*
X189230000Y-68580000D02*
X172529998Y-68580000D01*
X172529998Y-68580000D02*
X172090008Y-69019990D01*
X198755006Y-70485000D02*
X191135000Y-70485000D01*
X203200002Y-74929996D02*
X198755006Y-70485000D01*
X191135000Y-70485000D02*
X189230000Y-68580000D01*
G04 #@! TO.N,SW4*
X186055000Y-71120000D02*
X198755000Y-71120000D01*
X159385000Y-71755000D02*
X167005000Y-79375000D01*
X201295000Y-75565000D02*
X203199990Y-77469990D01*
X203200010Y-77469990D02*
X203200000Y-77470000D01*
X167005000Y-79375000D02*
X177800000Y-79375000D01*
X150934321Y-59743649D02*
X153723649Y-59743649D01*
X153723649Y-59743649D02*
X159385000Y-65405000D01*
X203200000Y-77470000D02*
X203199995Y-77470000D01*
X203199990Y-77469990D02*
X203200010Y-77469990D01*
X201295000Y-73660000D02*
X201295000Y-75565000D01*
X159385000Y-65405000D02*
X159385000Y-71755000D01*
X198755000Y-71120000D02*
X201295000Y-73660000D01*
X177800000Y-79375000D02*
X186055000Y-71120000D01*
G04 #@! TO.N,SW3*
X151130000Y-75565000D02*
X133091661Y-57526661D01*
X203200010Y-82549990D02*
X200025000Y-79374980D01*
X163195000Y-80645000D02*
X158115000Y-75565000D01*
X181610000Y-80645000D02*
X163195000Y-80645000D01*
X191770000Y-72390000D02*
X191135000Y-73025000D01*
X158115000Y-75565000D02*
X151130000Y-75565000D01*
X200025000Y-73660000D02*
X198755000Y-72390000D01*
X200025000Y-79374980D02*
X200025000Y-73660000D01*
X203200003Y-82550001D02*
X203200003Y-82549997D01*
X133091661Y-57526661D02*
X129503928Y-57526661D01*
X189230001Y-76199999D02*
X186055001Y-76199999D01*
X198755000Y-72390000D02*
X191770000Y-72390000D01*
X186055001Y-76199999D02*
X181610000Y-80645000D01*
X191135000Y-74295000D02*
X189230001Y-76199999D01*
X191135000Y-73025000D02*
X191135000Y-74295000D01*
X203200003Y-82549997D02*
X203200010Y-82549990D01*
G04 #@! TO.N,SW9*
X200660000Y-73660000D02*
X198755000Y-71755000D01*
X189230000Y-73660000D02*
X186055000Y-73660000D01*
X179705000Y-80010000D02*
X166473738Y-80010000D01*
X191135000Y-71755000D02*
X189230000Y-73660000D01*
X198755000Y-71755000D02*
X191135000Y-71755000D01*
X200660000Y-77469980D02*
X200660000Y-73660000D01*
X186055000Y-73660000D02*
X179705000Y-80010000D01*
X203200001Y-80009999D02*
X203200010Y-80009990D01*
X166473738Y-80010000D02*
X151387584Y-64923846D01*
X203200010Y-80009990D02*
X200660000Y-77469980D01*
G04 #@! TO.N,SW2*
X189865000Y-81915000D02*
X189230000Y-81280000D01*
X115199659Y-66939659D02*
X110124139Y-66939659D01*
X194310000Y-87630000D02*
X189865000Y-83185000D01*
X186055000Y-81280000D02*
X185420000Y-81915000D01*
X125095000Y-76835000D02*
X115199659Y-66939659D01*
X156845000Y-76835000D02*
X125095000Y-76835000D01*
X203200002Y-87630000D02*
X194310000Y-87630000D01*
X161925000Y-81915000D02*
X156845000Y-76835000D01*
X189865000Y-83185000D02*
X189865000Y-81915000D01*
X203200004Y-87630002D02*
X203200002Y-87630000D01*
X185420000Y-81915000D02*
X161925000Y-81915000D01*
X189230000Y-81280000D02*
X186055000Y-81280000D01*
G04 #@! TO.N,SW5*
X185420000Y-67310000D02*
X179705000Y-67310000D01*
X201295000Y-67310000D02*
X200025000Y-66040000D01*
X176214998Y-63819998D02*
X172090001Y-63819998D01*
X203200003Y-72389999D02*
X201295000Y-70484996D01*
X201295000Y-70484996D02*
X201295000Y-67310000D01*
X179705000Y-67310000D02*
X176214998Y-63819998D01*
X200025000Y-66040000D02*
X186690000Y-66040000D01*
X186690000Y-66040000D02*
X185420000Y-67310000D01*
G04 #@! TO.N,SW1*
X94161308Y-84455000D02*
X94032728Y-84583580D01*
X187960010Y-62229990D02*
X187960000Y-62230000D01*
G04 #@! TO.N,SW7*
X203200001Y-90169993D02*
X194944993Y-90169993D01*
X116977631Y-77470000D02*
X111470070Y-71962439D01*
X161290000Y-82550000D02*
X156210000Y-77470000D01*
X194944993Y-90169993D02*
X188595000Y-83820000D01*
X156210000Y-77470000D02*
X116977631Y-77470000D01*
X185420000Y-82550000D02*
X161290000Y-82550000D01*
X188595000Y-83820000D02*
X186690000Y-83820000D01*
X186690000Y-83820000D02*
X185420000Y-82550000D01*
G04 #@! TO.N,RST0*
X193220003Y-67310000D02*
X187960000Y-67310000D01*
X193880002Y-67969999D02*
X193220003Y-67310000D01*
X193675000Y-68175001D02*
X193880002Y-67969999D01*
G04 #@! TD*
G04 #@! TA.AperFunction,Conductor*
G04 #@! TO.N,GND*
G36*
X135522414Y-42395854D02*
G01*
X135541064Y-42398280D01*
X135671160Y-42425379D01*
X135689215Y-42430597D01*
X135813693Y-42477073D01*
X135830773Y-42484975D01*
X135946763Y-42549750D01*
X135962456Y-42560150D01*
X136056650Y-42633448D01*
X136071904Y-42647519D01*
X136086811Y-42663781D01*
X136097454Y-42670559D01*
X136114204Y-42683349D01*
X136129357Y-42697108D01*
X136129672Y-42697359D01*
X138901543Y-45213794D01*
X138908684Y-45220823D01*
X138936475Y-45250486D01*
X138936479Y-45250489D01*
X138944313Y-45255359D01*
X138962199Y-45268861D01*
X138967281Y-45273475D01*
X138974998Y-45280480D01*
X138975084Y-45280548D01*
X139070054Y-45366794D01*
X139072940Y-45369415D01*
X139072945Y-45369420D01*
X139400125Y-45620596D01*
X139400135Y-45620602D01*
X139400144Y-45620609D01*
X139746921Y-45844001D01*
X140110914Y-46038072D01*
X140110913Y-46038072D01*
X140110918Y-46038074D01*
X140489662Y-46201510D01*
X140746410Y-46288000D01*
X140880569Y-46333195D01*
X140880573Y-46333196D01*
X140880579Y-46333198D01*
X141281014Y-46432244D01*
X141688245Y-46497976D01*
X142099507Y-46529945D01*
X142512005Y-46527936D01*
X142512016Y-46527935D01*
X142512017Y-46527935D01*
X142717469Y-46509926D01*
X142717470Y-46509926D01*
X142722798Y-46509459D01*
X142722798Y-46509463D01*
X142722813Y-46509457D01*
X157873326Y-45183967D01*
X157873343Y-45183967D01*
X157890448Y-45182469D01*
X157890450Y-45182470D01*
X157906644Y-45181051D01*
X157906655Y-45181054D01*
X157906655Y-45181051D01*
X157906656Y-45181051D01*
X157951388Y-45177137D01*
X157960783Y-45176674D01*
X158098371Y-45175120D01*
X158117143Y-45176336D01*
X158248678Y-45194960D01*
X158267055Y-45199004D01*
X158394257Y-45237323D01*
X158411817Y-45244105D01*
X158531747Y-45301233D01*
X158548077Y-45310594D01*
X158657980Y-45385218D01*
X158672705Y-45396944D01*
X158773496Y-45490547D01*
X158780149Y-45497213D01*
X158821702Y-45542142D01*
X158821704Y-45542143D01*
X158829315Y-45550372D01*
X158829317Y-45550375D01*
X159716794Y-46509926D01*
X161207668Y-48121879D01*
X161369600Y-48296961D01*
X161369754Y-48297128D01*
X161380581Y-48308877D01*
X161380581Y-48308878D01*
X161398288Y-48328093D01*
X161520623Y-48460850D01*
X161520642Y-48460869D01*
X161569289Y-48505608D01*
X161824884Y-48740671D01*
X162151186Y-48994414D01*
X162151197Y-48994421D01*
X162151202Y-48994425D01*
X162228786Y-49045070D01*
X162497318Y-49220362D01*
X162860916Y-49416972D01*
X162860921Y-49416974D01*
X162860920Y-49416974D01*
X163239489Y-49582897D01*
X163239495Y-49582899D01*
X163239501Y-49582902D01*
X163630488Y-49717022D01*
X164031211Y-49818416D01*
X164031220Y-49818417D01*
X164031222Y-49818418D01*
X164132913Y-49835371D01*
X164438935Y-49886391D01*
X164850878Y-49920485D01*
X165057379Y-49920469D01*
X179514905Y-49920470D01*
X179515000Y-49920478D01*
X179524110Y-49920477D01*
X179524113Y-49920478D01*
X179584601Y-49920472D01*
X179595388Y-49920942D01*
X179752761Y-49934697D01*
X179774030Y-49938446D01*
X179921378Y-49977918D01*
X179941673Y-49985304D01*
X180079920Y-50049765D01*
X180098627Y-50060565D01*
X180223579Y-50148055D01*
X180240130Y-50161944D01*
X180347979Y-50269797D01*
X180361874Y-50286358D01*
X180449348Y-50411295D01*
X180460156Y-50430017D01*
X180524604Y-50568252D01*
X180531996Y-50588567D01*
X180571457Y-50735896D01*
X180575208Y-50757186D01*
X180588047Y-50904142D01*
X180588261Y-50922910D01*
X180586286Y-50953539D01*
X180586287Y-50953547D01*
X180587073Y-50957476D01*
X180589481Y-50981802D01*
X180589480Y-50993776D01*
X180589500Y-50994082D01*
X180589501Y-65985848D01*
X180589501Y-65985849D01*
X180589502Y-65985851D01*
X180623610Y-66113145D01*
X180627024Y-66119058D01*
X180686879Y-66222731D01*
X180689502Y-66227273D01*
X180782688Y-66320459D01*
X180830923Y-66348307D01*
X180896815Y-66386351D01*
X181024109Y-66420459D01*
X185160935Y-66420468D01*
X185227974Y-66440153D01*
X185273728Y-66492957D01*
X185283672Y-66562115D01*
X185254647Y-66625671D01*
X185248616Y-66632148D01*
X185207585Y-66673180D01*
X185146263Y-66706666D01*
X185119903Y-66709500D01*
X180005097Y-66709500D01*
X179938058Y-66689815D01*
X179917416Y-66673181D01*
X176762359Y-63518124D01*
X176728874Y-63456801D01*
X176733858Y-63387109D01*
X176775730Y-63331176D01*
X176841194Y-63306759D01*
X176859769Y-63306825D01*
X177090001Y-63324945D01*
X177341073Y-63305185D01*
X177585957Y-63246394D01*
X177818632Y-63150017D01*
X178033362Y-63018430D01*
X178033364Y-63018428D01*
X178034181Y-63017730D01*
X177301060Y-62284610D01*
X177321592Y-62279109D01*
X177458409Y-62200117D01*
X177570120Y-62088406D01*
X177649112Y-61951589D01*
X177654613Y-61931057D01*
X178387733Y-62664178D01*
X178388431Y-62663361D01*
X178388433Y-62663359D01*
X178520020Y-62448629D01*
X178616397Y-62215954D01*
X178675188Y-61971070D01*
X178694948Y-61719998D01*
X178675188Y-61468925D01*
X178616397Y-61224041D01*
X178520020Y-60991366D01*
X178388430Y-60776632D01*
X178387734Y-60775817D01*
X178387733Y-60775817D01*
X177654613Y-61508937D01*
X177649112Y-61488407D01*
X177570120Y-61351590D01*
X177458409Y-61239879D01*
X177321592Y-61160887D01*
X177301058Y-61155385D01*
X178034180Y-60422264D01*
X178033363Y-60421566D01*
X177818632Y-60289978D01*
X177585957Y-60193601D01*
X177341073Y-60134810D01*
X177090001Y-60115050D01*
X176838928Y-60134810D01*
X176594044Y-60193601D01*
X176361369Y-60289978D01*
X176146638Y-60421565D01*
X176145819Y-60422264D01*
X176878941Y-61155385D01*
X176858410Y-61160887D01*
X176721593Y-61239879D01*
X176609882Y-61351590D01*
X176530890Y-61488407D01*
X176525388Y-61508938D01*
X175792267Y-60775816D01*
X175791568Y-60776635D01*
X175659981Y-60991366D01*
X175563604Y-61224041D01*
X175504813Y-61468925D01*
X175485053Y-61719998D01*
X175504813Y-61971070D01*
X175563604Y-62215954D01*
X175659981Y-62448629D01*
X175791569Y-62663360D01*
X175792267Y-62664177D01*
X176525388Y-61931056D01*
X176530890Y-61951589D01*
X176609882Y-62088406D01*
X176721593Y-62200117D01*
X176858410Y-62279109D01*
X176878941Y-62284610D01*
X176145820Y-63017730D01*
X176146368Y-63031680D01*
X176164670Y-63059720D01*
X176165166Y-63129588D01*
X176127809Y-63188633D01*
X176064461Y-63218108D01*
X176045944Y-63219498D01*
X173656489Y-63219498D01*
X173589450Y-63199813D01*
X173543695Y-63147009D01*
X173541928Y-63142950D01*
X173520468Y-63091141D01*
X173520467Y-63091139D01*
X173475911Y-63018430D01*
X173388839Y-62876343D01*
X173388839Y-62876341D01*
X173267809Y-62734634D01*
X173225225Y-62684774D01*
X173098572Y-62576602D01*
X173033657Y-62521159D01*
X173033654Y-62521158D01*
X172818860Y-62389531D01*
X172586111Y-62293124D01*
X172341152Y-62234315D01*
X172090001Y-62214549D01*
X171838849Y-62234315D01*
X171593890Y-62293124D01*
X171361141Y-62389531D01*
X171146347Y-62521158D01*
X171146344Y-62521159D01*
X170954777Y-62684774D01*
X170791162Y-62876341D01*
X170791161Y-62876344D01*
X170659534Y-63091138D01*
X170563127Y-63323887D01*
X170504318Y-63568846D01*
X170484552Y-63819998D01*
X170504318Y-64071149D01*
X170563127Y-64316108D01*
X170659534Y-64548857D01*
X170791161Y-64763651D01*
X170791162Y-64763654D01*
X170821908Y-64799653D01*
X170954777Y-64955222D01*
X171072162Y-65055478D01*
X171146344Y-65118836D01*
X171146347Y-65118837D01*
X171361141Y-65250464D01*
X171593890Y-65346871D01*
X171838853Y-65405681D01*
X172090001Y-65425447D01*
X172341149Y-65405681D01*
X172586112Y-65346871D01*
X172818860Y-65250464D01*
X173033660Y-65118834D01*
X173225225Y-64955222D01*
X173388837Y-64763657D01*
X173520467Y-64548857D01*
X173541928Y-64497046D01*
X173585768Y-64442642D01*
X173652062Y-64420577D01*
X173656489Y-64420498D01*
X175914901Y-64420498D01*
X175981940Y-64440183D01*
X176002582Y-64456817D01*
X179220139Y-67674374D01*
X179220149Y-67674385D01*
X179224479Y-67678715D01*
X179224480Y-67678716D01*
X179313584Y-67767820D01*
X179347068Y-67829141D01*
X179342084Y-67898833D01*
X179300213Y-67954767D01*
X179234749Y-67979184D01*
X179225902Y-67979500D01*
X173363307Y-67979500D01*
X173296268Y-67959815D01*
X173269017Y-67936032D01*
X173264023Y-67930185D01*
X173225232Y-67884766D01*
X173088304Y-67767818D01*
X173033664Y-67721151D01*
X173033661Y-67721150D01*
X172818867Y-67589523D01*
X172586118Y-67493116D01*
X172341159Y-67434307D01*
X172090008Y-67414541D01*
X171838856Y-67434307D01*
X171593897Y-67493116D01*
X171361148Y-67589523D01*
X171146354Y-67721150D01*
X171146351Y-67721151D01*
X170954784Y-67884766D01*
X170791169Y-68076333D01*
X170791168Y-68076336D01*
X170659541Y-68291130D01*
X170563134Y-68523879D01*
X170504325Y-68768838D01*
X170484559Y-69019990D01*
X170504325Y-69271141D01*
X170563134Y-69516100D01*
X170659541Y-69748849D01*
X170791168Y-69963643D01*
X170791169Y-69963646D01*
X170791172Y-69963649D01*
X170954784Y-70155214D01*
X171049678Y-70236261D01*
X171146351Y-70318828D01*
X171146354Y-70318829D01*
X171361148Y-70450456D01*
X171555320Y-70530884D01*
X171593897Y-70546863D01*
X171838860Y-70605673D01*
X172090008Y-70625439D01*
X172341156Y-70605673D01*
X172586119Y-70546863D01*
X172818867Y-70450456D01*
X173033667Y-70318826D01*
X173225232Y-70155214D01*
X173388844Y-69963649D01*
X173520474Y-69748849D01*
X173616881Y-69516101D01*
X173674631Y-69275552D01*
X173709422Y-69214961D01*
X173771448Y-69182797D01*
X173795205Y-69180500D01*
X186642609Y-69180500D01*
X186709648Y-69200185D01*
X186755403Y-69252989D01*
X186765347Y-69322147D01*
X186754991Y-69356905D01*
X186733261Y-69403502D01*
X186733258Y-69403511D01*
X186674366Y-69623302D01*
X186674364Y-69623313D01*
X186654532Y-69849998D01*
X186654532Y-69850001D01*
X186674364Y-70076686D01*
X186674366Y-70076697D01*
X186733258Y-70296488D01*
X186733261Y-70296497D01*
X186754991Y-70343095D01*
X186765483Y-70412172D01*
X186736964Y-70475956D01*
X186678487Y-70514196D01*
X186642609Y-70519500D01*
X186141669Y-70519500D01*
X186141653Y-70519499D01*
X186134057Y-70519499D01*
X185975943Y-70519499D01*
X185873821Y-70546863D01*
X185823210Y-70560424D01*
X185823209Y-70560425D01*
X185773096Y-70589359D01*
X185773095Y-70589360D01*
X185744842Y-70605672D01*
X185686285Y-70639479D01*
X185686282Y-70639481D01*
X185608983Y-70716781D01*
X185574480Y-70751284D01*
X185574478Y-70751286D01*
X181579429Y-74746336D01*
X177587584Y-78738181D01*
X177526261Y-78771666D01*
X177499903Y-78774500D01*
X167305097Y-78774500D01*
X167238058Y-78754815D01*
X167217416Y-78738181D01*
X163243351Y-74764116D01*
X169314508Y-74764116D01*
X169314508Y-75075863D01*
X169349410Y-75385623D01*
X169349412Y-75385639D01*
X169418779Y-75689557D01*
X169418783Y-75689569D01*
X169521741Y-75983804D01*
X169656996Y-76264664D01*
X169656998Y-76264667D01*
X169822852Y-76528623D01*
X169943985Y-76680519D01*
X170017127Y-76772237D01*
X170017217Y-76772349D01*
X170237649Y-76992781D01*
X170481375Y-77187146D01*
X170745331Y-77353000D01*
X171026197Y-77488258D01*
X171247182Y-77565584D01*
X171320428Y-77591214D01*
X171320440Y-77591218D01*
X171624362Y-77660586D01*
X171934134Y-77695489D01*
X171934135Y-77695490D01*
X171934139Y-77695490D01*
X172245881Y-77695490D01*
X172245881Y-77695489D01*
X172555654Y-77660586D01*
X172859576Y-77591218D01*
X173153819Y-77488258D01*
X173434685Y-77353000D01*
X173698641Y-77187146D01*
X173942367Y-76992781D01*
X174162799Y-76772349D01*
X174357164Y-76528623D01*
X174523018Y-76264667D01*
X174658276Y-75983801D01*
X174761236Y-75689558D01*
X174830604Y-75385636D01*
X174865508Y-75075859D01*
X174865508Y-74764121D01*
X174830604Y-74454344D01*
X174761236Y-74150422D01*
X174757770Y-74140518D01*
X174676666Y-73908735D01*
X174658276Y-73856179D01*
X174523018Y-73575313D01*
X174357164Y-73311357D01*
X174162799Y-73067631D01*
X173942367Y-72847199D01*
X173928933Y-72836486D01*
X173764277Y-72705177D01*
X173698641Y-72652834D01*
X173434685Y-72486980D01*
X173434682Y-72486978D01*
X173153822Y-72351723D01*
X172859587Y-72248765D01*
X172859575Y-72248761D01*
X172555657Y-72179394D01*
X172555641Y-72179392D01*
X172245881Y-72144490D01*
X172245877Y-72144490D01*
X171934139Y-72144490D01*
X171934135Y-72144490D01*
X171624374Y-72179392D01*
X171624358Y-72179394D01*
X171320440Y-72248761D01*
X171320428Y-72248765D01*
X171026193Y-72351723D01*
X170745333Y-72486978D01*
X170481376Y-72652833D01*
X170237649Y-72847198D01*
X170017216Y-73067631D01*
X169822851Y-73311358D01*
X169656996Y-73575315D01*
X169521741Y-73856175D01*
X169418783Y-74150410D01*
X169418779Y-74150422D01*
X169349412Y-74454340D01*
X169349410Y-74454356D01*
X169314508Y-74764116D01*
X163243351Y-74764116D01*
X160021819Y-71542584D01*
X159988334Y-71481261D01*
X159985500Y-71454903D01*
X159985500Y-71119990D01*
X165485060Y-71119990D01*
X165504820Y-71371062D01*
X165563611Y-71615946D01*
X165659988Y-71848621D01*
X165791576Y-72063352D01*
X165792274Y-72064169D01*
X166525395Y-71331048D01*
X166530897Y-71351581D01*
X166609889Y-71488398D01*
X166721600Y-71600109D01*
X166858417Y-71679101D01*
X166878948Y-71684602D01*
X166145827Y-72417722D01*
X166145827Y-72417723D01*
X166146642Y-72418419D01*
X166361376Y-72550009D01*
X166594051Y-72646386D01*
X166838935Y-72705177D01*
X167090008Y-72724937D01*
X167341080Y-72705177D01*
X167585964Y-72646386D01*
X167818639Y-72550009D01*
X168033369Y-72418422D01*
X168033371Y-72418420D01*
X168034188Y-72417722D01*
X167301067Y-71684602D01*
X167321599Y-71679101D01*
X167458416Y-71600109D01*
X167570127Y-71488398D01*
X167649119Y-71351581D01*
X167654620Y-71331049D01*
X168387740Y-72064170D01*
X168388438Y-72063353D01*
X168388440Y-72063351D01*
X168520027Y-71848621D01*
X168616404Y-71615946D01*
X168675195Y-71371062D01*
X168694955Y-71119990D01*
X175485060Y-71119990D01*
X175504820Y-71371062D01*
X175563611Y-71615946D01*
X175659988Y-71848621D01*
X175791576Y-72063352D01*
X175792274Y-72064169D01*
X176525395Y-71331048D01*
X176530897Y-71351581D01*
X176609889Y-71488398D01*
X176721600Y-71600109D01*
X176858417Y-71679101D01*
X176878948Y-71684602D01*
X176145827Y-72417722D01*
X176145827Y-72417723D01*
X176146642Y-72418419D01*
X176361376Y-72550009D01*
X176594051Y-72646386D01*
X176838935Y-72705177D01*
X177090008Y-72724937D01*
X177341080Y-72705177D01*
X177585964Y-72646386D01*
X177818639Y-72550009D01*
X178033369Y-72418422D01*
X178033371Y-72418420D01*
X178034188Y-72417722D01*
X177301067Y-71684602D01*
X177321599Y-71679101D01*
X177458416Y-71600109D01*
X177570127Y-71488398D01*
X177649119Y-71351581D01*
X177654620Y-71331049D01*
X178387740Y-72064170D01*
X178388438Y-72063353D01*
X178388440Y-72063351D01*
X178520027Y-71848621D01*
X178616404Y-71615946D01*
X178675195Y-71371062D01*
X178694955Y-71119990D01*
X178675195Y-70868917D01*
X178616404Y-70624033D01*
X178520027Y-70391358D01*
X178388437Y-70176624D01*
X178387741Y-70175809D01*
X178387740Y-70175809D01*
X177654620Y-70908929D01*
X177649119Y-70888399D01*
X177570127Y-70751582D01*
X177458416Y-70639871D01*
X177321599Y-70560879D01*
X177301065Y-70555377D01*
X178034187Y-69822256D01*
X178033370Y-69821558D01*
X177818639Y-69689970D01*
X177585964Y-69593593D01*
X177341080Y-69534802D01*
X177090008Y-69515042D01*
X176838935Y-69534802D01*
X176594051Y-69593593D01*
X176361376Y-69689970D01*
X176146645Y-69821557D01*
X176145826Y-69822256D01*
X176878948Y-70555377D01*
X176858417Y-70560879D01*
X176721600Y-70639871D01*
X176609889Y-70751582D01*
X176530897Y-70888399D01*
X176525395Y-70908930D01*
X175792274Y-70175808D01*
X175791575Y-70176627D01*
X175659988Y-70391358D01*
X175563611Y-70624033D01*
X175504820Y-70868917D01*
X175485060Y-71119990D01*
X168694955Y-71119990D01*
X168675195Y-70868917D01*
X168616404Y-70624033D01*
X168520027Y-70391358D01*
X168388437Y-70176624D01*
X168387741Y-70175809D01*
X168387740Y-70175809D01*
X167654620Y-70908929D01*
X167649119Y-70888399D01*
X167570127Y-70751582D01*
X167458416Y-70639871D01*
X167321599Y-70560879D01*
X167301065Y-70555377D01*
X168034187Y-69822256D01*
X168033370Y-69821558D01*
X167818639Y-69689970D01*
X167585964Y-69593593D01*
X167341080Y-69534802D01*
X167090008Y-69515042D01*
X166838935Y-69534802D01*
X166594051Y-69593593D01*
X166361376Y-69689970D01*
X166146645Y-69821557D01*
X166145826Y-69822256D01*
X166878948Y-70555377D01*
X166858417Y-70560879D01*
X166721600Y-70639871D01*
X166609889Y-70751582D01*
X166530897Y-70888399D01*
X166525395Y-70908930D01*
X165792274Y-70175808D01*
X165791575Y-70176627D01*
X165659988Y-70391358D01*
X165563611Y-70624033D01*
X165504820Y-70868917D01*
X165485060Y-71119990D01*
X159985500Y-71119990D01*
X159985500Y-65325945D01*
X159985500Y-65325943D01*
X159944577Y-65173216D01*
X159928872Y-65146014D01*
X159865524Y-65036290D01*
X159865521Y-65036286D01*
X159865520Y-65036284D01*
X159753716Y-64924480D01*
X159753715Y-64924479D01*
X159749385Y-64920149D01*
X159749374Y-64920139D01*
X156549233Y-61719998D01*
X165485053Y-61719998D01*
X165504813Y-61971070D01*
X165563604Y-62215954D01*
X165659981Y-62448629D01*
X165791569Y-62663360D01*
X165792267Y-62664177D01*
X166525388Y-61931056D01*
X166530890Y-61951589D01*
X166609882Y-62088406D01*
X166721593Y-62200117D01*
X166858410Y-62279109D01*
X166878941Y-62284610D01*
X166145820Y-63017730D01*
X166145820Y-63017731D01*
X166146635Y-63018427D01*
X166361369Y-63150017D01*
X166594044Y-63246394D01*
X166838928Y-63305185D01*
X167090001Y-63324945D01*
X167341073Y-63305185D01*
X167585957Y-63246394D01*
X167818632Y-63150017D01*
X168033362Y-63018430D01*
X168033364Y-63018428D01*
X168034181Y-63017730D01*
X167301060Y-62284610D01*
X167321592Y-62279109D01*
X167458409Y-62200117D01*
X167570120Y-62088406D01*
X167649112Y-61951589D01*
X167654613Y-61931057D01*
X168387733Y-62664178D01*
X168388431Y-62663361D01*
X168388433Y-62663359D01*
X168520020Y-62448629D01*
X168616397Y-62215954D01*
X168675188Y-61971070D01*
X168694948Y-61719998D01*
X168675188Y-61468925D01*
X168616397Y-61224041D01*
X168520020Y-60991366D01*
X168388430Y-60776632D01*
X168387734Y-60775817D01*
X168387733Y-60775817D01*
X167654613Y-61508937D01*
X167649112Y-61488407D01*
X167570120Y-61351590D01*
X167458409Y-61239879D01*
X167321592Y-61160887D01*
X167301058Y-61155385D01*
X168034180Y-60422264D01*
X168033363Y-60421566D01*
X167818632Y-60289978D01*
X167585957Y-60193601D01*
X167341073Y-60134810D01*
X167090001Y-60115050D01*
X166838928Y-60134810D01*
X166594044Y-60193601D01*
X166361369Y-60289978D01*
X166146638Y-60421565D01*
X166145819Y-60422264D01*
X166878941Y-61155385D01*
X166858410Y-61160887D01*
X166721593Y-61239879D01*
X166609882Y-61351590D01*
X166530890Y-61488407D01*
X166525388Y-61508938D01*
X165792267Y-60775816D01*
X165791568Y-60776635D01*
X165659981Y-60991366D01*
X165563604Y-61224041D01*
X165504813Y-61468925D01*
X165485053Y-61719998D01*
X156549233Y-61719998D01*
X154211239Y-59382004D01*
X154211237Y-59382001D01*
X154092366Y-59263130D01*
X154092365Y-59263129D01*
X154005553Y-59213009D01*
X154005553Y-59213008D01*
X154005549Y-59213007D01*
X153955434Y-59184072D01*
X153802706Y-59143148D01*
X153644592Y-59143148D01*
X153636996Y-59143148D01*
X153636980Y-59143149D01*
X152500809Y-59143149D01*
X152433770Y-59123464D01*
X152388015Y-59070660D01*
X152386248Y-59066601D01*
X152364788Y-59014792D01*
X152364787Y-59014790D01*
X152345802Y-58983809D01*
X152233159Y-58799994D01*
X152233159Y-58799992D01*
X152124210Y-58672430D01*
X152069545Y-58608425D01*
X151907845Y-58470320D01*
X151877977Y-58444810D01*
X151877974Y-58444809D01*
X151663180Y-58313182D01*
X151430431Y-58216775D01*
X151185472Y-58157966D01*
X150934321Y-58138200D01*
X150683169Y-58157966D01*
X150438210Y-58216775D01*
X150205461Y-58313182D01*
X149990667Y-58444809D01*
X149990664Y-58444810D01*
X149799097Y-58608425D01*
X149635482Y-58799992D01*
X149635481Y-58799995D01*
X149503854Y-59014789D01*
X149407447Y-59247538D01*
X149348638Y-59492497D01*
X149328872Y-59743649D01*
X149348638Y-59994800D01*
X149407447Y-60239759D01*
X149503854Y-60472508D01*
X149635481Y-60687302D01*
X149635482Y-60687305D01*
X149635485Y-60687308D01*
X149799097Y-60878873D01*
X149930809Y-60991366D01*
X149990664Y-61042487D01*
X149990667Y-61042488D01*
X150205461Y-61174115D01*
X150364231Y-61239879D01*
X150438210Y-61270522D01*
X150683173Y-61329332D01*
X150934321Y-61349098D01*
X151185469Y-61329332D01*
X151430432Y-61270522D01*
X151663180Y-61174115D01*
X151877980Y-61042485D01*
X152069545Y-60878873D01*
X152233157Y-60687308D01*
X152364787Y-60472508D01*
X152386248Y-60420697D01*
X152430088Y-60366293D01*
X152496382Y-60344228D01*
X152500809Y-60344149D01*
X153423552Y-60344149D01*
X153490591Y-60363834D01*
X153511233Y-60380468D01*
X158748181Y-65617416D01*
X158781666Y-65678739D01*
X158784500Y-65705097D01*
X158784500Y-71172164D01*
X158764815Y-71239203D01*
X158712011Y-71284958D01*
X158642853Y-71294902D01*
X158579297Y-71265877D01*
X158572819Y-71259845D01*
X153893049Y-66580076D01*
X154946637Y-66580076D01*
X154966397Y-66831148D01*
X155025188Y-67076032D01*
X155121565Y-67308707D01*
X155253153Y-67523438D01*
X155253161Y-67523450D01*
X155344202Y-67630046D01*
X155344203Y-67630046D01*
X156008138Y-66838797D01*
X156071466Y-66948484D01*
X156183177Y-67060195D01*
X156319994Y-67139187D01*
X156392485Y-67158611D01*
X155727228Y-67951434D01*
X155822953Y-68010095D01*
X156055628Y-68106472D01*
X156300512Y-68165263D01*
X156551585Y-68185023D01*
X156802657Y-68165263D01*
X157047541Y-68106472D01*
X157280216Y-68010095D01*
X157494945Y-67878509D01*
X157494946Y-67878508D01*
X157601554Y-67787456D01*
X156810308Y-67123522D01*
X156919993Y-67060195D01*
X157031704Y-66948484D01*
X157110696Y-66811667D01*
X157130120Y-66739173D01*
X157922943Y-67404431D01*
X157981604Y-67308707D01*
X158077981Y-67076032D01*
X158136772Y-66831148D01*
X158156532Y-66580076D01*
X158136772Y-66329003D01*
X158077981Y-66084119D01*
X157981604Y-65851444D01*
X157850018Y-65636715D01*
X157850017Y-65636714D01*
X157758965Y-65530105D01*
X157095030Y-66321351D01*
X157031704Y-66211668D01*
X156919993Y-66099957D01*
X156783176Y-66020965D01*
X156710681Y-66001540D01*
X157375940Y-65208716D01*
X157280214Y-65150056D01*
X157280208Y-65150053D01*
X157047541Y-65053679D01*
X156802657Y-64994888D01*
X156551585Y-64975128D01*
X156300512Y-64994888D01*
X156055628Y-65053679D01*
X155822953Y-65150056D01*
X155608228Y-65281640D01*
X155608219Y-65281646D01*
X155501614Y-65372694D01*
X156292862Y-66036629D01*
X156183177Y-66099957D01*
X156071466Y-66211668D01*
X155992474Y-66348485D01*
X155973049Y-66420978D01*
X155180225Y-65755719D01*
X155121565Y-65851446D01*
X155121562Y-65851452D01*
X155025188Y-66084119D01*
X154966397Y-66329003D01*
X154946637Y-66580076D01*
X153893049Y-66580076D01*
X152919876Y-65606903D01*
X152886391Y-65545580D01*
X152891375Y-65475888D01*
X152892996Y-65471769D01*
X152914456Y-65419959D01*
X152914455Y-65419959D01*
X152914457Y-65419957D01*
X152973267Y-65174994D01*
X152993033Y-64923846D01*
X152973267Y-64672698D01*
X152914457Y-64427735D01*
X152871283Y-64323504D01*
X152818050Y-64194986D01*
X152686423Y-63980192D01*
X152686422Y-63980189D01*
X152644283Y-63930851D01*
X152522808Y-63788622D01*
X152348128Y-63639431D01*
X152331240Y-63625007D01*
X152331237Y-63625006D01*
X152116443Y-63493379D01*
X151883694Y-63396972D01*
X151638735Y-63338163D01*
X151387584Y-63318397D01*
X151136432Y-63338163D01*
X150891473Y-63396972D01*
X150658724Y-63493379D01*
X150443930Y-63625006D01*
X150443927Y-63625007D01*
X150252360Y-63788622D01*
X150088745Y-63980189D01*
X150088744Y-63980192D01*
X149957117Y-64194986D01*
X149860710Y-64427735D01*
X149801901Y-64672694D01*
X149782135Y-64923846D01*
X149801901Y-65174997D01*
X149860710Y-65419956D01*
X149957117Y-65652705D01*
X150088744Y-65867499D01*
X150088745Y-65867502D01*
X150138056Y-65925237D01*
X150252360Y-66059070D01*
X150361603Y-66152372D01*
X150443927Y-66222684D01*
X150443930Y-66222685D01*
X150658724Y-66354312D01*
X150839661Y-66429258D01*
X150891473Y-66450719D01*
X151136436Y-66509529D01*
X151387584Y-66529295D01*
X151638732Y-66509529D01*
X151883695Y-66450719D01*
X151917055Y-66436901D01*
X151935507Y-66429258D01*
X152004976Y-66421789D01*
X152067455Y-66453064D01*
X152070641Y-66456138D01*
X165447321Y-79832819D01*
X165480806Y-79894142D01*
X165475822Y-79963834D01*
X165433950Y-80019767D01*
X165368486Y-80044184D01*
X165359640Y-80044500D01*
X163495097Y-80044500D01*
X163428058Y-80024815D01*
X163407416Y-80008181D01*
X158602590Y-75203355D01*
X158602588Y-75203352D01*
X158483717Y-75084481D01*
X158483716Y-75084480D01*
X158396904Y-75034360D01*
X158396904Y-75034359D01*
X158396900Y-75034358D01*
X158346785Y-75005423D01*
X158194057Y-74964499D01*
X158035943Y-74964499D01*
X158028347Y-74964499D01*
X158028331Y-74964500D01*
X151430098Y-74964500D01*
X151363059Y-74944815D01*
X151342417Y-74928181D01*
X147059757Y-70645521D01*
X149126303Y-70645521D01*
X149126303Y-70957268D01*
X149161205Y-71267028D01*
X149161207Y-71267044D01*
X149230574Y-71570962D01*
X149230578Y-71570974D01*
X149333536Y-71865209D01*
X149468791Y-72146069D01*
X149503198Y-72200828D01*
X149634647Y-72410028D01*
X149746278Y-72550009D01*
X149828277Y-72652833D01*
X149829012Y-72653754D01*
X150049444Y-72874186D01*
X150293170Y-73068551D01*
X150557126Y-73234405D01*
X150837992Y-73369663D01*
X150971602Y-73416415D01*
X151132223Y-73472619D01*
X151132235Y-73472623D01*
X151436157Y-73541991D01*
X151745929Y-73576894D01*
X151745930Y-73576895D01*
X151745934Y-73576895D01*
X152057676Y-73576895D01*
X152057676Y-73576894D01*
X152367449Y-73541991D01*
X152671371Y-73472623D01*
X152965614Y-73369663D01*
X153246480Y-73234405D01*
X153510436Y-73068551D01*
X153754162Y-72874186D01*
X153974594Y-72653754D01*
X154168959Y-72410028D01*
X154334813Y-72146072D01*
X154470071Y-71865206D01*
X154573031Y-71570963D01*
X154642399Y-71267041D01*
X154677303Y-70957264D01*
X154677303Y-70645526D01*
X154642399Y-70335749D01*
X154573031Y-70031827D01*
X154470071Y-69737584D01*
X154334813Y-69456718D01*
X154168959Y-69192762D01*
X153974594Y-68949036D01*
X153754162Y-68728604D01*
X153742644Y-68719419D01*
X153652906Y-68647855D01*
X153510436Y-68534239D01*
X153246480Y-68368385D01*
X153246477Y-68368383D01*
X152965617Y-68233128D01*
X152671382Y-68130170D01*
X152671370Y-68130166D01*
X152367452Y-68060799D01*
X152367436Y-68060797D01*
X152057676Y-68025895D01*
X152057672Y-68025895D01*
X151745934Y-68025895D01*
X151745930Y-68025895D01*
X151436169Y-68060797D01*
X151436153Y-68060799D01*
X151132235Y-68130166D01*
X151132223Y-68130170D01*
X150837988Y-68233128D01*
X150557128Y-68368383D01*
X150293171Y-68534238D01*
X150049444Y-68728603D01*
X149829011Y-68949036D01*
X149634646Y-69192763D01*
X149468791Y-69456720D01*
X149333536Y-69737580D01*
X149230578Y-70031815D01*
X149230574Y-70031827D01*
X149161207Y-70335745D01*
X149161205Y-70335761D01*
X149126303Y-70645521D01*
X147059757Y-70645521D01*
X143865870Y-67451634D01*
X144984690Y-67451634D01*
X145004450Y-67702706D01*
X145063241Y-67947590D01*
X145159618Y-68180265D01*
X145291206Y-68394996D01*
X145291214Y-68395008D01*
X145382255Y-68501604D01*
X145382256Y-68501604D01*
X146046191Y-67710355D01*
X146109519Y-67820042D01*
X146221230Y-67931753D01*
X146358047Y-68010745D01*
X146430538Y-68030169D01*
X145765281Y-68822992D01*
X145861006Y-68881653D01*
X146093681Y-68978030D01*
X146338565Y-69036821D01*
X146589638Y-69056581D01*
X146840710Y-69036821D01*
X147085594Y-68978030D01*
X147318269Y-68881653D01*
X147532998Y-68750067D01*
X147532999Y-68750066D01*
X147639607Y-68659014D01*
X146848361Y-67995080D01*
X146958046Y-67931753D01*
X147069757Y-67820042D01*
X147148749Y-67683225D01*
X147168173Y-67610731D01*
X147960996Y-68275989D01*
X148019657Y-68180265D01*
X148116034Y-67947590D01*
X148174825Y-67702706D01*
X148194585Y-67451634D01*
X148174825Y-67200561D01*
X148116034Y-66955677D01*
X148019657Y-66723002D01*
X147888071Y-66508273D01*
X147888070Y-66508272D01*
X147797018Y-66401663D01*
X147133083Y-67192909D01*
X147069757Y-67083226D01*
X146958046Y-66971515D01*
X146821229Y-66892523D01*
X146748734Y-66873098D01*
X147413993Y-66080274D01*
X147318267Y-66021614D01*
X147318261Y-66021611D01*
X147085594Y-65925237D01*
X146840710Y-65866446D01*
X146589638Y-65846686D01*
X146338565Y-65866446D01*
X146093681Y-65925237D01*
X145861006Y-66021614D01*
X145646281Y-66153198D01*
X145646272Y-66153204D01*
X145539667Y-66244252D01*
X146330915Y-66908187D01*
X146221230Y-66971515D01*
X146109519Y-67083226D01*
X146030527Y-67220043D01*
X146011102Y-67292536D01*
X145218278Y-66627277D01*
X145159618Y-66723004D01*
X145159615Y-66723010D01*
X145063241Y-66955677D01*
X145004450Y-67200561D01*
X144984690Y-67451634D01*
X143865870Y-67451634D01*
X134501654Y-58087419D01*
X144165372Y-58087419D01*
X144185132Y-58338491D01*
X144243923Y-58583375D01*
X144340300Y-58816050D01*
X144471888Y-59030781D01*
X144471896Y-59030793D01*
X144562937Y-59137389D01*
X144562938Y-59137389D01*
X145226873Y-58346140D01*
X145290201Y-58455827D01*
X145401912Y-58567538D01*
X145538729Y-58646530D01*
X145611220Y-58665954D01*
X144945963Y-59458777D01*
X145041688Y-59517438D01*
X145274363Y-59613815D01*
X145519247Y-59672606D01*
X145770320Y-59692366D01*
X146021392Y-59672606D01*
X146266276Y-59613815D01*
X146498951Y-59517438D01*
X146713680Y-59385852D01*
X146713681Y-59385851D01*
X146820289Y-59294799D01*
X146029043Y-58630865D01*
X146138728Y-58567538D01*
X146250439Y-58455827D01*
X146329431Y-58319010D01*
X146348855Y-58246516D01*
X147141678Y-58911774D01*
X147200339Y-58816050D01*
X147296716Y-58583375D01*
X147355507Y-58338491D01*
X147375267Y-58087419D01*
X147355507Y-57836346D01*
X147296716Y-57591462D01*
X147200339Y-57358787D01*
X147112754Y-57215861D01*
X154127319Y-57215861D01*
X154147079Y-57466933D01*
X154205870Y-57711817D01*
X154302247Y-57944492D01*
X154433835Y-58159223D01*
X154433843Y-58159235D01*
X154524884Y-58265831D01*
X154524885Y-58265831D01*
X155188820Y-57474582D01*
X155252148Y-57584269D01*
X155363859Y-57695980D01*
X155500676Y-57774972D01*
X155573167Y-57794396D01*
X154907910Y-58587219D01*
X155003635Y-58645880D01*
X155236310Y-58742257D01*
X155481194Y-58801048D01*
X155732267Y-58820808D01*
X155983339Y-58801048D01*
X156228223Y-58742257D01*
X156460898Y-58645880D01*
X156675627Y-58514294D01*
X156675628Y-58514293D01*
X156782236Y-58423241D01*
X155990990Y-57759307D01*
X156100675Y-57695980D01*
X156212386Y-57584269D01*
X156291378Y-57447452D01*
X156310802Y-57374958D01*
X157103625Y-58040216D01*
X157162286Y-57944492D01*
X157236997Y-57764124D01*
X169314501Y-57764124D01*
X169314501Y-58075871D01*
X169349403Y-58385631D01*
X169349405Y-58385647D01*
X169418772Y-58689565D01*
X169418776Y-58689577D01*
X169521734Y-58983812D01*
X169656989Y-59264672D01*
X169656991Y-59264675D01*
X169822845Y-59528631D01*
X170017210Y-59772357D01*
X170237642Y-59992789D01*
X170481368Y-60187154D01*
X170745324Y-60353008D01*
X171026190Y-60488266D01*
X171247175Y-60565592D01*
X171320421Y-60591222D01*
X171320433Y-60591226D01*
X171624355Y-60660594D01*
X171934127Y-60695497D01*
X171934128Y-60695498D01*
X171934132Y-60695498D01*
X172245874Y-60695498D01*
X172245874Y-60695497D01*
X172555647Y-60660594D01*
X172859569Y-60591226D01*
X173153812Y-60488266D01*
X173434678Y-60353008D01*
X173698634Y-60187154D01*
X173942360Y-59992789D01*
X174162792Y-59772357D01*
X174357157Y-59528631D01*
X174523011Y-59264675D01*
X174658269Y-58983809D01*
X174761229Y-58689566D01*
X174830597Y-58385644D01*
X174865501Y-58075867D01*
X174865501Y-57764129D01*
X174830597Y-57454352D01*
X174761229Y-57150430D01*
X174758999Y-57144058D01*
X174707199Y-56996021D01*
X174658269Y-56856187D01*
X174523011Y-56575321D01*
X174357157Y-56311365D01*
X174162792Y-56067639D01*
X173942360Y-55847207D01*
X173921846Y-55830848D01*
X173812837Y-55743916D01*
X173698634Y-55652842D01*
X173434678Y-55486988D01*
X173434675Y-55486986D01*
X173153815Y-55351731D01*
X172859580Y-55248773D01*
X172859568Y-55248769D01*
X172555650Y-55179402D01*
X172555634Y-55179400D01*
X172245874Y-55144498D01*
X172245870Y-55144498D01*
X171934132Y-55144498D01*
X171934128Y-55144498D01*
X171624367Y-55179400D01*
X171624351Y-55179402D01*
X171320433Y-55248769D01*
X171320421Y-55248773D01*
X171026186Y-55351731D01*
X170745326Y-55486986D01*
X170481369Y-55652841D01*
X170237642Y-55847206D01*
X170017209Y-56067639D01*
X169822844Y-56311366D01*
X169656989Y-56575323D01*
X169521734Y-56856183D01*
X169418776Y-57150418D01*
X169418772Y-57150430D01*
X169349405Y-57454348D01*
X169349403Y-57454364D01*
X169314501Y-57764124D01*
X157236997Y-57764124D01*
X157258663Y-57711817D01*
X157317454Y-57466933D01*
X157337214Y-57215861D01*
X157317454Y-56964788D01*
X157258663Y-56719904D01*
X157162286Y-56487229D01*
X157030700Y-56272500D01*
X157030699Y-56272499D01*
X156939647Y-56165890D01*
X156275712Y-56957136D01*
X156212386Y-56847453D01*
X156100675Y-56735742D01*
X155963858Y-56656750D01*
X155891363Y-56637325D01*
X156556622Y-55844501D01*
X156460896Y-55785841D01*
X156460890Y-55785838D01*
X156228223Y-55689464D01*
X155983339Y-55630673D01*
X155732267Y-55610913D01*
X155481194Y-55630673D01*
X155236310Y-55689464D01*
X155003635Y-55785841D01*
X154788910Y-55917425D01*
X154788901Y-55917431D01*
X154682296Y-56008479D01*
X155473544Y-56672414D01*
X155363859Y-56735742D01*
X155252148Y-56847453D01*
X155173156Y-56984270D01*
X155153731Y-57056763D01*
X154360907Y-56391504D01*
X154302247Y-56487231D01*
X154302244Y-56487237D01*
X154205870Y-56719904D01*
X154147079Y-56964788D01*
X154127319Y-57215861D01*
X147112754Y-57215861D01*
X147068753Y-57144058D01*
X147068752Y-57144057D01*
X146977700Y-57037448D01*
X146313765Y-57828694D01*
X146250439Y-57719011D01*
X146138728Y-57607300D01*
X146001911Y-57528308D01*
X145929416Y-57508883D01*
X146594675Y-56716059D01*
X146498949Y-56657399D01*
X146498943Y-56657396D01*
X146266276Y-56561022D01*
X146021392Y-56502231D01*
X145770320Y-56482471D01*
X145519247Y-56502231D01*
X145274363Y-56561022D01*
X145041688Y-56657399D01*
X144826963Y-56788983D01*
X144826954Y-56788989D01*
X144720349Y-56880037D01*
X145511597Y-57543972D01*
X145401912Y-57607300D01*
X145290201Y-57719011D01*
X145211209Y-57855828D01*
X145191784Y-57928321D01*
X144398960Y-57263062D01*
X144340300Y-57358789D01*
X144340297Y-57358795D01*
X144243923Y-57591462D01*
X144185132Y-57836346D01*
X144165372Y-58087419D01*
X134501654Y-58087419D01*
X133579251Y-57165016D01*
X133579249Y-57165013D01*
X133460378Y-57046142D01*
X133460377Y-57046141D01*
X133373565Y-56996021D01*
X133373565Y-56996020D01*
X133373561Y-56996019D01*
X133323446Y-56967084D01*
X133170718Y-56926160D01*
X133012604Y-56926160D01*
X133005008Y-56926160D01*
X133004992Y-56926161D01*
X131070416Y-56926161D01*
X131003377Y-56906476D01*
X130957622Y-56853672D01*
X130955855Y-56849613D01*
X130934395Y-56797804D01*
X130934394Y-56797802D01*
X130802767Y-56583007D01*
X130802766Y-56583004D01*
X130733779Y-56502231D01*
X130639152Y-56391437D01*
X130491595Y-56265411D01*
X130447584Y-56227822D01*
X130447581Y-56227821D01*
X130232787Y-56096194D01*
X130000038Y-55999787D01*
X129755079Y-55940978D01*
X129503928Y-55921212D01*
X129252776Y-55940978D01*
X129007817Y-55999787D01*
X128775068Y-56096194D01*
X128560274Y-56227821D01*
X128560271Y-56227822D01*
X128368704Y-56391437D01*
X128205089Y-56583004D01*
X128205088Y-56583007D01*
X128073461Y-56797801D01*
X127977054Y-57030550D01*
X127918245Y-57275509D01*
X127898479Y-57526661D01*
X127918245Y-57777812D01*
X127977054Y-58022771D01*
X128073461Y-58255520D01*
X128205088Y-58470314D01*
X128205089Y-58470317D01*
X128230527Y-58500101D01*
X128368704Y-58661885D01*
X128516994Y-58788536D01*
X128560271Y-58825499D01*
X128560274Y-58825500D01*
X128775068Y-58957127D01*
X128969122Y-59037506D01*
X129007817Y-59053534D01*
X129252780Y-59112344D01*
X129503928Y-59132110D01*
X129755076Y-59112344D01*
X130000039Y-59053534D01*
X130232787Y-58957127D01*
X130447587Y-58825497D01*
X130639152Y-58661885D01*
X130802764Y-58470320D01*
X130934394Y-58255520D01*
X130955855Y-58203709D01*
X130999695Y-58149305D01*
X131065989Y-58127240D01*
X131070416Y-58127161D01*
X132791564Y-58127161D01*
X132858603Y-58146846D01*
X132879245Y-58163480D01*
X150103583Y-75387819D01*
X150137068Y-75449142D01*
X150132084Y-75518834D01*
X150090212Y-75574767D01*
X150024748Y-75599184D01*
X150015902Y-75599500D01*
X144259247Y-75599500D01*
X144192208Y-75579815D01*
X144171566Y-75563181D01*
X132455968Y-63847583D01*
X134090629Y-63847583D01*
X134110389Y-64098655D01*
X134169180Y-64343539D01*
X134265557Y-64576214D01*
X134397145Y-64790945D01*
X134397148Y-64790950D01*
X134560707Y-64982452D01*
X134582628Y-65001175D01*
X134582629Y-65001175D01*
X135177931Y-64150993D01*
X135215458Y-64215991D01*
X135327169Y-64327702D01*
X135463986Y-64406694D01*
X135586321Y-64439473D01*
X134992149Y-65288042D01*
X135199618Y-65373978D01*
X135444504Y-65432770D01*
X135695577Y-65452530D01*
X135946649Y-65432770D01*
X136191533Y-65373979D01*
X136424208Y-65277602D01*
X136638939Y-65146014D01*
X136638951Y-65146006D01*
X136830435Y-64982464D01*
X136830444Y-64982455D01*
X136849169Y-64960529D01*
X135998989Y-64365227D01*
X136063985Y-64327702D01*
X136175696Y-64215991D01*
X136254688Y-64079174D01*
X136287468Y-63956836D01*
X137136035Y-64551008D01*
X137221974Y-64343534D01*
X137280764Y-64098655D01*
X137300524Y-63847583D01*
X137280764Y-63596510D01*
X137221973Y-63351626D01*
X137125596Y-63118951D01*
X136994008Y-62904220D01*
X136994005Y-62904215D01*
X136830446Y-62712713D01*
X136808524Y-62693989D01*
X136213221Y-63544169D01*
X136175696Y-63479175D01*
X136063985Y-63367464D01*
X135927168Y-63288472D01*
X135804829Y-63255691D01*
X136399002Y-62407123D01*
X136191532Y-62321186D01*
X135946649Y-62262395D01*
X135695577Y-62242635D01*
X135444504Y-62262395D01*
X135199620Y-62321186D01*
X134966945Y-62417563D01*
X134752214Y-62549151D01*
X134752202Y-62549159D01*
X134560709Y-62712709D01*
X134541983Y-62734634D01*
X134541983Y-62734635D01*
X135392165Y-63329938D01*
X135327169Y-63367464D01*
X135215458Y-63479175D01*
X135136466Y-63615992D01*
X135103685Y-63738329D01*
X134255117Y-63144156D01*
X134255116Y-63144156D01*
X134169181Y-63351623D01*
X134169181Y-63351625D01*
X134110389Y-63596510D01*
X134090629Y-63847583D01*
X132455968Y-63847583D01*
X131939169Y-63330784D01*
X131905684Y-63269461D01*
X131910668Y-63199769D01*
X131912289Y-63195650D01*
X131924285Y-63166687D01*
X131933750Y-63143838D01*
X131992560Y-62898875D01*
X132012326Y-62647727D01*
X131992560Y-62396579D01*
X131933750Y-62151616D01*
X131921907Y-62123025D01*
X131837343Y-61918867D01*
X131705716Y-61704073D01*
X131705715Y-61704070D01*
X131651854Y-61641007D01*
X131542101Y-61512503D01*
X131371088Y-61366444D01*
X131350533Y-61348888D01*
X131350530Y-61348887D01*
X131135736Y-61217260D01*
X130902987Y-61120853D01*
X130658028Y-61062044D01*
X130406877Y-61042278D01*
X130155725Y-61062044D01*
X129910766Y-61120853D01*
X129678017Y-61217260D01*
X129463223Y-61348887D01*
X129463220Y-61348888D01*
X129271653Y-61512503D01*
X129108038Y-61704070D01*
X129108037Y-61704073D01*
X128976410Y-61918867D01*
X128880003Y-62151616D01*
X128821194Y-62396575D01*
X128801428Y-62647727D01*
X128821194Y-62898878D01*
X128880003Y-63143837D01*
X128976410Y-63376586D01*
X129108037Y-63591380D01*
X129108038Y-63591383D01*
X129149075Y-63639431D01*
X129271653Y-63782951D01*
X129419208Y-63908975D01*
X129463220Y-63946565D01*
X129463223Y-63946566D01*
X129678017Y-64078193D01*
X129850929Y-64149815D01*
X129910766Y-64174600D01*
X130155729Y-64233410D01*
X130406877Y-64253176D01*
X130658025Y-64233410D01*
X130902988Y-64174600D01*
X130952615Y-64154044D01*
X130954800Y-64153139D01*
X131024269Y-64145670D01*
X131086748Y-64176945D01*
X131089934Y-64180019D01*
X132579500Y-65669585D01*
X132612985Y-65730908D01*
X132608001Y-65800600D01*
X132566129Y-65856533D01*
X132500665Y-65880950D01*
X132450864Y-65874307D01*
X132200980Y-65786868D01*
X132200968Y-65786864D01*
X131897050Y-65717497D01*
X131897034Y-65717495D01*
X131587274Y-65682593D01*
X131587270Y-65682593D01*
X131275532Y-65682593D01*
X131275528Y-65682593D01*
X130965767Y-65717495D01*
X130965751Y-65717497D01*
X130661833Y-65786864D01*
X130661821Y-65786868D01*
X130367586Y-65889826D01*
X130086726Y-66025081D01*
X129822769Y-66190936D01*
X129579042Y-66385301D01*
X129358609Y-66605734D01*
X129164244Y-66849461D01*
X128998389Y-67113418D01*
X128863134Y-67394278D01*
X128760176Y-67688513D01*
X128760172Y-67688525D01*
X128690805Y-67992443D01*
X128690803Y-67992459D01*
X128655901Y-68302219D01*
X128655901Y-68613966D01*
X128690803Y-68923726D01*
X128690805Y-68923742D01*
X128760172Y-69227660D01*
X128760176Y-69227672D01*
X128863134Y-69521907D01*
X128998389Y-69802767D01*
X129028060Y-69849988D01*
X129164245Y-70066726D01*
X129358610Y-70310452D01*
X129579042Y-70530884D01*
X129822768Y-70725249D01*
X130086724Y-70891103D01*
X130367590Y-71026361D01*
X130588575Y-71103687D01*
X130661821Y-71129317D01*
X130661833Y-71129321D01*
X130965755Y-71198689D01*
X131275527Y-71233592D01*
X131275528Y-71233593D01*
X131275532Y-71233593D01*
X131587274Y-71233593D01*
X131587274Y-71233592D01*
X131897047Y-71198689D01*
X132200969Y-71129321D01*
X132495212Y-71026361D01*
X132776078Y-70891103D01*
X133040034Y-70725249D01*
X133283760Y-70530884D01*
X133504192Y-70310452D01*
X133698557Y-70066726D01*
X133864411Y-69802770D01*
X133999669Y-69521904D01*
X134102629Y-69227661D01*
X134171997Y-68923739D01*
X134206901Y-68613962D01*
X134206901Y-68302224D01*
X134171997Y-67992447D01*
X134102629Y-67688525D01*
X134100774Y-67683225D01*
X134058462Y-67562303D01*
X134015185Y-67438626D01*
X134011624Y-67368850D01*
X134046352Y-67308223D01*
X134108345Y-67275995D01*
X134177921Y-67282400D01*
X134219908Y-67309993D01*
X142932734Y-76022819D01*
X142966219Y-76084142D01*
X142961235Y-76153834D01*
X142919363Y-76209767D01*
X142853899Y-76234184D01*
X142845053Y-76234500D01*
X125395097Y-76234500D01*
X125328058Y-76214815D01*
X125307416Y-76198181D01*
X115687249Y-66578014D01*
X115687247Y-66578011D01*
X115568376Y-66459140D01*
X115568368Y-66459134D01*
X115447071Y-66389104D01*
X115447068Y-66389103D01*
X115431444Y-66380082D01*
X115278716Y-66339158D01*
X115120602Y-66339158D01*
X115113006Y-66339158D01*
X115112990Y-66339159D01*
X111690627Y-66339159D01*
X111623588Y-66319474D01*
X111577833Y-66266670D01*
X111576066Y-66262611D01*
X111554606Y-66210802D01*
X111554605Y-66210800D01*
X111422978Y-65996005D01*
X111422977Y-65996002D01*
X111364563Y-65927608D01*
X111259363Y-65804435D01*
X111125684Y-65690262D01*
X111067795Y-65640820D01*
X111067792Y-65640819D01*
X110975177Y-65584064D01*
X124242551Y-65584064D01*
X124262311Y-65835136D01*
X124321102Y-66080020D01*
X124417479Y-66312695D01*
X124549067Y-66527426D01*
X124549070Y-66527431D01*
X124712629Y-66718933D01*
X124734550Y-66737656D01*
X124734551Y-66737656D01*
X125329853Y-65887474D01*
X125367380Y-65952472D01*
X125479091Y-66064183D01*
X125615908Y-66143175D01*
X125738243Y-66175954D01*
X125144071Y-67024523D01*
X125351540Y-67110459D01*
X125596426Y-67169251D01*
X125847499Y-67189011D01*
X126098571Y-67169251D01*
X126343455Y-67110460D01*
X126576130Y-67014083D01*
X126790861Y-66882495D01*
X126790873Y-66882487D01*
X126982357Y-66718945D01*
X126982366Y-66718936D01*
X127001091Y-66697010D01*
X126150911Y-66101708D01*
X126215907Y-66064183D01*
X126327618Y-65952472D01*
X126406610Y-65815655D01*
X126439390Y-65693317D01*
X127287957Y-66287489D01*
X127373896Y-66080015D01*
X127432686Y-65835136D01*
X127452446Y-65584064D01*
X127432686Y-65332991D01*
X127373895Y-65088107D01*
X127277518Y-64855432D01*
X127145930Y-64640701D01*
X127145927Y-64640696D01*
X126982368Y-64449194D01*
X126960446Y-64430470D01*
X126365143Y-65280650D01*
X126327618Y-65215656D01*
X126215907Y-65103945D01*
X126079090Y-65024953D01*
X125956751Y-64992172D01*
X126550924Y-64143604D01*
X126343454Y-64057667D01*
X126098571Y-63998876D01*
X125847499Y-63979116D01*
X125596426Y-63998876D01*
X125351542Y-64057667D01*
X125118867Y-64154044D01*
X124904136Y-64285632D01*
X124904124Y-64285640D01*
X124712631Y-64449190D01*
X124693905Y-64471115D01*
X124693905Y-64471116D01*
X125544087Y-65066419D01*
X125479091Y-65103945D01*
X125367380Y-65215656D01*
X125288388Y-65352473D01*
X125255607Y-65474810D01*
X124407039Y-64880637D01*
X124407038Y-64880637D01*
X124321103Y-65088104D01*
X124321103Y-65088106D01*
X124262311Y-65332991D01*
X124242551Y-65584064D01*
X110975177Y-65584064D01*
X110852998Y-65509192D01*
X110620249Y-65412785D01*
X110375290Y-65353976D01*
X110124139Y-65334210D01*
X109872987Y-65353976D01*
X109628028Y-65412785D01*
X109395279Y-65509192D01*
X109180485Y-65640819D01*
X109180482Y-65640820D01*
X108988915Y-65804435D01*
X108825300Y-65996002D01*
X108825299Y-65996005D01*
X108693672Y-66210799D01*
X108597265Y-66443548D01*
X108538456Y-66688507D01*
X108518690Y-66939659D01*
X108538456Y-67190810D01*
X108597265Y-67435769D01*
X108693672Y-67668518D01*
X108825299Y-67883312D01*
X108825300Y-67883315D01*
X108865331Y-67930185D01*
X108988915Y-68074883D01*
X109117872Y-68185023D01*
X109180482Y-68238497D01*
X109180485Y-68238498D01*
X109395279Y-68370125D01*
X109565321Y-68440558D01*
X109628028Y-68466532D01*
X109872991Y-68525342D01*
X110124139Y-68545108D01*
X110375287Y-68525342D01*
X110620250Y-68466532D01*
X110852998Y-68370125D01*
X111067798Y-68238495D01*
X111259363Y-68074883D01*
X111422975Y-67883318D01*
X111554605Y-67668518D01*
X111576066Y-67616707D01*
X111619906Y-67562303D01*
X111686200Y-67540238D01*
X111690627Y-67540159D01*
X114899562Y-67540159D01*
X114966601Y-67559844D01*
X114987243Y-67576478D01*
X124068584Y-76657819D01*
X124102069Y-76719142D01*
X124097085Y-76788834D01*
X124055213Y-76844767D01*
X123989749Y-76869184D01*
X123980903Y-76869500D01*
X117277728Y-76869500D01*
X117210689Y-76849815D01*
X117190047Y-76833181D01*
X113053654Y-72696788D01*
X115238271Y-72696788D01*
X115258031Y-72947860D01*
X115316822Y-73192744D01*
X115413199Y-73425419D01*
X115544787Y-73640150D01*
X115544790Y-73640155D01*
X115708349Y-73831657D01*
X115836254Y-73940900D01*
X116352470Y-73046785D01*
X116363100Y-73065196D01*
X116474811Y-73176907D01*
X116611628Y-73255899D01*
X116764228Y-73296788D01*
X116785482Y-73296788D01*
X116269277Y-74190880D01*
X116347268Y-74223185D01*
X116592146Y-74281975D01*
X116843219Y-74301735D01*
X117094291Y-74281975D01*
X117339175Y-74223184D01*
X117571850Y-74126807D01*
X117786581Y-73995219D01*
X117786586Y-73995216D01*
X117978088Y-73831658D01*
X118087330Y-73703750D01*
X117193218Y-73187535D01*
X117211627Y-73176907D01*
X117323338Y-73065196D01*
X117402330Y-72928379D01*
X117443219Y-72775779D01*
X117443219Y-72754522D01*
X118337311Y-73270727D01*
X118369614Y-73192744D01*
X118428406Y-72947859D01*
X118448166Y-72696788D01*
X118428406Y-72445715D01*
X118369615Y-72200831D01*
X118273238Y-71968156D01*
X118141650Y-71753425D01*
X118141647Y-71753420D01*
X117978088Y-71561918D01*
X117850182Y-71452674D01*
X117333965Y-72346787D01*
X117323338Y-72328380D01*
X117211627Y-72216669D01*
X117074810Y-72137677D01*
X116922210Y-72096788D01*
X116900952Y-72096788D01*
X117417158Y-71202694D01*
X117417158Y-71202693D01*
X117339175Y-71170391D01*
X117094291Y-71111600D01*
X116843219Y-71091840D01*
X116592146Y-71111600D01*
X116347262Y-71170391D01*
X116114587Y-71266768D01*
X115899856Y-71398356D01*
X115899851Y-71398359D01*
X115708349Y-71561918D01*
X115708343Y-71561924D01*
X115599105Y-71689823D01*
X116493220Y-72206040D01*
X116474811Y-72216669D01*
X116363100Y-72328380D01*
X116284108Y-72465197D01*
X116243219Y-72617797D01*
X116243219Y-72639052D01*
X115349124Y-72122847D01*
X115316823Y-72200828D01*
X115316823Y-72200830D01*
X115258031Y-72445715D01*
X115238271Y-72696788D01*
X113053654Y-72696788D01*
X113002362Y-72645496D01*
X112968877Y-72584173D01*
X112973861Y-72514481D01*
X112975482Y-72510362D01*
X112996942Y-72458552D01*
X112996941Y-72458552D01*
X112996943Y-72458550D01*
X113055753Y-72213587D01*
X113075519Y-71962439D01*
X113055753Y-71711291D01*
X112996943Y-71466328D01*
X112991287Y-71452674D01*
X112900536Y-71233579D01*
X112768909Y-71018785D01*
X112768908Y-71018782D01*
X112659860Y-70891104D01*
X112605294Y-70827215D01*
X112475992Y-70716781D01*
X112413726Y-70663600D01*
X112413723Y-70663599D01*
X112198929Y-70531972D01*
X111966180Y-70435565D01*
X111721221Y-70376756D01*
X111470070Y-70356990D01*
X111218918Y-70376756D01*
X110973959Y-70435565D01*
X110741210Y-70531972D01*
X110526416Y-70663599D01*
X110526413Y-70663600D01*
X110334846Y-70827215D01*
X110171231Y-71018782D01*
X110171230Y-71018785D01*
X110039603Y-71233579D01*
X109943196Y-71466328D01*
X109884387Y-71711287D01*
X109864621Y-71962439D01*
X109884387Y-72213590D01*
X109943196Y-72458549D01*
X110039603Y-72691298D01*
X110171230Y-72906092D01*
X110171231Y-72906095D01*
X110206901Y-72947859D01*
X110334846Y-73097663D01*
X110446172Y-73192744D01*
X110526413Y-73261277D01*
X110526416Y-73261278D01*
X110741210Y-73392905D01*
X110910899Y-73463192D01*
X110973959Y-73489312D01*
X111218922Y-73548122D01*
X111470070Y-73567888D01*
X111721218Y-73548122D01*
X111966181Y-73489312D01*
X112006472Y-73472623D01*
X112017993Y-73467851D01*
X112087462Y-73460382D01*
X112149941Y-73491657D01*
X112153127Y-73494731D01*
X113343409Y-74685013D01*
X113376894Y-74746336D01*
X113371910Y-74816028D01*
X113330038Y-74871961D01*
X113264574Y-74896378D01*
X113241845Y-74895914D01*
X113152977Y-74885901D01*
X113152971Y-74885901D01*
X112841233Y-74885901D01*
X112841229Y-74885901D01*
X112531468Y-74920803D01*
X112531452Y-74920805D01*
X112227534Y-74990172D01*
X112227522Y-74990176D01*
X111933287Y-75093134D01*
X111652427Y-75228389D01*
X111388470Y-75394244D01*
X111144743Y-75588609D01*
X110924310Y-75809042D01*
X110729945Y-76052769D01*
X110564090Y-76316726D01*
X110428835Y-76597586D01*
X110325877Y-76891821D01*
X110325873Y-76891833D01*
X110256506Y-77195751D01*
X110256504Y-77195767D01*
X110221602Y-77505527D01*
X110221602Y-77817274D01*
X110256504Y-78127034D01*
X110256506Y-78127050D01*
X110325873Y-78430968D01*
X110325877Y-78430980D01*
X110428835Y-78725215D01*
X110564090Y-79006075D01*
X110566521Y-79009944D01*
X110729946Y-79270034D01*
X110843949Y-79412989D01*
X110917346Y-79505027D01*
X110924311Y-79513760D01*
X111144743Y-79734192D01*
X111388469Y-79928557D01*
X111652425Y-80094411D01*
X111933291Y-80229669D01*
X112134643Y-80300125D01*
X112227522Y-80332625D01*
X112227534Y-80332629D01*
X112531456Y-80401997D01*
X112841228Y-80436900D01*
X112841229Y-80436901D01*
X112841233Y-80436901D01*
X113152975Y-80436901D01*
X113152975Y-80436900D01*
X113462748Y-80401997D01*
X113766670Y-80332629D01*
X114060913Y-80229669D01*
X114341779Y-80094411D01*
X114605735Y-79928557D01*
X114849461Y-79734192D01*
X115069893Y-79513760D01*
X115264258Y-79270034D01*
X115430112Y-79006078D01*
X115565370Y-78725212D01*
X115668330Y-78430969D01*
X115737698Y-78127047D01*
X115772602Y-77817270D01*
X115772602Y-77505532D01*
X115772601Y-77505527D01*
X115762588Y-77416659D01*
X115774642Y-77347837D01*
X115821991Y-77296457D01*
X115889601Y-77278832D01*
X115956007Y-77300558D01*
X115973489Y-77315093D01*
X116492770Y-77834374D01*
X116492780Y-77834385D01*
X116497110Y-77838715D01*
X116497111Y-77838716D01*
X116608915Y-77950520D01*
X116608917Y-77950521D01*
X116608921Y-77950524D01*
X116745840Y-78029573D01*
X116745847Y-78029577D01*
X116857650Y-78059534D01*
X116898573Y-78070500D01*
X116898574Y-78070500D01*
X132111577Y-78070500D01*
X132178616Y-78090185D01*
X132224371Y-78142989D01*
X132234315Y-78212147D01*
X132205867Y-78275031D01*
X132060044Y-78445767D01*
X132060038Y-78445776D01*
X131928411Y-78660570D01*
X131832004Y-78893319D01*
X131773195Y-79138278D01*
X131753429Y-79389430D01*
X131773195Y-79640581D01*
X131832004Y-79885540D01*
X131928411Y-80118289D01*
X132060038Y-80333083D01*
X132060039Y-80333086D01*
X132103582Y-80384068D01*
X132223654Y-80524654D01*
X132371209Y-80650678D01*
X132415221Y-80688268D01*
X132415224Y-80688269D01*
X132630018Y-80819896D01*
X132803495Y-80891752D01*
X132862767Y-80916303D01*
X133107730Y-80975113D01*
X133358878Y-80994879D01*
X133610026Y-80975113D01*
X133854989Y-80916303D01*
X134087737Y-80819896D01*
X134302537Y-80688266D01*
X134418428Y-80589286D01*
X137042630Y-80589286D01*
X137062390Y-80840358D01*
X137121181Y-81085242D01*
X137217558Y-81317917D01*
X137349146Y-81532648D01*
X137349149Y-81532653D01*
X137512708Y-81724155D01*
X137534629Y-81742878D01*
X137534630Y-81742878D01*
X138129932Y-80892696D01*
X138167459Y-80957694D01*
X138279170Y-81069405D01*
X138415987Y-81148397D01*
X138538322Y-81181176D01*
X137944150Y-82029745D01*
X138151619Y-82115681D01*
X138396505Y-82174473D01*
X138647578Y-82194233D01*
X138898650Y-82174473D01*
X139143534Y-82115682D01*
X139376209Y-82019305D01*
X139590940Y-81887717D01*
X139590952Y-81887709D01*
X139624393Y-81859148D01*
X151263742Y-81859148D01*
X151283508Y-82110299D01*
X151342317Y-82355258D01*
X151438724Y-82588007D01*
X151570351Y-82802801D01*
X151570352Y-82802804D01*
X151619663Y-82860539D01*
X151733967Y-82994372D01*
X151844177Y-83088500D01*
X151925534Y-83157986D01*
X151925537Y-83157987D01*
X152140331Y-83289614D01*
X152304883Y-83357773D01*
X152373080Y-83386021D01*
X152618043Y-83444831D01*
X152869191Y-83464597D01*
X153120339Y-83444831D01*
X153365302Y-83386021D01*
X153598050Y-83289614D01*
X153812850Y-83157984D01*
X154004415Y-82994372D01*
X154168027Y-82802807D01*
X154299657Y-82588007D01*
X154396064Y-82355259D01*
X154454874Y-82110296D01*
X154474640Y-81859148D01*
X154454874Y-81608000D01*
X154396064Y-81363037D01*
X154373545Y-81308671D01*
X154299657Y-81130288D01*
X154168030Y-80915494D01*
X154168029Y-80915491D01*
X154087440Y-80821134D01*
X154004415Y-80723924D01*
X153877762Y-80615752D01*
X153812847Y-80560309D01*
X153812844Y-80560308D01*
X153598050Y-80428681D01*
X153365301Y-80332274D01*
X153120342Y-80273465D01*
X152869191Y-80253699D01*
X152618039Y-80273465D01*
X152373080Y-80332274D01*
X152140331Y-80428681D01*
X151925537Y-80560308D01*
X151925534Y-80560309D01*
X151733967Y-80723924D01*
X151570352Y-80915491D01*
X151570351Y-80915494D01*
X151438724Y-81130288D01*
X151342317Y-81363037D01*
X151283508Y-81607996D01*
X151263742Y-81859148D01*
X139624393Y-81859148D01*
X139782436Y-81724167D01*
X139782445Y-81724158D01*
X139801170Y-81702232D01*
X138950990Y-81106930D01*
X139015986Y-81069405D01*
X139127697Y-80957694D01*
X139206689Y-80820877D01*
X139239469Y-80698539D01*
X140088036Y-81292711D01*
X140173975Y-81085237D01*
X140232765Y-80840358D01*
X140252525Y-80589286D01*
X140232765Y-80338213D01*
X140173974Y-80093329D01*
X140077597Y-79860654D01*
X139946009Y-79645923D01*
X139946006Y-79645918D01*
X139782447Y-79454416D01*
X139760525Y-79435692D01*
X139165222Y-80285872D01*
X139127697Y-80220878D01*
X139015986Y-80109167D01*
X138879169Y-80030175D01*
X138756830Y-79997394D01*
X139351003Y-79148826D01*
X139143533Y-79062889D01*
X138898650Y-79004098D01*
X138647578Y-78984338D01*
X138396505Y-79004098D01*
X138151621Y-79062889D01*
X137918946Y-79159266D01*
X137704215Y-79290854D01*
X137704203Y-79290862D01*
X137512710Y-79454412D01*
X137493984Y-79476337D01*
X137493984Y-79476338D01*
X138344166Y-80071641D01*
X138279170Y-80109167D01*
X138167459Y-80220878D01*
X138088467Y-80357695D01*
X138055686Y-80480032D01*
X137207118Y-79885859D01*
X137207117Y-79885859D01*
X137121182Y-80093326D01*
X137121182Y-80093328D01*
X137062390Y-80338213D01*
X137042630Y-80589286D01*
X134418428Y-80589286D01*
X134494102Y-80524654D01*
X134657714Y-80333089D01*
X134789344Y-80118289D01*
X134885751Y-79885541D01*
X134944561Y-79640578D01*
X134964327Y-79389430D01*
X134944561Y-79138282D01*
X134885751Y-78893319D01*
X134835361Y-78771666D01*
X134789344Y-78660570D01*
X134657717Y-78445776D01*
X134657711Y-78445767D01*
X134511889Y-78275031D01*
X134483318Y-78211270D01*
X134493755Y-78142184D01*
X134539886Y-78089709D01*
X134606179Y-78070500D01*
X155909903Y-78070500D01*
X155976942Y-78090185D01*
X155997584Y-78106819D01*
X160805139Y-82914374D01*
X160805149Y-82914385D01*
X160809479Y-82918715D01*
X160809480Y-82918716D01*
X160921284Y-83030520D01*
X160962643Y-83054398D01*
X160966642Y-83056707D01*
X160966641Y-83056707D01*
X160966644Y-83056708D01*
X161058209Y-83109574D01*
X161058210Y-83109575D01*
X161058212Y-83109575D01*
X161058215Y-83109577D01*
X161210943Y-83150501D01*
X161210946Y-83150501D01*
X161376653Y-83150501D01*
X161376669Y-83150500D01*
X185119903Y-83150500D01*
X185186942Y-83170185D01*
X185207584Y-83186819D01*
X185228549Y-83207784D01*
X185262034Y-83269107D01*
X185257050Y-83338799D01*
X185215178Y-83394732D01*
X185149714Y-83419149D01*
X185140868Y-83419465D01*
X181155894Y-83419463D01*
X181024110Y-83419463D01*
X180896814Y-83453571D01*
X180782688Y-83519463D01*
X180782685Y-83519465D01*
X180689504Y-83612646D01*
X180689502Y-83612649D01*
X180623610Y-83726775D01*
X180589502Y-83854071D01*
X180589502Y-98914608D01*
X180589030Y-98925418D01*
X180575260Y-99082777D01*
X180571506Y-99104063D01*
X180532027Y-99251388D01*
X180524634Y-99271699D01*
X180460172Y-99409932D01*
X180449364Y-99428651D01*
X180361874Y-99553594D01*
X180347981Y-99570150D01*
X180240131Y-99677998D01*
X180223574Y-99691891D01*
X180098634Y-99779374D01*
X180079915Y-99790182D01*
X179941675Y-99854643D01*
X179921364Y-99862035D01*
X179774037Y-99901511D01*
X179752751Y-99905264D01*
X179595345Y-99919035D01*
X179584538Y-99919507D01*
X179524109Y-99919507D01*
X179396957Y-99953577D01*
X179396930Y-99953584D01*
X179396823Y-99953612D01*
X179396809Y-99953618D01*
X179282691Y-100019505D01*
X179282685Y-100019509D01*
X179189504Y-100112690D01*
X179189502Y-100112693D01*
X179123610Y-100226819D01*
X179089502Y-100354115D01*
X179089502Y-100354116D01*
X179089503Y-104927525D01*
X179089091Y-104937621D01*
X179085800Y-104977894D01*
X179085801Y-104977899D01*
X179085801Y-104977901D01*
X179086078Y-104979422D01*
X179087497Y-104987210D01*
X179089504Y-105009424D01*
X179089504Y-105018888D01*
X179099965Y-105057929D01*
X179102181Y-105067792D01*
X179109426Y-105107551D01*
X179113472Y-105116100D01*
X179121163Y-105137045D01*
X179123610Y-105146179D01*
X179123613Y-105146185D01*
X179143818Y-105181181D01*
X179148510Y-105190132D01*
X179165802Y-105226667D01*
X179171923Y-105233878D01*
X179184775Y-105252121D01*
X179189502Y-105260309D01*
X179189506Y-105260314D01*
X179218079Y-105288887D01*
X179224920Y-105296309D01*
X179251087Y-105327134D01*
X179258859Y-105332510D01*
X179258865Y-105332514D01*
X179276006Y-105346814D01*
X179282691Y-105353499D01*
X179282692Y-105353500D01*
X179282694Y-105353501D01*
X179293583Y-105359787D01*
X179317693Y-105373707D01*
X179326219Y-105379104D01*
X179359469Y-105402104D01*
X179368375Y-105405287D01*
X179388627Y-105414661D01*
X179396819Y-105419391D01*
X179435866Y-105429853D01*
X179445487Y-105432855D01*
X179483561Y-105446468D01*
X179492983Y-105447238D01*
X179514975Y-105451051D01*
X179524108Y-105453498D01*
X179524110Y-105453498D01*
X179524113Y-105453499D01*
X179564526Y-105453499D01*
X179574626Y-105453910D01*
X180676113Y-105543936D01*
X180676177Y-105543942D01*
X184239688Y-105855705D01*
X184239702Y-105855708D01*
X184262226Y-105857678D01*
X184300305Y-105861009D01*
X184312121Y-105862042D01*
X184312895Y-105862114D01*
X186019369Y-106026399D01*
X186021369Y-106026608D01*
X187724042Y-106220513D01*
X187726159Y-106220773D01*
X189425207Y-106444307D01*
X189427207Y-106444589D01*
X191122048Y-106697673D01*
X191124026Y-106697986D01*
X192724718Y-106965592D01*
X192814262Y-106980562D01*
X192816389Y-106980937D01*
X193190769Y-107050250D01*
X194415522Y-107277002D01*
X194501317Y-107292886D01*
X194503429Y-107293296D01*
X195958047Y-107588899D01*
X196182621Y-107634536D01*
X196184726Y-107634982D01*
X197857856Y-108005447D01*
X197859945Y-108005930D01*
X199526277Y-108405459D01*
X199528216Y-108405941D01*
X201188211Y-108834659D01*
X201189049Y-108834880D01*
X210224390Y-111255887D01*
X210234672Y-111259128D01*
X210383144Y-111313167D01*
X210402731Y-111322301D01*
X210534830Y-111398568D01*
X210552534Y-111410964D01*
X210632998Y-111478480D01*
X210669385Y-111509011D01*
X210684669Y-111524295D01*
X210782714Y-111641137D01*
X210795112Y-111658841D01*
X210871388Y-111790947D01*
X210880520Y-111810531D01*
X210923018Y-111927279D01*
X210932695Y-111953863D01*
X210938289Y-111974740D01*
X210964782Y-112124956D01*
X210966667Y-112146488D01*
X210966673Y-112299027D01*
X210964790Y-112320558D01*
X210937395Y-112475967D01*
X210935053Y-112486535D01*
X207314393Y-125999016D01*
X207311133Y-126009353D01*
X207257080Y-126157782D01*
X207247944Y-126177365D01*
X207171659Y-126309456D01*
X207159263Y-126327155D01*
X207061196Y-126444008D01*
X207045913Y-126459289D01*
X206929048Y-126557339D01*
X206911347Y-126569733D01*
X206779236Y-126646006D01*
X206759651Y-126655138D01*
X206616311Y-126707315D01*
X206595438Y-126712910D01*
X206445206Y-126739411D01*
X206423678Y-126741296D01*
X206271132Y-126741312D01*
X206249605Y-126739431D01*
X206093826Y-126711987D01*
X206083247Y-126709643D01*
X202125797Y-125649255D01*
X198580929Y-124699417D01*
X198580928Y-124699417D01*
X198517281Y-124682363D01*
X198517280Y-124682363D01*
X198453633Y-124665309D01*
X198453632Y-124665309D01*
X198445783Y-124663206D01*
X198445779Y-124663205D01*
X197678553Y-124457628D01*
X197007447Y-124290303D01*
X195993479Y-124037493D01*
X194918883Y-123789403D01*
X194301316Y-123646826D01*
X192602666Y-123285767D01*
X192324508Y-123231698D01*
X190897898Y-122954394D01*
X190897882Y-122954391D01*
X190897876Y-122954390D01*
X189187626Y-122652825D01*
X187472373Y-122381154D01*
X185752642Y-122139461D01*
X184028912Y-121927812D01*
X182301752Y-121746278D01*
X181448088Y-121671591D01*
X181429026Y-121669923D01*
X181409965Y-121668255D01*
X181409964Y-121668254D01*
X181368418Y-121664620D01*
X181368412Y-121664618D01*
X180834912Y-121617937D01*
X180834891Y-121617934D01*
X180762016Y-121611559D01*
X180762015Y-121611558D01*
X180762015Y-121611559D01*
X180696381Y-121605816D01*
X180696380Y-121605816D01*
X180689236Y-121605191D01*
X180689100Y-121605187D01*
X179897008Y-121535891D01*
X179897000Y-121535890D01*
X179896995Y-121535890D01*
X178164578Y-121414751D01*
X177562482Y-121383197D01*
X176430287Y-121323862D01*
X174694743Y-121263258D01*
X172958347Y-121232950D01*
X172958340Y-121232950D01*
X171221693Y-121232950D01*
X171221686Y-121232950D01*
X169485289Y-121263257D01*
X167749743Y-121323861D01*
X166406706Y-121394245D01*
X166015455Y-121414749D01*
X164283038Y-121535887D01*
X164246884Y-121539050D01*
X163486362Y-121605584D01*
X163486354Y-121605586D01*
X163418018Y-121611564D01*
X163355090Y-121617068D01*
X163355070Y-121617071D01*
X155614558Y-122294275D01*
X155603745Y-122294747D01*
X155445783Y-122294739D01*
X155424251Y-122292854D01*
X155274046Y-122266362D01*
X155253169Y-122260767D01*
X155109838Y-122208593D01*
X155090251Y-122199459D01*
X154958160Y-122123193D01*
X154940455Y-122110795D01*
X154823616Y-122012752D01*
X154808333Y-121997469D01*
X154710290Y-121880625D01*
X154697893Y-121862920D01*
X154621629Y-121730827D01*
X154612495Y-121711239D01*
X154598064Y-121671591D01*
X154560325Y-121567910D01*
X154554733Y-121547045D01*
X154527292Y-121391436D01*
X154525883Y-121380732D01*
X154132753Y-116887219D01*
X198157690Y-116887219D01*
X198157690Y-117198966D01*
X198192592Y-117508726D01*
X198192594Y-117508742D01*
X198261961Y-117812660D01*
X198261965Y-117812672D01*
X198364923Y-118106907D01*
X198500178Y-118387767D01*
X198500180Y-118387770D01*
X198666034Y-118651726D01*
X198860399Y-118895452D01*
X199080831Y-119115884D01*
X199324557Y-119310249D01*
X199588513Y-119476103D01*
X199869379Y-119611361D01*
X200090364Y-119688687D01*
X200163610Y-119714317D01*
X200163622Y-119714321D01*
X200467544Y-119783689D01*
X200777316Y-119818592D01*
X200777317Y-119818593D01*
X200777321Y-119818593D01*
X201089063Y-119818593D01*
X201089063Y-119818592D01*
X201398836Y-119783689D01*
X201702758Y-119714321D01*
X201997001Y-119611361D01*
X202277867Y-119476103D01*
X202541823Y-119310249D01*
X202785549Y-119115884D01*
X203005981Y-118895452D01*
X203200346Y-118651726D01*
X203366200Y-118387770D01*
X203501458Y-118106904D01*
X203604418Y-117812661D01*
X203673786Y-117508739D01*
X203708690Y-117198962D01*
X203708690Y-116887224D01*
X203673786Y-116577447D01*
X203604418Y-116273525D01*
X203603750Y-116271617D01*
X203576264Y-116193065D01*
X203501458Y-115979282D01*
X203366200Y-115698416D01*
X203200346Y-115434460D01*
X203005981Y-115190734D01*
X202785549Y-114970302D01*
X202541823Y-114775937D01*
X202367925Y-114666670D01*
X205141384Y-114666670D01*
X205161144Y-114917742D01*
X205219935Y-115162626D01*
X205252237Y-115240609D01*
X205252238Y-115240609D01*
X206146332Y-114724403D01*
X206146332Y-114745661D01*
X206187221Y-114898261D01*
X206266213Y-115035078D01*
X206377924Y-115146789D01*
X206396331Y-115157416D01*
X205502218Y-115673633D01*
X205611462Y-115801539D01*
X205802964Y-115965098D01*
X205802969Y-115965101D01*
X206017700Y-116096689D01*
X206250375Y-116193066D01*
X206495259Y-116251857D01*
X206746332Y-116271617D01*
X206997403Y-116251857D01*
X207242288Y-116193065D01*
X207320272Y-116160762D01*
X206804067Y-115266670D01*
X206825323Y-115266670D01*
X206977923Y-115225781D01*
X207114740Y-115146789D01*
X207226451Y-115035078D01*
X207237079Y-115016669D01*
X207753294Y-115910780D01*
X207881202Y-115801539D01*
X208044760Y-115610037D01*
X208044763Y-115610032D01*
X208176351Y-115395301D01*
X208272728Y-115162626D01*
X208331519Y-114917742D01*
X208351279Y-114666670D01*
X208331519Y-114415597D01*
X208272729Y-114170719D01*
X208240424Y-114092728D01*
X207346332Y-114608933D01*
X207346332Y-114587679D01*
X207305443Y-114435079D01*
X207226451Y-114298262D01*
X207114740Y-114186551D01*
X207096329Y-114175921D01*
X207990444Y-113659705D01*
X207881201Y-113531800D01*
X207689699Y-113368241D01*
X207689694Y-113368238D01*
X207474963Y-113236650D01*
X207242288Y-113140273D01*
X206997404Y-113081482D01*
X206746332Y-113061722D01*
X206495259Y-113081482D01*
X206250374Y-113140274D01*
X206250372Y-113140274D01*
X206172391Y-113172575D01*
X206688597Y-114066670D01*
X206667341Y-114066670D01*
X206514741Y-114107559D01*
X206377924Y-114186551D01*
X206266213Y-114298262D01*
X206255584Y-114316671D01*
X205739367Y-113422556D01*
X205611468Y-113531794D01*
X205611462Y-113531800D01*
X205447903Y-113723302D01*
X205447900Y-113723307D01*
X205316312Y-113938038D01*
X205219935Y-114170713D01*
X205161144Y-114415597D01*
X205141384Y-114666670D01*
X202367925Y-114666670D01*
X202289759Y-114617555D01*
X202277864Y-114610081D01*
X201997004Y-114474826D01*
X201702769Y-114371868D01*
X201702757Y-114371864D01*
X201398839Y-114302497D01*
X201398823Y-114302495D01*
X201089063Y-114267593D01*
X201089059Y-114267593D01*
X200777321Y-114267593D01*
X200777317Y-114267593D01*
X200467556Y-114302495D01*
X200467540Y-114302497D01*
X200163622Y-114371864D01*
X200163610Y-114371868D01*
X199869375Y-114474826D01*
X199588515Y-114610081D01*
X199324558Y-114775936D01*
X199080831Y-114970301D01*
X198860398Y-115190734D01*
X198666033Y-115434461D01*
X198500178Y-115698418D01*
X198364923Y-115979278D01*
X198261965Y-116273513D01*
X198261961Y-116273525D01*
X198192594Y-116577443D01*
X198192592Y-116577459D01*
X198157690Y-116887219D01*
X154132753Y-116887219D01*
X153837830Y-113516222D01*
X159626304Y-113516222D01*
X159626304Y-113827969D01*
X159661206Y-114137729D01*
X159661208Y-114137745D01*
X159730575Y-114441663D01*
X159730579Y-114441675D01*
X159833537Y-114735910D01*
X159968792Y-115016770D01*
X159968794Y-115016773D01*
X160134648Y-115280729D01*
X160203644Y-115367247D01*
X160329010Y-115524452D01*
X160329013Y-115524455D01*
X160549445Y-115744887D01*
X160793171Y-115939252D01*
X161057127Y-116105106D01*
X161337993Y-116240364D01*
X161558978Y-116317690D01*
X161632224Y-116343320D01*
X161632227Y-116343321D01*
X161632236Y-116343324D01*
X161936158Y-116412692D01*
X162245930Y-116447595D01*
X162245931Y-116447596D01*
X162245935Y-116447596D01*
X162557677Y-116447596D01*
X162557677Y-116447595D01*
X162867450Y-116412692D01*
X163171372Y-116343324D01*
X163465615Y-116240364D01*
X163746481Y-116105106D01*
X164010437Y-115939252D01*
X164254163Y-115744887D01*
X164474595Y-115524455D01*
X164668960Y-115280729D01*
X164834814Y-115016773D01*
X164970072Y-114735907D01*
X165073032Y-114441664D01*
X165142400Y-114137742D01*
X165177304Y-113827965D01*
X165177304Y-113516227D01*
X165177303Y-113516219D01*
X179039400Y-113516219D01*
X179039400Y-113827966D01*
X179074302Y-114137726D01*
X179074304Y-114137742D01*
X179143671Y-114441660D01*
X179143675Y-114441672D01*
X179246633Y-114735907D01*
X179381888Y-115016767D01*
X179381890Y-115016770D01*
X179547744Y-115280726D01*
X179742109Y-115524452D01*
X179962541Y-115744884D01*
X180206267Y-115939249D01*
X180470223Y-116105103D01*
X180751089Y-116240361D01*
X180972074Y-116317687D01*
X181045320Y-116343317D01*
X181045329Y-116343320D01*
X181045332Y-116343321D01*
X181349254Y-116412689D01*
X181659026Y-116447592D01*
X181659027Y-116447593D01*
X181659031Y-116447593D01*
X181970773Y-116447593D01*
X181970773Y-116447592D01*
X182280546Y-116412689D01*
X182584468Y-116343321D01*
X182878711Y-116240361D01*
X183159577Y-116105103D01*
X183423533Y-115939249D01*
X183667259Y-115744884D01*
X183887691Y-115524452D01*
X184082056Y-115280726D01*
X184247910Y-115016770D01*
X184383168Y-114735904D01*
X184486128Y-114441661D01*
X184555496Y-114137739D01*
X184590400Y-113827962D01*
X184590400Y-113516224D01*
X184555496Y-113206447D01*
X184486128Y-112902525D01*
X184383168Y-112608282D01*
X184247910Y-112327416D01*
X184091494Y-112078480D01*
X195482125Y-112078480D01*
X195501885Y-112329552D01*
X195560676Y-112574436D01*
X195592978Y-112652419D01*
X195592979Y-112652419D01*
X196487073Y-112136213D01*
X196487073Y-112157471D01*
X196527962Y-112310071D01*
X196606954Y-112446888D01*
X196718665Y-112558599D01*
X196737072Y-112569226D01*
X195842959Y-113085443D01*
X195952203Y-113213349D01*
X196143705Y-113376908D01*
X196143710Y-113376911D01*
X196358441Y-113508499D01*
X196591116Y-113604876D01*
X196836000Y-113663667D01*
X197087073Y-113683427D01*
X197338144Y-113663667D01*
X197583029Y-113604875D01*
X197661013Y-113572572D01*
X197144808Y-112678480D01*
X197166064Y-112678480D01*
X197318664Y-112637591D01*
X197455481Y-112558599D01*
X197567192Y-112446888D01*
X197577820Y-112428479D01*
X198094035Y-113322590D01*
X198221943Y-113213349D01*
X198385501Y-113021847D01*
X198385504Y-113021842D01*
X198517092Y-112807111D01*
X198613469Y-112574436D01*
X198672260Y-112329552D01*
X198692020Y-112078480D01*
X198672260Y-111827407D01*
X198613470Y-111582529D01*
X198581165Y-111504538D01*
X197687073Y-112020743D01*
X197687073Y-111999489D01*
X197646184Y-111846889D01*
X197567192Y-111710072D01*
X197455481Y-111598361D01*
X197437070Y-111587731D01*
X197858999Y-111344131D01*
X200854773Y-111344131D01*
X200874539Y-111595282D01*
X200933348Y-111840241D01*
X201029755Y-112072990D01*
X201161382Y-112287784D01*
X201161383Y-112287787D01*
X201200566Y-112333664D01*
X201324998Y-112479355D01*
X201473288Y-112606006D01*
X201516565Y-112642969D01*
X201516568Y-112642970D01*
X201731362Y-112774597D01*
X201892510Y-112841346D01*
X201964111Y-112871004D01*
X202209074Y-112929814D01*
X202460222Y-112949580D01*
X202711370Y-112929814D01*
X202956333Y-112871004D01*
X203189081Y-112774597D01*
X203403881Y-112642967D01*
X203595446Y-112479355D01*
X203759058Y-112287790D01*
X203890688Y-112072990D01*
X203987095Y-111840242D01*
X204045905Y-111595279D01*
X204065671Y-111344131D01*
X204045905Y-111092983D01*
X203987095Y-110848020D01*
X203968220Y-110802451D01*
X203890688Y-110615271D01*
X203759061Y-110400477D01*
X203759060Y-110400474D01*
X203694028Y-110324332D01*
X203595446Y-110208907D01*
X203457095Y-110090744D01*
X203403878Y-110045292D01*
X203403875Y-110045291D01*
X203189081Y-109913664D01*
X202956332Y-109817257D01*
X202711373Y-109758448D01*
X202460222Y-109738682D01*
X202209070Y-109758448D01*
X201964111Y-109817257D01*
X201731362Y-109913664D01*
X201516568Y-110045291D01*
X201516565Y-110045292D01*
X201324998Y-110208907D01*
X201161383Y-110400474D01*
X201161382Y-110400477D01*
X201029755Y-110615271D01*
X200933348Y-110848020D01*
X200874539Y-111092979D01*
X200854773Y-111344131D01*
X197858999Y-111344131D01*
X198331185Y-111071515D01*
X198221942Y-110943610D01*
X198030440Y-110780051D01*
X198030435Y-110780048D01*
X197815704Y-110648460D01*
X197583029Y-110552083D01*
X197338145Y-110493292D01*
X197087073Y-110473532D01*
X196836000Y-110493292D01*
X196591115Y-110552084D01*
X196591113Y-110552084D01*
X196513132Y-110584385D01*
X197029338Y-111478480D01*
X197008082Y-111478480D01*
X196855482Y-111519369D01*
X196718665Y-111598361D01*
X196606954Y-111710072D01*
X196596325Y-111728481D01*
X196080108Y-110834366D01*
X195952209Y-110943604D01*
X195952203Y-110943610D01*
X195788644Y-111135112D01*
X195788641Y-111135117D01*
X195657053Y-111349848D01*
X195560676Y-111582523D01*
X195501885Y-111827407D01*
X195482125Y-112078480D01*
X184091494Y-112078480D01*
X184082056Y-112063460D01*
X183887691Y-111819734D01*
X183667259Y-111599302D01*
X183662214Y-111595279D01*
X183567026Y-111519369D01*
X183423533Y-111404937D01*
X183159577Y-111239083D01*
X183159574Y-111239081D01*
X182878714Y-111103826D01*
X182584479Y-111000868D01*
X182584467Y-111000864D01*
X182280549Y-110931497D01*
X182280533Y-110931495D01*
X181970773Y-110896593D01*
X181970769Y-110896593D01*
X181659031Y-110896593D01*
X181659027Y-110896593D01*
X181349266Y-110931495D01*
X181349250Y-110931497D01*
X181045332Y-111000864D01*
X181045320Y-111000868D01*
X180751085Y-111103826D01*
X180470225Y-111239081D01*
X180206268Y-111404936D01*
X179962541Y-111599301D01*
X179742108Y-111819734D01*
X179547743Y-112063461D01*
X179381888Y-112327418D01*
X179246633Y-112608278D01*
X179143675Y-112902513D01*
X179143671Y-112902525D01*
X179074304Y-113206443D01*
X179074302Y-113206459D01*
X179039400Y-113516219D01*
X165177303Y-113516219D01*
X165142400Y-113206450D01*
X165073032Y-112902528D01*
X164970072Y-112608285D01*
X164834814Y-112327419D01*
X164668960Y-112063463D01*
X164474595Y-111819737D01*
X164254163Y-111599305D01*
X164252979Y-111598361D01*
X164102653Y-111478480D01*
X164010437Y-111404940D01*
X163746481Y-111239086D01*
X163746478Y-111239084D01*
X163465618Y-111103829D01*
X163171383Y-111000871D01*
X163171371Y-111000867D01*
X162867453Y-110931500D01*
X162867437Y-110931498D01*
X162557677Y-110896596D01*
X162557673Y-110896596D01*
X162245935Y-110896596D01*
X162245931Y-110896596D01*
X161936170Y-110931498D01*
X161936154Y-110931500D01*
X161632236Y-111000867D01*
X161632224Y-111000871D01*
X161337989Y-111103829D01*
X161057129Y-111239084D01*
X160793172Y-111404939D01*
X160549445Y-111599304D01*
X160329012Y-111819737D01*
X160134647Y-112063464D01*
X159968792Y-112327421D01*
X159833537Y-112608281D01*
X159730579Y-112902516D01*
X159730575Y-112902528D01*
X159661208Y-113206446D01*
X159661206Y-113206462D01*
X159626304Y-113516222D01*
X153837830Y-113516222D01*
X153558402Y-110322335D01*
X155484691Y-110322335D01*
X155504451Y-110573407D01*
X155563242Y-110818291D01*
X155659619Y-111050966D01*
X155791207Y-111265697D01*
X155791215Y-111265709D01*
X155882256Y-111372305D01*
X155882257Y-111372305D01*
X156546192Y-110581056D01*
X156609520Y-110690743D01*
X156721231Y-110802454D01*
X156858048Y-110881446D01*
X156930539Y-110900870D01*
X156265282Y-111693693D01*
X156361007Y-111752354D01*
X156593682Y-111848731D01*
X156838566Y-111907522D01*
X157089639Y-111927282D01*
X157340711Y-111907522D01*
X157585595Y-111848731D01*
X157818270Y-111752354D01*
X158032999Y-111620768D01*
X158033000Y-111620767D01*
X158139608Y-111529715D01*
X157348362Y-110865781D01*
X157458047Y-110802454D01*
X157569758Y-110690743D01*
X157648750Y-110553926D01*
X157668174Y-110481432D01*
X158460997Y-111146690D01*
X158519658Y-111050966D01*
X158616035Y-110818291D01*
X158674826Y-110573407D01*
X158694586Y-110322335D01*
X158674826Y-110071262D01*
X158616035Y-109826378D01*
X158519658Y-109593703D01*
X158432073Y-109450777D01*
X165446638Y-109450777D01*
X165466398Y-109701849D01*
X165525189Y-109946733D01*
X165621566Y-110179408D01*
X165753154Y-110394139D01*
X165753162Y-110394151D01*
X165844203Y-110500747D01*
X165844204Y-110500747D01*
X166508139Y-109709498D01*
X166571467Y-109819185D01*
X166683178Y-109930896D01*
X166819995Y-110009888D01*
X166892486Y-110029312D01*
X166227229Y-110822135D01*
X166322954Y-110880796D01*
X166555629Y-110977173D01*
X166800513Y-111035964D01*
X167051586Y-111055724D01*
X167302658Y-111035964D01*
X167547542Y-110977173D01*
X167780217Y-110880796D01*
X167994946Y-110749210D01*
X167994947Y-110749209D01*
X168101555Y-110658157D01*
X167310309Y-109994223D01*
X167419994Y-109930896D01*
X167531705Y-109819185D01*
X167610697Y-109682368D01*
X167630121Y-109609874D01*
X168422944Y-110275132D01*
X168481605Y-110179408D01*
X168577982Y-109946733D01*
X168636773Y-109701849D01*
X168656533Y-109450777D01*
X168656533Y-109450774D01*
X175560170Y-109450774D01*
X175579930Y-109701846D01*
X175638721Y-109946730D01*
X175735095Y-110179397D01*
X175735098Y-110179403D01*
X175793758Y-110275129D01*
X176586582Y-109609870D01*
X176606007Y-109682365D01*
X176684999Y-109819182D01*
X176796710Y-109930893D01*
X176906393Y-109994219D01*
X176115146Y-110658154D01*
X176221756Y-110749206D01*
X176221757Y-110749207D01*
X176436486Y-110880793D01*
X176669161Y-110977170D01*
X176914045Y-111035961D01*
X177165118Y-111055721D01*
X177416190Y-111035961D01*
X177661074Y-110977170D01*
X177893749Y-110880793D01*
X177989473Y-110822132D01*
X177324215Y-110029309D01*
X177396709Y-110009885D01*
X177533526Y-109930893D01*
X177645237Y-109819182D01*
X177708564Y-109709497D01*
X178372498Y-110500743D01*
X178463550Y-110394135D01*
X178463551Y-110394134D01*
X178507551Y-110322332D01*
X185522117Y-110322332D01*
X185541877Y-110573404D01*
X185600668Y-110818288D01*
X185697042Y-111050955D01*
X185697045Y-111050961D01*
X185755705Y-111146687D01*
X186548529Y-110481428D01*
X186567954Y-110553923D01*
X186646946Y-110690740D01*
X186758657Y-110802451D01*
X186868340Y-110865777D01*
X186077093Y-111529712D01*
X186183703Y-111620764D01*
X186183704Y-111620765D01*
X186398433Y-111752351D01*
X186631108Y-111848728D01*
X186875992Y-111907519D01*
X187127065Y-111927279D01*
X187378137Y-111907519D01*
X187623021Y-111848728D01*
X187855696Y-111752351D01*
X187951420Y-111693690D01*
X187286162Y-110900867D01*
X187358656Y-110881443D01*
X187495473Y-110802451D01*
X187607184Y-110690740D01*
X187670511Y-110581055D01*
X188334445Y-111372301D01*
X188425497Y-111265693D01*
X188425498Y-111265692D01*
X188557084Y-111050963D01*
X188653461Y-110818288D01*
X188712252Y-110573404D01*
X188732012Y-110322332D01*
X188712252Y-110071259D01*
X188653461Y-109826375D01*
X188557084Y-109593700D01*
X188498423Y-109497975D01*
X187705600Y-110163232D01*
X187686176Y-110090741D01*
X187607184Y-109953924D01*
X187495473Y-109842213D01*
X187385786Y-109778885D01*
X188177035Y-109114950D01*
X188177035Y-109114949D01*
X188070439Y-109023908D01*
X188070427Y-109023900D01*
X187855696Y-108892312D01*
X187623021Y-108795935D01*
X187378137Y-108737144D01*
X187127065Y-108717384D01*
X186875992Y-108737144D01*
X186631108Y-108795935D01*
X186398441Y-108892309D01*
X186398435Y-108892312D01*
X186302708Y-108950972D01*
X186967967Y-109743796D01*
X186895474Y-109763221D01*
X186758657Y-109842213D01*
X186646946Y-109953924D01*
X186583618Y-110063609D01*
X185919683Y-109272361D01*
X185828635Y-109378966D01*
X185828629Y-109378975D01*
X185697045Y-109593700D01*
X185600668Y-109826375D01*
X185541877Y-110071259D01*
X185522117Y-110322332D01*
X178507551Y-110322332D01*
X178595137Y-110179405D01*
X178691514Y-109946730D01*
X178750305Y-109701846D01*
X178770065Y-109450774D01*
X178750305Y-109199701D01*
X178691514Y-108954817D01*
X178595137Y-108722142D01*
X178536476Y-108626417D01*
X177743653Y-109291674D01*
X177724229Y-109219183D01*
X177645237Y-109082366D01*
X177533526Y-108970655D01*
X177423839Y-108907327D01*
X178215088Y-108243392D01*
X178215088Y-108243391D01*
X178108492Y-108152350D01*
X178108480Y-108152342D01*
X177893749Y-108020754D01*
X177661074Y-107924377D01*
X177416190Y-107865586D01*
X177165118Y-107845826D01*
X176914045Y-107865586D01*
X176669161Y-107924377D01*
X176436494Y-108020751D01*
X176436488Y-108020754D01*
X176340761Y-108079414D01*
X177006020Y-108872238D01*
X176933527Y-108891663D01*
X176796710Y-108970655D01*
X176684999Y-109082366D01*
X176621671Y-109192051D01*
X175957736Y-108400803D01*
X175866688Y-108507408D01*
X175866682Y-108507417D01*
X175735098Y-108722142D01*
X175638721Y-108954817D01*
X175579930Y-109199701D01*
X175560170Y-109450774D01*
X168656533Y-109450774D01*
X168636773Y-109199704D01*
X168577982Y-108954820D01*
X168481605Y-108722145D01*
X168350019Y-108507416D01*
X168350018Y-108507415D01*
X168258966Y-108400806D01*
X167595031Y-109192052D01*
X167531705Y-109082369D01*
X167419994Y-108970658D01*
X167283177Y-108891666D01*
X167210682Y-108872241D01*
X167875941Y-108079417D01*
X167780215Y-108020757D01*
X167780209Y-108020754D01*
X167547542Y-107924380D01*
X167302658Y-107865589D01*
X167051586Y-107845829D01*
X166800513Y-107865589D01*
X166555629Y-107924380D01*
X166322954Y-108020757D01*
X166108229Y-108152341D01*
X166108220Y-108152347D01*
X166001615Y-108243395D01*
X166792863Y-108907330D01*
X166683178Y-108970658D01*
X166571467Y-109082369D01*
X166492475Y-109219186D01*
X166473050Y-109291679D01*
X165680226Y-108626420D01*
X165621566Y-108722147D01*
X165621563Y-108722153D01*
X165525189Y-108954820D01*
X165466398Y-109199704D01*
X165446638Y-109450777D01*
X158432073Y-109450777D01*
X158388072Y-109378974D01*
X158388071Y-109378973D01*
X158297019Y-109272364D01*
X157633084Y-110063610D01*
X157569758Y-109953927D01*
X157458047Y-109842216D01*
X157321230Y-109763224D01*
X157248735Y-109743799D01*
X157913994Y-108950975D01*
X157818268Y-108892315D01*
X157818262Y-108892312D01*
X157585595Y-108795938D01*
X157340711Y-108737147D01*
X157089639Y-108717387D01*
X156838566Y-108737147D01*
X156593682Y-108795938D01*
X156361007Y-108892315D01*
X156146282Y-109023899D01*
X156146273Y-109023905D01*
X156039668Y-109114953D01*
X156830916Y-109778888D01*
X156721231Y-109842216D01*
X156609520Y-109953927D01*
X156530528Y-110090744D01*
X156511103Y-110163237D01*
X155718279Y-109497978D01*
X155659619Y-109593705D01*
X155659616Y-109593711D01*
X155563242Y-109826378D01*
X155504451Y-110071262D01*
X155484691Y-110322335D01*
X153558402Y-110322335D01*
X153337250Y-107794547D01*
X160282136Y-107794547D01*
X160301902Y-108045698D01*
X160360711Y-108290657D01*
X160457118Y-108523406D01*
X160588745Y-108738200D01*
X160588746Y-108738203D01*
X160588749Y-108738206D01*
X160752361Y-108929771D01*
X160900651Y-109056422D01*
X160943928Y-109093385D01*
X160943931Y-109093386D01*
X161158725Y-109225013D01*
X161391467Y-109321417D01*
X161391474Y-109321420D01*
X161636437Y-109380230D01*
X161887585Y-109399996D01*
X162138733Y-109380230D01*
X162383696Y-109321420D01*
X162616444Y-109225013D01*
X162831244Y-109093383D01*
X163022809Y-108929771D01*
X163186421Y-108738206D01*
X163318051Y-108523406D01*
X163414458Y-108290658D01*
X163473268Y-108045695D01*
X163493034Y-107794547D01*
X163493034Y-107794544D01*
X180723670Y-107794544D01*
X180743436Y-108045695D01*
X180802245Y-108290654D01*
X180898652Y-108523403D01*
X181030279Y-108738197D01*
X181030280Y-108738200D01*
X181079591Y-108795935D01*
X181193895Y-108929768D01*
X181304119Y-109023908D01*
X181385462Y-109093382D01*
X181385465Y-109093383D01*
X181600259Y-109225010D01*
X181714583Y-109272364D01*
X181833008Y-109321417D01*
X182077971Y-109380227D01*
X182329119Y-109399993D01*
X182580267Y-109380227D01*
X182825230Y-109321417D01*
X183057978Y-109225010D01*
X183272778Y-109093380D01*
X183464343Y-108929768D01*
X183627955Y-108738203D01*
X183759585Y-108523403D01*
X183855992Y-108290655D01*
X183914802Y-108045692D01*
X183934568Y-107794544D01*
X183914802Y-107543396D01*
X183855992Y-107298433D01*
X183834857Y-107247409D01*
X183759585Y-107065684D01*
X183627958Y-106850890D01*
X183627957Y-106850887D01*
X183577175Y-106791429D01*
X183464343Y-106659320D01*
X183272782Y-106495711D01*
X183272775Y-106495705D01*
X183272772Y-106495704D01*
X183057978Y-106364077D01*
X182825229Y-106267670D01*
X182580270Y-106208861D01*
X182329119Y-106189095D01*
X182077967Y-106208861D01*
X181833008Y-106267670D01*
X181600259Y-106364077D01*
X181385465Y-106495704D01*
X181385462Y-106495705D01*
X181193895Y-106659320D01*
X181030280Y-106850887D01*
X181030279Y-106850890D01*
X180898652Y-107065684D01*
X180802245Y-107298433D01*
X180743436Y-107543392D01*
X180723670Y-107794544D01*
X163493034Y-107794544D01*
X163473268Y-107543399D01*
X163414458Y-107298436D01*
X163396707Y-107255582D01*
X163318051Y-107065687D01*
X163186424Y-106850893D01*
X163186423Y-106850890D01*
X163120557Y-106773771D01*
X163022809Y-106659323D01*
X162872904Y-106531292D01*
X162831241Y-106495708D01*
X162831238Y-106495707D01*
X162616444Y-106364080D01*
X162383695Y-106267673D01*
X162138736Y-106208864D01*
X161887585Y-106189098D01*
X161636433Y-106208864D01*
X161391474Y-106267673D01*
X161158725Y-106364080D01*
X160943931Y-106495707D01*
X160943928Y-106495708D01*
X160752361Y-106659323D01*
X160588746Y-106850890D01*
X160588745Y-106850893D01*
X160457118Y-107065687D01*
X160360711Y-107298436D01*
X160301902Y-107543395D01*
X160282136Y-107794547D01*
X153337250Y-107794547D01*
X153312835Y-107515476D01*
X153312835Y-107515459D01*
X153308083Y-107461158D01*
X153308083Y-107461156D01*
X153306660Y-107444896D01*
X153306189Y-107434159D01*
X153306171Y-107396869D01*
X153306114Y-107277000D01*
X153307968Y-107255582D01*
X153313320Y-107224979D01*
X153334110Y-107106100D01*
X153339633Y-107085331D01*
X153391211Y-106942595D01*
X153400235Y-106923102D01*
X153475697Y-106791418D01*
X153487950Y-106773781D01*
X153585022Y-106657116D01*
X153600143Y-106641855D01*
X153715902Y-106543719D01*
X153733439Y-106531294D01*
X153864412Y-106454629D01*
X153883834Y-106445420D01*
X154026084Y-106392532D01*
X154046792Y-106386820D01*
X154200958Y-106358392D01*
X154212615Y-106356811D01*
X163503884Y-105543934D01*
X164605375Y-105453911D01*
X164615476Y-105453499D01*
X164655894Y-105453499D01*
X164660126Y-105452364D01*
X164665018Y-105451053D01*
X164687027Y-105447237D01*
X164696444Y-105446468D01*
X164734517Y-105432856D01*
X164744142Y-105429852D01*
X164783187Y-105419391D01*
X164791372Y-105414664D01*
X164811628Y-105405289D01*
X164820537Y-105402105D01*
X164853783Y-105379106D01*
X164862311Y-105373707D01*
X164897316Y-105353499D01*
X164904001Y-105346814D01*
X164921147Y-105332510D01*
X164928918Y-105327135D01*
X164955077Y-105296318D01*
X164961903Y-105288910D01*
X164990502Y-105260313D01*
X164995230Y-105252123D01*
X165008087Y-105233873D01*
X165014204Y-105226668D01*
X165031491Y-105190138D01*
X165036179Y-105181196D01*
X165056394Y-105146186D01*
X165058840Y-105137053D01*
X165066536Y-105116095D01*
X165070580Y-105107552D01*
X165077825Y-105067792D01*
X165080039Y-105057938D01*
X165090502Y-105018892D01*
X165090502Y-105009434D01*
X165092511Y-104987203D01*
X165094206Y-104977903D01*
X165090914Y-104937621D01*
X165090502Y-104927524D01*
X165090507Y-100354079D01*
X165090507Y-100354077D01*
X165056399Y-100226784D01*
X164990507Y-100112656D01*
X164897321Y-100019470D01*
X164896622Y-100018966D01*
X164894105Y-100017612D01*
X164783197Y-99953579D01*
X164783194Y-99953578D01*
X164655900Y-99919470D01*
X164655899Y-99919470D01*
X164655897Y-99919469D01*
X133647507Y-99919469D01*
X133581615Y-99919469D01*
X133515718Y-99919469D01*
X133508014Y-99919469D01*
X133507849Y-99919479D01*
X133261049Y-99919487D01*
X133261031Y-99919488D01*
X132771101Y-99948063D01*
X132620972Y-99956820D01*
X132620969Y-99956820D01*
X132620957Y-99956821D01*
X131984156Y-100031364D01*
X131984147Y-100031365D01*
X131352779Y-100142865D01*
X131352760Y-100142869D01*
X130728970Y-100290944D01*
X130728967Y-100290945D01*
X130114817Y-100475109D01*
X129512464Y-100694716D01*
X129512456Y-100694719D01*
X129226221Y-100818403D01*
X128923901Y-100949037D01*
X128923881Y-100949046D01*
X128351151Y-101237199D01*
X127796156Y-101558228D01*
X127260797Y-101911033D01*
X127260776Y-101911048D01*
X126746903Y-102294409D01*
X126746892Y-102294417D01*
X126256180Y-102707084D01*
X125790354Y-103147607D01*
X125790351Y-103147611D01*
X125350973Y-103614511D01*
X125350945Y-103614543D01*
X125192106Y-103804345D01*
X125192075Y-103804379D01*
X116976307Y-113622555D01*
X116976306Y-113622556D01*
X116949340Y-113654781D01*
X116946692Y-113657843D01*
X116646236Y-113993966D01*
X116640648Y-113999821D01*
X116320369Y-114314192D01*
X116314412Y-114319669D01*
X115974310Y-114612477D01*
X115968007Y-114617555D01*
X115609523Y-114887557D01*
X115602903Y-114892212D01*
X115227578Y-115138247D01*
X115220668Y-115142461D01*
X114830087Y-115363493D01*
X114822917Y-115367247D01*
X114418750Y-115562328D01*
X114411351Y-115565606D01*
X113993785Y-115734527D01*
X113989694Y-115736099D01*
X99336834Y-121069317D01*
X99326516Y-121072570D01*
X99173939Y-121113452D01*
X99152653Y-121117205D01*
X99000704Y-121130498D01*
X98979090Y-121130498D01*
X98827140Y-121117204D01*
X98805854Y-121113451D01*
X98658516Y-121073973D01*
X98638209Y-121066582D01*
X98499968Y-121002119D01*
X98481251Y-120991313D01*
X98356302Y-120903826D01*
X98339744Y-120889932D01*
X98231885Y-120782075D01*
X98217991Y-120765518D01*
X98130500Y-120640572D01*
X98119693Y-120621854D01*
X98053028Y-120478899D01*
X98048887Y-120468902D01*
X97799490Y-119783690D01*
X94541747Y-110833113D01*
X100867900Y-110833113D01*
X100867900Y-111144860D01*
X100902802Y-111454620D01*
X100902804Y-111454636D01*
X100972171Y-111758554D01*
X100972175Y-111758566D01*
X101075133Y-112052801D01*
X101210388Y-112333661D01*
X101210390Y-112333664D01*
X101376244Y-112597620D01*
X101570609Y-112841346D01*
X101791041Y-113061778D01*
X102034767Y-113256143D01*
X102298723Y-113421997D01*
X102579589Y-113557255D01*
X102718383Y-113605821D01*
X102873820Y-113660211D01*
X102873832Y-113660215D01*
X103177754Y-113729583D01*
X103487526Y-113764486D01*
X103487527Y-113764487D01*
X103487531Y-113764487D01*
X103799273Y-113764487D01*
X103799273Y-113764486D01*
X104109046Y-113729583D01*
X104412968Y-113660215D01*
X104707211Y-113557255D01*
X104988077Y-113421997D01*
X105252033Y-113256143D01*
X105495759Y-113061778D01*
X105716191Y-112841346D01*
X105910556Y-112597620D01*
X106076410Y-112333664D01*
X106211668Y-112052798D01*
X106314628Y-111758555D01*
X106383996Y-111454633D01*
X106418900Y-111144856D01*
X106418900Y-110833118D01*
X106383996Y-110523341D01*
X106314628Y-110219419D01*
X106211668Y-109925176D01*
X106076410Y-109644310D01*
X105910556Y-109380354D01*
X105716191Y-109136628D01*
X105495759Y-108916196D01*
X105465809Y-108892312D01*
X105393483Y-108834634D01*
X105252033Y-108721831D01*
X104988077Y-108555977D01*
X104988074Y-108555975D01*
X104707214Y-108420720D01*
X104412979Y-108317762D01*
X104412967Y-108317758D01*
X104109049Y-108248391D01*
X104109033Y-108248389D01*
X103799273Y-108213487D01*
X103799269Y-108213487D01*
X103487531Y-108213487D01*
X103487527Y-108213487D01*
X103177766Y-108248389D01*
X103177750Y-108248391D01*
X102873832Y-108317758D01*
X102873820Y-108317762D01*
X102579585Y-108420720D01*
X102298725Y-108555975D01*
X102034768Y-108721830D01*
X101791041Y-108916195D01*
X101570608Y-109136628D01*
X101376243Y-109380355D01*
X101210388Y-109644312D01*
X101075133Y-109925172D01*
X100972175Y-110219407D01*
X100972171Y-110219419D01*
X100902804Y-110523337D01*
X100902802Y-110523353D01*
X100867900Y-110833113D01*
X94541747Y-110833113D01*
X93921230Y-109128256D01*
X96040312Y-109128256D01*
X96060072Y-109379328D01*
X96118863Y-109624212D01*
X96215240Y-109856887D01*
X96346828Y-110071618D01*
X96346831Y-110071623D01*
X96510390Y-110263125D01*
X96701892Y-110426684D01*
X96701893Y-110426685D01*
X96750156Y-110456260D01*
X96750157Y-110456260D01*
X97187293Y-109518816D01*
X97276852Y-109608375D01*
X97413669Y-109687367D01*
X97566269Y-109728256D01*
X97641319Y-109728256D01*
X97203289Y-110667611D01*
X97203290Y-110667612D01*
X97394188Y-110713443D01*
X97645260Y-110733203D01*
X97896332Y-110713443D01*
X98141216Y-110654652D01*
X98373891Y-110558275D01*
X98588622Y-110426687D01*
X98588627Y-110426684D01*
X98780129Y-110263125D01*
X98943681Y-110071631D01*
X98943690Y-110071619D01*
X98973264Y-110023358D01*
X98035821Y-109586221D01*
X98125379Y-109496664D01*
X98204371Y-109359847D01*
X98245260Y-109207247D01*
X98245260Y-109132195D01*
X99184615Y-109570225D01*
X99230447Y-109379326D01*
X99250207Y-109128256D01*
X99230447Y-108877183D01*
X99171656Y-108632299D01*
X99075279Y-108399624D01*
X98943691Y-108184893D01*
X98943688Y-108184888D01*
X98780127Y-107993383D01*
X98588628Y-107829828D01*
X98588619Y-107829822D01*
X98540362Y-107800249D01*
X98540361Y-107800249D01*
X98103224Y-108737693D01*
X98013668Y-108648137D01*
X97876851Y-108569145D01*
X97724251Y-108528256D01*
X97649198Y-108528256D01*
X98087229Y-107588899D01*
X97896331Y-107543068D01*
X97645260Y-107523308D01*
X97394187Y-107543068D01*
X97149303Y-107601859D01*
X96916628Y-107698236D01*
X96701897Y-107829824D01*
X96701892Y-107829827D01*
X96510387Y-107993388D01*
X96346837Y-108184881D01*
X96346822Y-108184902D01*
X96317253Y-108233152D01*
X96317253Y-108233153D01*
X97254699Y-108670289D01*
X97165141Y-108759848D01*
X97086149Y-108896665D01*
X97045260Y-109049265D01*
X97045260Y-109124315D01*
X96105903Y-108686285D01*
X96060072Y-108877184D01*
X96040312Y-109128256D01*
X93921230Y-109128256D01*
X92580562Y-105444801D01*
X100020032Y-105444801D01*
X100039798Y-105695952D01*
X100098607Y-105940911D01*
X100195014Y-106173660D01*
X100326641Y-106388454D01*
X100326642Y-106388457D01*
X100330125Y-106392535D01*
X100490257Y-106580025D01*
X100583103Y-106659323D01*
X100681824Y-106743639D01*
X100681827Y-106743640D01*
X100896621Y-106875267D01*
X101034691Y-106932457D01*
X101129370Y-106971674D01*
X101374333Y-107030484D01*
X101625481Y-107050250D01*
X101876629Y-107030484D01*
X102121592Y-106971674D01*
X102354340Y-106875267D01*
X102569140Y-106743637D01*
X102760705Y-106580025D01*
X102924317Y-106388460D01*
X103055947Y-106173660D01*
X103152354Y-105940912D01*
X103208258Y-105708054D01*
X105437239Y-105708054D01*
X105456999Y-105959126D01*
X105515790Y-106204010D01*
X105612167Y-106436685D01*
X105743755Y-106651416D01*
X105743758Y-106651421D01*
X105907317Y-106842923D01*
X106098819Y-107006482D01*
X106098820Y-107006483D01*
X106147083Y-107036058D01*
X106147084Y-107036058D01*
X106584220Y-106098614D01*
X106673779Y-106188173D01*
X106810596Y-106267165D01*
X106963196Y-106308054D01*
X107038246Y-106308054D01*
X106600216Y-107247409D01*
X106600217Y-107247410D01*
X106791115Y-107293241D01*
X107042187Y-107313001D01*
X107293259Y-107293241D01*
X107538143Y-107234450D01*
X107770818Y-107138073D01*
X107985549Y-107006485D01*
X107985554Y-107006482D01*
X108177056Y-106842923D01*
X108340608Y-106651429D01*
X108340617Y-106651417D01*
X108370191Y-106603156D01*
X107432748Y-106166019D01*
X107522306Y-106076462D01*
X107601298Y-105939645D01*
X107642187Y-105787045D01*
X107642187Y-105711993D01*
X108581542Y-106150023D01*
X108627374Y-105959124D01*
X108647134Y-105708054D01*
X108627374Y-105456981D01*
X108568583Y-105212097D01*
X108472206Y-104979422D01*
X108340618Y-104764691D01*
X108340615Y-104764686D01*
X108177054Y-104573181D01*
X107985555Y-104409626D01*
X107985546Y-104409620D01*
X107937289Y-104380047D01*
X107937288Y-104380047D01*
X107500151Y-105317491D01*
X107410595Y-105227935D01*
X107273778Y-105148943D01*
X107121178Y-105108054D01*
X107046125Y-105108054D01*
X107484156Y-104168697D01*
X107293258Y-104122866D01*
X107042187Y-104103106D01*
X106791114Y-104122866D01*
X106546230Y-104181657D01*
X106313555Y-104278034D01*
X106098824Y-104409622D01*
X106098819Y-104409625D01*
X105907314Y-104573186D01*
X105743764Y-104764679D01*
X105743749Y-104764700D01*
X105714180Y-104812950D01*
X105714180Y-104812951D01*
X106651626Y-105250087D01*
X106562068Y-105339646D01*
X106483076Y-105476463D01*
X106442187Y-105629063D01*
X106442187Y-105704113D01*
X105502830Y-105266083D01*
X105456999Y-105456982D01*
X105437239Y-105708054D01*
X103208258Y-105708054D01*
X103211164Y-105695949D01*
X103230930Y-105444801D01*
X103211164Y-105193653D01*
X103152354Y-104948690D01*
X103115265Y-104859149D01*
X103055947Y-104715941D01*
X102924320Y-104501147D01*
X102924319Y-104501144D01*
X102846154Y-104409625D01*
X102760705Y-104309577D01*
X102595756Y-104168697D01*
X102569137Y-104145962D01*
X102569134Y-104145961D01*
X102354340Y-104014334D01*
X102121591Y-103917927D01*
X101876632Y-103859118D01*
X101625481Y-103839352D01*
X101374329Y-103859118D01*
X101129370Y-103917927D01*
X100896621Y-104014334D01*
X100681827Y-104145961D01*
X100681824Y-104145962D01*
X100490257Y-104309577D01*
X100326642Y-104501144D01*
X100326641Y-104501147D01*
X100195014Y-104715941D01*
X100098607Y-104948690D01*
X100039798Y-105193649D01*
X100020032Y-105444801D01*
X92580562Y-105444801D01*
X88727397Y-94858315D01*
X95053607Y-94858315D01*
X95053607Y-95170062D01*
X95088509Y-95479822D01*
X95088511Y-95479838D01*
X95157878Y-95783756D01*
X95157882Y-95783768D01*
X95260840Y-96078003D01*
X95396095Y-96358863D01*
X95396097Y-96358866D01*
X95561951Y-96622822D01*
X95756316Y-96866548D01*
X95976748Y-97086980D01*
X96220474Y-97281345D01*
X96484430Y-97447199D01*
X96765296Y-97582457D01*
X96986281Y-97659783D01*
X97059527Y-97685413D01*
X97059539Y-97685417D01*
X97363461Y-97754785D01*
X97673233Y-97789688D01*
X97673234Y-97789689D01*
X97673238Y-97789689D01*
X97984980Y-97789689D01*
X97984980Y-97789688D01*
X98294753Y-97754785D01*
X98598675Y-97685417D01*
X98892918Y-97582457D01*
X99173784Y-97447199D01*
X99437740Y-97281345D01*
X99681466Y-97086980D01*
X99901898Y-96866548D01*
X100096263Y-96622822D01*
X100262117Y-96358866D01*
X100397375Y-96078000D01*
X100500335Y-95783757D01*
X100569703Y-95479835D01*
X100604607Y-95170058D01*
X100604607Y-94858320D01*
X100569703Y-94548543D01*
X100500335Y-94244621D01*
X100397375Y-93950378D01*
X100385740Y-93926217D01*
X114621499Y-93926217D01*
X114621499Y-94237964D01*
X114656401Y-94547724D01*
X114656403Y-94547740D01*
X114725770Y-94851658D01*
X114725774Y-94851670D01*
X114828732Y-95145905D01*
X114963987Y-95426765D01*
X114963989Y-95426768D01*
X115129843Y-95690724D01*
X115324208Y-95934450D01*
X115544640Y-96154882D01*
X115788366Y-96349247D01*
X116052322Y-96515101D01*
X116333188Y-96650359D01*
X116554173Y-96727685D01*
X116627419Y-96753315D01*
X116627431Y-96753319D01*
X116931353Y-96822687D01*
X117241125Y-96857590D01*
X117241126Y-96857591D01*
X117241130Y-96857591D01*
X117552872Y-96857591D01*
X117552872Y-96857590D01*
X117862645Y-96822687D01*
X118166567Y-96753319D01*
X118460810Y-96650359D01*
X118741676Y-96515101D01*
X119005632Y-96349247D01*
X119249358Y-96154882D01*
X119469790Y-95934450D01*
X119664155Y-95690724D01*
X119830009Y-95426768D01*
X119965267Y-95145902D01*
X120068227Y-94851659D01*
X120137595Y-94547737D01*
X120172499Y-94237960D01*
X120172499Y-93926222D01*
X120137595Y-93616445D01*
X120068227Y-93312523D01*
X120067559Y-93310615D01*
X120040073Y-93232064D01*
X119965267Y-93018280D01*
X119830009Y-92737414D01*
X119664155Y-92473458D01*
X119469790Y-92229732D01*
X119249358Y-92009300D01*
X119005632Y-91814935D01*
X118924763Y-91764122D01*
X169314503Y-91764122D01*
X169314503Y-92075869D01*
X169349405Y-92385629D01*
X169349407Y-92385645D01*
X169418774Y-92689563D01*
X169418778Y-92689575D01*
X169521736Y-92983810D01*
X169656991Y-93264670D01*
X169687059Y-93312523D01*
X169822847Y-93528629D01*
X170017212Y-93772355D01*
X170237644Y-93992787D01*
X170481370Y-94187152D01*
X170745326Y-94353006D01*
X171026192Y-94488264D01*
X171198460Y-94548543D01*
X171320423Y-94591220D01*
X171320435Y-94591224D01*
X171624357Y-94660592D01*
X171934129Y-94695495D01*
X171934130Y-94695496D01*
X171934134Y-94695496D01*
X172245876Y-94695496D01*
X172245876Y-94695495D01*
X172555649Y-94660592D01*
X172859571Y-94591224D01*
X173153814Y-94488264D01*
X173434680Y-94353006D01*
X173698636Y-94187152D01*
X173942362Y-93992787D01*
X174162794Y-93772355D01*
X174357159Y-93528629D01*
X174523013Y-93264673D01*
X174658271Y-92983807D01*
X174761231Y-92689564D01*
X174830599Y-92385642D01*
X174865503Y-92075865D01*
X174865503Y-91764127D01*
X174830599Y-91454350D01*
X174761231Y-91150428D01*
X174759876Y-91146557D01*
X174723040Y-91041285D01*
X174658271Y-90856185D01*
X174523013Y-90575319D01*
X174357159Y-90311363D01*
X174162794Y-90067637D01*
X173942362Y-89847205D01*
X173698636Y-89652840D01*
X173508188Y-89533174D01*
X173434677Y-89486984D01*
X173153817Y-89351729D01*
X172859582Y-89248771D01*
X172859570Y-89248767D01*
X172555652Y-89179400D01*
X172555636Y-89179398D01*
X172245876Y-89144496D01*
X172245872Y-89144496D01*
X171934134Y-89144496D01*
X171934130Y-89144496D01*
X171624369Y-89179398D01*
X171624353Y-89179400D01*
X171320435Y-89248767D01*
X171320423Y-89248771D01*
X171026188Y-89351729D01*
X170745328Y-89486984D01*
X170481371Y-89652839D01*
X170237644Y-89847204D01*
X170017211Y-90067637D01*
X169822846Y-90311364D01*
X169656991Y-90575321D01*
X169521736Y-90856181D01*
X169418778Y-91150416D01*
X169418774Y-91150428D01*
X169349407Y-91454346D01*
X169349405Y-91454362D01*
X169314503Y-91764122D01*
X118924763Y-91764122D01*
X118741676Y-91649081D01*
X118741673Y-91649079D01*
X118460813Y-91513824D01*
X118166578Y-91410866D01*
X118166566Y-91410862D01*
X117862648Y-91341495D01*
X117862632Y-91341493D01*
X117552872Y-91306591D01*
X117552868Y-91306591D01*
X117241130Y-91306591D01*
X117241126Y-91306591D01*
X116931365Y-91341493D01*
X116931349Y-91341495D01*
X116627431Y-91410862D01*
X116627419Y-91410866D01*
X116333184Y-91513824D01*
X116052324Y-91649079D01*
X115788367Y-91814934D01*
X115544640Y-92009299D01*
X115324207Y-92229732D01*
X115129842Y-92473459D01*
X114963987Y-92737416D01*
X114828732Y-93018276D01*
X114725774Y-93312511D01*
X114725770Y-93312523D01*
X114656403Y-93616441D01*
X114656401Y-93616457D01*
X114621499Y-93926217D01*
X100385740Y-93926217D01*
X100262117Y-93669512D01*
X100096263Y-93405556D01*
X99901898Y-93161830D01*
X99681466Y-92941398D01*
X99632546Y-92902386D01*
X99619568Y-92892036D01*
X99437740Y-92747033D01*
X99173784Y-92581179D01*
X99173781Y-92581177D01*
X98892921Y-92445922D01*
X98598686Y-92342964D01*
X98598674Y-92342960D01*
X98294756Y-92273593D01*
X98294740Y-92273591D01*
X97984980Y-92238689D01*
X97984976Y-92238689D01*
X97673238Y-92238689D01*
X97673234Y-92238689D01*
X97363473Y-92273591D01*
X97363457Y-92273593D01*
X97059539Y-92342960D01*
X97059527Y-92342964D01*
X96765292Y-92445922D01*
X96484432Y-92581177D01*
X96220475Y-92747032D01*
X95976748Y-92941397D01*
X95756315Y-93161830D01*
X95561950Y-93405557D01*
X95396095Y-93669514D01*
X95260840Y-93950374D01*
X95157882Y-94244609D01*
X95157878Y-94244621D01*
X95088511Y-94548539D01*
X95088509Y-94548555D01*
X95053607Y-94858315D01*
X88727397Y-94858315D01*
X88106880Y-93153458D01*
X90226019Y-93153458D01*
X90245779Y-93404530D01*
X90304570Y-93649414D01*
X90400947Y-93882089D01*
X90532535Y-94096820D01*
X90532538Y-94096825D01*
X90696097Y-94288327D01*
X90887599Y-94451886D01*
X90887600Y-94451887D01*
X90935863Y-94481462D01*
X90935864Y-94481462D01*
X91373000Y-93544018D01*
X91462559Y-93633577D01*
X91599376Y-93712569D01*
X91751976Y-93753458D01*
X91827026Y-93753458D01*
X91388996Y-94692813D01*
X91388997Y-94692814D01*
X91579895Y-94738645D01*
X91830967Y-94758405D01*
X92082039Y-94738645D01*
X92326923Y-94679854D01*
X92559598Y-94583477D01*
X92774329Y-94451889D01*
X92774334Y-94451886D01*
X92965836Y-94288327D01*
X93129388Y-94096833D01*
X93129397Y-94096821D01*
X93158971Y-94048560D01*
X92221528Y-93611423D01*
X92311086Y-93521866D01*
X92390078Y-93385049D01*
X92430967Y-93232449D01*
X92430967Y-93157397D01*
X93370322Y-93595427D01*
X93416154Y-93404528D01*
X93435914Y-93153458D01*
X93416154Y-92902385D01*
X93357363Y-92657501D01*
X93260986Y-92424826D01*
X93129398Y-92210095D01*
X93129395Y-92210090D01*
X92965834Y-92018585D01*
X92774335Y-91855030D01*
X92774326Y-91855024D01*
X92726069Y-91825451D01*
X92726068Y-91825451D01*
X92288931Y-92762895D01*
X92199375Y-92673339D01*
X92062558Y-92594347D01*
X91909958Y-92553458D01*
X91834905Y-92553458D01*
X92230237Y-91705668D01*
X109978909Y-91705668D01*
X109998669Y-91956740D01*
X110057460Y-92201624D01*
X110153837Y-92434299D01*
X110285425Y-92649030D01*
X110285428Y-92649035D01*
X110448987Y-92840537D01*
X110576892Y-92949780D01*
X111093108Y-92055665D01*
X111103738Y-92074076D01*
X111215449Y-92185787D01*
X111352266Y-92264779D01*
X111504866Y-92305668D01*
X111526120Y-92305668D01*
X111009915Y-93199760D01*
X111087906Y-93232065D01*
X111332784Y-93290855D01*
X111583857Y-93310615D01*
X111834929Y-93290855D01*
X112079813Y-93232064D01*
X112312488Y-93135687D01*
X112527219Y-93004099D01*
X112527224Y-93004096D01*
X112718726Y-92840538D01*
X112827968Y-92712630D01*
X111933856Y-92196415D01*
X111952265Y-92185787D01*
X112063976Y-92074076D01*
X112142968Y-91937259D01*
X112183857Y-91784659D01*
X112183857Y-91763402D01*
X113077949Y-92279607D01*
X113110252Y-92201624D01*
X113169044Y-91956739D01*
X113188804Y-91705668D01*
X113169044Y-91454595D01*
X113110253Y-91209711D01*
X113013876Y-90977036D01*
X112882288Y-90762305D01*
X112882285Y-90762300D01*
X112718726Y-90570798D01*
X112590820Y-90461554D01*
X112074603Y-91355667D01*
X112063976Y-91337260D01*
X111952265Y-91225549D01*
X111815448Y-91146557D01*
X111662848Y-91105668D01*
X111641590Y-91105668D01*
X112157796Y-90211574D01*
X112157796Y-90211573D01*
X112079813Y-90179271D01*
X111834929Y-90120480D01*
X111583857Y-90100720D01*
X111332784Y-90120480D01*
X111087900Y-90179271D01*
X110855225Y-90275648D01*
X110640494Y-90407236D01*
X110640489Y-90407239D01*
X110448987Y-90570798D01*
X110448981Y-90570804D01*
X110339743Y-90698703D01*
X111233858Y-91214920D01*
X111215449Y-91225549D01*
X111103738Y-91337260D01*
X111024746Y-91474077D01*
X110983857Y-91626677D01*
X110983857Y-91647932D01*
X110089762Y-91131727D01*
X110057461Y-91209708D01*
X110057461Y-91209710D01*
X109998669Y-91454595D01*
X109978909Y-91705668D01*
X92230237Y-91705668D01*
X92272936Y-91614101D01*
X92082038Y-91568270D01*
X91830967Y-91548510D01*
X91579894Y-91568270D01*
X91335010Y-91627061D01*
X91102335Y-91723438D01*
X90887604Y-91855026D01*
X90887599Y-91855029D01*
X90696094Y-92018590D01*
X90532544Y-92210083D01*
X90532529Y-92210104D01*
X90502960Y-92258354D01*
X90502960Y-92258355D01*
X91440406Y-92695491D01*
X91350848Y-92785050D01*
X91271856Y-92921867D01*
X91230967Y-93074467D01*
X91230967Y-93149517D01*
X90291610Y-92711487D01*
X90245779Y-92902386D01*
X90226019Y-93153458D01*
X88106880Y-93153458D01*
X86766212Y-89470003D01*
X94205739Y-89470003D01*
X94225505Y-89721154D01*
X94284314Y-89966113D01*
X94380721Y-90198862D01*
X94512348Y-90413656D01*
X94512349Y-90413659D01*
X94514271Y-90415909D01*
X94675964Y-90605227D01*
X94790049Y-90702665D01*
X94867531Y-90768841D01*
X94867533Y-90768841D01*
X94870228Y-90770493D01*
X95082328Y-90900469D01*
X95267179Y-90977036D01*
X95315077Y-90996876D01*
X95560040Y-91055686D01*
X95811188Y-91075452D01*
X96062336Y-91055686D01*
X96307299Y-90996876D01*
X96540047Y-90900469D01*
X96754847Y-90768839D01*
X96946412Y-90605227D01*
X97110024Y-90413662D01*
X97241654Y-90198862D01*
X97338061Y-89966114D01*
X97393965Y-89733256D01*
X99622946Y-89733256D01*
X99642706Y-89984328D01*
X99701497Y-90229212D01*
X99797874Y-90461887D01*
X99929462Y-90676618D01*
X99929465Y-90676623D01*
X100093024Y-90868125D01*
X100284526Y-91031684D01*
X100284527Y-91031685D01*
X100332790Y-91061260D01*
X100332791Y-91061260D01*
X100769927Y-90123816D01*
X100859486Y-90213375D01*
X100996303Y-90292367D01*
X101148903Y-90333256D01*
X101223953Y-90333256D01*
X100785923Y-91272611D01*
X100785924Y-91272612D01*
X100976822Y-91318443D01*
X101227894Y-91338203D01*
X101478966Y-91318443D01*
X101723850Y-91259652D01*
X101956525Y-91163275D01*
X102171256Y-91031687D01*
X102171261Y-91031684D01*
X102362763Y-90868125D01*
X102526315Y-90676631D01*
X102526324Y-90676619D01*
X102555898Y-90628358D01*
X101618455Y-90191221D01*
X101708013Y-90101664D01*
X101787005Y-89964847D01*
X101827894Y-89812247D01*
X101827894Y-89737195D01*
X102767249Y-90175225D01*
X102813081Y-89984326D01*
X102832841Y-89733256D01*
X102813081Y-89482183D01*
X102754290Y-89237299D01*
X102657913Y-89004624D01*
X102526325Y-88789893D01*
X102526322Y-88789888D01*
X102362761Y-88598383D01*
X102171262Y-88434828D01*
X102171253Y-88434822D01*
X102122996Y-88405249D01*
X102122995Y-88405249D01*
X101685858Y-89342693D01*
X101596302Y-89253137D01*
X101459485Y-89174145D01*
X101306885Y-89133256D01*
X101231832Y-89133256D01*
X101581623Y-88383129D01*
X114264518Y-88383129D01*
X114284284Y-88634280D01*
X114343093Y-88879239D01*
X114439500Y-89111988D01*
X114571127Y-89326782D01*
X114571128Y-89326785D01*
X114603637Y-89364848D01*
X114734743Y-89518353D01*
X114846069Y-89613434D01*
X114926310Y-89681967D01*
X114926313Y-89681968D01*
X115141107Y-89813595D01*
X115239084Y-89854178D01*
X115373856Y-89910002D01*
X115618819Y-89968812D01*
X115869967Y-89988578D01*
X116121115Y-89968812D01*
X116366078Y-89910002D01*
X116598826Y-89813595D01*
X116813626Y-89681965D01*
X117005191Y-89518353D01*
X117168803Y-89326788D01*
X117297069Y-89117478D01*
X119638168Y-89117478D01*
X119657928Y-89368550D01*
X119716719Y-89613434D01*
X119813096Y-89846109D01*
X119944684Y-90060840D01*
X119944687Y-90060845D01*
X120108246Y-90252347D01*
X120236151Y-90361590D01*
X120752367Y-89467475D01*
X120762997Y-89485886D01*
X120874708Y-89597597D01*
X121011525Y-89676589D01*
X121164125Y-89717478D01*
X121185379Y-89717478D01*
X120669174Y-90611570D01*
X120747165Y-90643875D01*
X120992043Y-90702665D01*
X121243116Y-90722425D01*
X121494188Y-90702665D01*
X121739072Y-90643874D01*
X121971747Y-90547497D01*
X122186478Y-90415909D01*
X122186483Y-90415906D01*
X122377985Y-90252348D01*
X122487227Y-90124440D01*
X121593115Y-89608225D01*
X121611524Y-89597597D01*
X121723235Y-89485886D01*
X121802227Y-89349069D01*
X121843116Y-89196469D01*
X121843116Y-89175212D01*
X122737208Y-89691417D01*
X122769511Y-89613434D01*
X122828303Y-89368549D01*
X122848063Y-89117478D01*
X122828303Y-88866405D01*
X122769512Y-88621521D01*
X122673135Y-88388846D01*
X122541547Y-88174115D01*
X122541544Y-88174110D01*
X122377985Y-87982608D01*
X122250079Y-87873364D01*
X121733862Y-88767477D01*
X121723235Y-88749070D01*
X121611524Y-88637359D01*
X121474707Y-88558367D01*
X121322107Y-88517478D01*
X121300849Y-88517478D01*
X121817055Y-87623384D01*
X121817055Y-87623383D01*
X121739072Y-87591081D01*
X121494188Y-87532290D01*
X121243116Y-87512530D01*
X120992043Y-87532290D01*
X120747159Y-87591081D01*
X120514484Y-87687458D01*
X120299753Y-87819046D01*
X120299748Y-87819049D01*
X120108246Y-87982608D01*
X120108240Y-87982614D01*
X119999002Y-88110513D01*
X120893117Y-88626730D01*
X120874708Y-88637359D01*
X120762997Y-88749070D01*
X120684005Y-88885887D01*
X120643116Y-89038487D01*
X120643116Y-89059742D01*
X119749021Y-88543537D01*
X119716720Y-88621518D01*
X119716720Y-88621520D01*
X119657928Y-88866405D01*
X119638168Y-89117478D01*
X117297069Y-89117478D01*
X117300433Y-89111988D01*
X117396840Y-88879240D01*
X117455650Y-88634277D01*
X117475416Y-88383129D01*
X117455650Y-88131981D01*
X117396840Y-87887018D01*
X117384276Y-87856686D01*
X117300433Y-87654269D01*
X117168806Y-87439475D01*
X117168805Y-87439472D01*
X117127717Y-87391364D01*
X117005191Y-87247905D01*
X116878538Y-87139733D01*
X116813623Y-87084290D01*
X116813620Y-87084289D01*
X116598826Y-86952662D01*
X116366077Y-86856255D01*
X116121118Y-86797446D01*
X115869967Y-86777680D01*
X115618815Y-86797446D01*
X115373856Y-86856255D01*
X115141107Y-86952662D01*
X114926313Y-87084289D01*
X114926310Y-87084290D01*
X114734743Y-87247905D01*
X114571128Y-87439472D01*
X114571127Y-87439475D01*
X114439500Y-87654269D01*
X114343093Y-87887018D01*
X114284284Y-88131977D01*
X114264518Y-88383129D01*
X101581623Y-88383129D01*
X101669863Y-88193899D01*
X101478965Y-88148068D01*
X101227894Y-88128308D01*
X100976821Y-88148068D01*
X100731937Y-88206859D01*
X100499262Y-88303236D01*
X100284531Y-88434824D01*
X100284526Y-88434827D01*
X100093021Y-88598388D01*
X99929471Y-88789881D01*
X99929456Y-88789902D01*
X99899887Y-88838152D01*
X99899887Y-88838153D01*
X100837333Y-89275289D01*
X100747775Y-89364848D01*
X100668783Y-89501665D01*
X100627894Y-89654265D01*
X100627894Y-89729315D01*
X99688537Y-89291285D01*
X99642706Y-89482184D01*
X99622946Y-89733256D01*
X97393965Y-89733256D01*
X97396871Y-89721151D01*
X97416637Y-89470003D01*
X97396871Y-89218855D01*
X97338061Y-88973892D01*
X97307862Y-88900984D01*
X97241654Y-88741143D01*
X97110027Y-88526349D01*
X97110026Y-88526346D01*
X97031861Y-88434827D01*
X96946412Y-88334779D01*
X96791353Y-88202346D01*
X96754844Y-88171164D01*
X96754841Y-88171163D01*
X96540047Y-88039536D01*
X96307298Y-87943129D01*
X96062339Y-87884320D01*
X95811188Y-87864554D01*
X95560036Y-87884320D01*
X95315077Y-87943129D01*
X95082328Y-88039536D01*
X94867534Y-88171163D01*
X94867531Y-88171164D01*
X94675964Y-88334779D01*
X94512349Y-88526346D01*
X94512348Y-88526349D01*
X94380721Y-88741143D01*
X94284314Y-88973892D01*
X94225505Y-89218851D01*
X94205739Y-89470003D01*
X86766212Y-89470003D01*
X84891884Y-84320327D01*
X87011074Y-84320327D01*
X87030834Y-84571399D01*
X87089625Y-84816283D01*
X87186002Y-85048958D01*
X87317590Y-85263689D01*
X87317593Y-85263694D01*
X87481152Y-85455196D01*
X87672654Y-85618755D01*
X87672655Y-85618756D01*
X87720918Y-85648331D01*
X87720919Y-85648331D01*
X88158055Y-84710887D01*
X88247614Y-84800446D01*
X88384431Y-84879438D01*
X88537031Y-84920327D01*
X88612081Y-84920327D01*
X88174051Y-85859682D01*
X88174052Y-85859683D01*
X88364950Y-85905514D01*
X88616022Y-85925274D01*
X88867094Y-85905514D01*
X89111978Y-85846723D01*
X89344653Y-85750346D01*
X89559384Y-85618758D01*
X89559389Y-85618755D01*
X89750891Y-85455196D01*
X89914443Y-85263702D01*
X89914452Y-85263690D01*
X89944026Y-85215429D01*
X89006583Y-84778292D01*
X89096141Y-84688735D01*
X89175133Y-84551918D01*
X89216022Y-84399318D01*
X89216022Y-84324266D01*
X90155377Y-84762296D01*
X90198284Y-84583580D01*
X92427279Y-84583580D01*
X92447045Y-84834731D01*
X92505854Y-85079690D01*
X92602261Y-85312439D01*
X92733888Y-85527233D01*
X92733889Y-85527236D01*
X92741791Y-85536488D01*
X92897504Y-85718804D01*
X93012424Y-85816955D01*
X93089071Y-85882418D01*
X93089074Y-85882419D01*
X93303868Y-86014046D01*
X93487352Y-86090047D01*
X93536617Y-86110453D01*
X93781580Y-86169263D01*
X94032728Y-86189029D01*
X94283876Y-86169263D01*
X94528839Y-86110453D01*
X94761587Y-86014046D01*
X94976387Y-85882416D01*
X95167952Y-85718804D01*
X95331564Y-85527239D01*
X95463194Y-85312439D01*
X95559601Y-85079691D01*
X95568188Y-85043922D01*
X131607902Y-85043922D01*
X131607902Y-85355669D01*
X131642804Y-85665429D01*
X131642806Y-85665445D01*
X131712173Y-85969363D01*
X131712177Y-85969375D01*
X131815135Y-86263610D01*
X131950390Y-86544470D01*
X131950392Y-86544473D01*
X132116246Y-86808429D01*
X132310611Y-87052155D01*
X132531043Y-87272587D01*
X132774769Y-87466952D01*
X133038725Y-87632806D01*
X133319591Y-87768064D01*
X133465298Y-87819049D01*
X133613822Y-87871020D01*
X133613834Y-87871024D01*
X133917756Y-87940392D01*
X134227528Y-87975295D01*
X134227529Y-87975296D01*
X134227533Y-87975296D01*
X134539275Y-87975296D01*
X134539275Y-87975295D01*
X134849048Y-87940392D01*
X135152970Y-87871024D01*
X135447213Y-87768064D01*
X135728079Y-87632806D01*
X135810810Y-87580823D01*
X150607910Y-87580823D01*
X150607910Y-87892570D01*
X150642812Y-88202330D01*
X150642814Y-88202346D01*
X150712181Y-88506264D01*
X150712185Y-88506276D01*
X150815143Y-88800511D01*
X150950398Y-89081371D01*
X150990062Y-89144496D01*
X151116254Y-89345330D01*
X151310619Y-89589056D01*
X151531051Y-89809488D01*
X151774777Y-90003853D01*
X151966691Y-90124440D01*
X152038735Y-90169708D01*
X152039321Y-90169990D01*
X152319599Y-90304965D01*
X152540584Y-90382291D01*
X152613830Y-90407921D01*
X152613842Y-90407925D01*
X152917764Y-90477293D01*
X153227536Y-90512196D01*
X153227537Y-90512197D01*
X153227541Y-90512197D01*
X153539283Y-90512197D01*
X153539283Y-90512196D01*
X153849056Y-90477293D01*
X154152978Y-90407925D01*
X154447221Y-90304965D01*
X154728087Y-90169707D01*
X154992043Y-90003853D01*
X155235769Y-89809488D01*
X155456201Y-89589056D01*
X155650566Y-89345330D01*
X155816420Y-89081374D01*
X155951678Y-88800508D01*
X156054638Y-88506265D01*
X156124006Y-88202343D01*
X156133284Y-88119996D01*
X165485055Y-88119996D01*
X165504815Y-88371068D01*
X165563606Y-88615952D01*
X165659983Y-88848627D01*
X165791571Y-89063358D01*
X165792269Y-89064175D01*
X166525390Y-88331054D01*
X166530892Y-88351587D01*
X166609884Y-88488404D01*
X166721595Y-88600115D01*
X166858412Y-88679107D01*
X166878943Y-88684608D01*
X166145822Y-89417728D01*
X166145822Y-89417729D01*
X166146637Y-89418425D01*
X166361371Y-89550015D01*
X166594046Y-89646392D01*
X166838930Y-89705183D01*
X167090003Y-89724943D01*
X167341075Y-89705183D01*
X167585959Y-89646392D01*
X167818634Y-89550015D01*
X168033364Y-89418428D01*
X168033366Y-89418426D01*
X168034183Y-89417728D01*
X167301062Y-88684608D01*
X167321594Y-88679107D01*
X167458411Y-88600115D01*
X167570122Y-88488404D01*
X167649114Y-88351587D01*
X167654615Y-88331055D01*
X168387735Y-89064176D01*
X168388433Y-89063359D01*
X168388435Y-89063357D01*
X168520022Y-88848627D01*
X168616399Y-88615952D01*
X168675190Y-88371068D01*
X168694950Y-88119996D01*
X175485055Y-88119996D01*
X175504815Y-88371068D01*
X175563606Y-88615952D01*
X175659983Y-88848627D01*
X175791571Y-89063358D01*
X175792269Y-89064175D01*
X176525390Y-88331054D01*
X176530892Y-88351587D01*
X176609884Y-88488404D01*
X176721595Y-88600115D01*
X176858412Y-88679107D01*
X176878943Y-88684608D01*
X176145822Y-89417728D01*
X176145822Y-89417729D01*
X176146637Y-89418425D01*
X176361371Y-89550015D01*
X176594046Y-89646392D01*
X176838930Y-89705183D01*
X177090003Y-89724943D01*
X177341075Y-89705183D01*
X177585959Y-89646392D01*
X177818634Y-89550015D01*
X178033364Y-89418428D01*
X178033366Y-89418426D01*
X178034183Y-89417728D01*
X177301062Y-88684608D01*
X177321594Y-88679107D01*
X177458411Y-88600115D01*
X177570122Y-88488404D01*
X177649114Y-88351587D01*
X177654615Y-88331055D01*
X178387735Y-89064176D01*
X178388433Y-89063359D01*
X178388435Y-89063357D01*
X178520022Y-88848627D01*
X178616399Y-88615952D01*
X178675190Y-88371068D01*
X178694950Y-88119996D01*
X178675190Y-87868923D01*
X178616399Y-87624039D01*
X178520022Y-87391364D01*
X178388432Y-87176630D01*
X178387736Y-87175815D01*
X178387735Y-87175815D01*
X177654615Y-87908935D01*
X177649114Y-87888405D01*
X177570122Y-87751588D01*
X177458411Y-87639877D01*
X177321594Y-87560885D01*
X177301060Y-87555383D01*
X178034182Y-86822262D01*
X178033365Y-86821564D01*
X177818634Y-86689976D01*
X177585959Y-86593599D01*
X177341075Y-86534808D01*
X177090003Y-86515048D01*
X176838930Y-86534808D01*
X176594046Y-86593599D01*
X176361371Y-86689976D01*
X176146640Y-86821563D01*
X176145821Y-86822262D01*
X176878943Y-87555383D01*
X176858412Y-87560885D01*
X176721595Y-87639877D01*
X176609884Y-87751588D01*
X176530892Y-87888405D01*
X176525390Y-87908936D01*
X175792269Y-87175814D01*
X175791570Y-87176633D01*
X175659983Y-87391364D01*
X175563606Y-87624039D01*
X175504815Y-87868923D01*
X175485055Y-88119996D01*
X168694950Y-88119996D01*
X168675190Y-87868923D01*
X168616399Y-87624039D01*
X168520022Y-87391364D01*
X168388432Y-87176630D01*
X168387736Y-87175815D01*
X168387735Y-87175815D01*
X167654615Y-87908935D01*
X167649114Y-87888405D01*
X167570122Y-87751588D01*
X167458411Y-87639877D01*
X167321594Y-87560885D01*
X167301060Y-87555383D01*
X168034182Y-86822262D01*
X168033365Y-86821564D01*
X167818634Y-86689976D01*
X167585959Y-86593599D01*
X167341075Y-86534808D01*
X167090003Y-86515048D01*
X166838930Y-86534808D01*
X166594046Y-86593599D01*
X166361371Y-86689976D01*
X166146640Y-86821563D01*
X166145821Y-86822262D01*
X166878943Y-87555383D01*
X166858412Y-87560885D01*
X166721595Y-87639877D01*
X166609884Y-87751588D01*
X166530892Y-87888405D01*
X166525390Y-87908936D01*
X165792269Y-87175814D01*
X165791570Y-87176633D01*
X165659983Y-87391364D01*
X165563606Y-87624039D01*
X165504815Y-87868923D01*
X165485055Y-88119996D01*
X156133284Y-88119996D01*
X156158910Y-87892566D01*
X156158910Y-87580828D01*
X156124006Y-87271051D01*
X156054638Y-86967129D01*
X156053422Y-86963655D01*
X156015842Y-86856256D01*
X155951678Y-86672886D01*
X155816420Y-86392020D01*
X155650566Y-86128064D01*
X155564385Y-86019996D01*
X170484554Y-86019996D01*
X170504320Y-86271147D01*
X170563129Y-86516106D01*
X170659536Y-86748855D01*
X170791163Y-86963649D01*
X170791164Y-86963652D01*
X170830591Y-87009815D01*
X170954779Y-87155220D01*
X171063299Y-87247905D01*
X171146346Y-87318834D01*
X171146349Y-87318835D01*
X171361143Y-87450462D01*
X171558695Y-87532290D01*
X171593892Y-87546869D01*
X171838855Y-87605679D01*
X172090003Y-87625445D01*
X172341151Y-87605679D01*
X172586114Y-87546869D01*
X172818862Y-87450462D01*
X173033662Y-87318832D01*
X173225227Y-87155220D01*
X173388839Y-86963655D01*
X173520469Y-86748855D01*
X173616876Y-86516107D01*
X173675686Y-86271144D01*
X173695452Y-86019996D01*
X173675686Y-85768848D01*
X173616876Y-85523885D01*
X173594366Y-85469540D01*
X173520469Y-85291136D01*
X173388842Y-85076342D01*
X173388841Y-85076339D01*
X173290500Y-84961197D01*
X173225227Y-84884772D01*
X173081826Y-84762296D01*
X173033659Y-84721157D01*
X173033656Y-84721156D01*
X172818862Y-84589529D01*
X172586113Y-84493122D01*
X172341154Y-84434313D01*
X172090003Y-84414547D01*
X171838851Y-84434313D01*
X171593892Y-84493122D01*
X171361143Y-84589529D01*
X171146349Y-84721156D01*
X171146346Y-84721157D01*
X170954779Y-84884772D01*
X170791164Y-85076339D01*
X170791163Y-85076342D01*
X170659536Y-85291136D01*
X170563129Y-85523885D01*
X170504320Y-85768844D01*
X170484554Y-86019996D01*
X155564385Y-86019996D01*
X155456201Y-85884338D01*
X155235769Y-85663906D01*
X154992043Y-85469541D01*
X154752773Y-85319198D01*
X154728084Y-85303685D01*
X154447224Y-85168430D01*
X154152989Y-85065472D01*
X154152977Y-85065468D01*
X153849059Y-84996101D01*
X153849043Y-84996099D01*
X153539283Y-84961197D01*
X153539279Y-84961197D01*
X153227541Y-84961197D01*
X153227537Y-84961197D01*
X152917776Y-84996099D01*
X152917760Y-84996101D01*
X152613842Y-85065468D01*
X152613830Y-85065472D01*
X152319595Y-85168430D01*
X152038735Y-85303685D01*
X151774778Y-85469540D01*
X151531051Y-85663905D01*
X151310618Y-85884338D01*
X151116253Y-86128065D01*
X150950398Y-86392022D01*
X150815143Y-86672882D01*
X150712185Y-86967117D01*
X150712181Y-86967129D01*
X150642814Y-87271047D01*
X150642812Y-87271063D01*
X150607910Y-87580823D01*
X135810810Y-87580823D01*
X135992035Y-87466952D01*
X136235761Y-87272587D01*
X136456193Y-87052155D01*
X136650558Y-86808429D01*
X136816412Y-86544473D01*
X136951670Y-86263607D01*
X137054630Y-85969364D01*
X137123998Y-85665442D01*
X137158902Y-85355665D01*
X137158902Y-85043927D01*
X137123998Y-84734150D01*
X137054630Y-84430228D01*
X137050263Y-84417749D01*
X137039481Y-84386936D01*
X146466297Y-84386936D01*
X146486057Y-84638008D01*
X146544848Y-84882892D01*
X146641225Y-85115567D01*
X146772813Y-85330298D01*
X146772821Y-85330310D01*
X146863862Y-85436906D01*
X146863863Y-85436906D01*
X147527798Y-84645657D01*
X147591126Y-84755344D01*
X147702837Y-84867055D01*
X147839654Y-84946047D01*
X147912145Y-84965471D01*
X147246888Y-85758294D01*
X147342613Y-85816955D01*
X147575288Y-85913332D01*
X147820172Y-85972123D01*
X148071245Y-85991883D01*
X148322317Y-85972123D01*
X148567201Y-85913332D01*
X148799876Y-85816955D01*
X149014605Y-85685369D01*
X149014606Y-85685368D01*
X149121214Y-85594316D01*
X148329968Y-84930382D01*
X148439653Y-84867055D01*
X148551364Y-84755344D01*
X148630356Y-84618527D01*
X148649780Y-84546033D01*
X149442603Y-85211291D01*
X149501264Y-85115567D01*
X149597641Y-84882892D01*
X149656432Y-84638008D01*
X149676192Y-84386936D01*
X149656432Y-84135863D01*
X149597641Y-83890979D01*
X149501264Y-83658304D01*
X149413679Y-83515378D01*
X156428244Y-83515378D01*
X156448004Y-83766450D01*
X156506795Y-84011334D01*
X156603172Y-84244009D01*
X156734760Y-84458740D01*
X156734768Y-84458752D01*
X156825809Y-84565348D01*
X156825810Y-84565348D01*
X157489745Y-83774099D01*
X157553073Y-83883786D01*
X157664784Y-83995497D01*
X157801601Y-84074489D01*
X157874092Y-84093913D01*
X157208835Y-84886736D01*
X157304560Y-84945397D01*
X157537235Y-85041774D01*
X157782119Y-85100565D01*
X158033192Y-85120325D01*
X158284264Y-85100565D01*
X158529148Y-85041774D01*
X158761823Y-84945397D01*
X158976552Y-84813811D01*
X158976553Y-84813810D01*
X159083161Y-84722758D01*
X158291915Y-84058824D01*
X158401600Y-83995497D01*
X158513311Y-83883786D01*
X158592303Y-83746969D01*
X158611727Y-83674475D01*
X159404550Y-84339733D01*
X159463211Y-84244009D01*
X159559588Y-84011334D01*
X159618379Y-83766450D01*
X159638139Y-83515378D01*
X159618379Y-83264305D01*
X159559588Y-83019421D01*
X159463211Y-82786746D01*
X159331625Y-82572017D01*
X159331624Y-82572016D01*
X159240572Y-82465407D01*
X158576637Y-83256653D01*
X158513311Y-83146970D01*
X158401600Y-83035259D01*
X158264783Y-82956267D01*
X158192288Y-82936842D01*
X158857547Y-82144018D01*
X158761821Y-82085358D01*
X158761815Y-82085355D01*
X158529148Y-81988981D01*
X158284264Y-81930190D01*
X158033192Y-81910430D01*
X157782119Y-81930190D01*
X157537235Y-81988981D01*
X157304560Y-82085358D01*
X157089835Y-82216942D01*
X157089826Y-82216948D01*
X156983221Y-82307996D01*
X157774469Y-82971931D01*
X157664784Y-83035259D01*
X157553073Y-83146970D01*
X157474081Y-83283787D01*
X157454656Y-83356280D01*
X156661832Y-82691021D01*
X156603172Y-82786748D01*
X156603169Y-82786754D01*
X156506795Y-83019421D01*
X156448004Y-83264305D01*
X156428244Y-83515378D01*
X149413679Y-83515378D01*
X149369678Y-83443575D01*
X149369677Y-83443574D01*
X149278625Y-83336965D01*
X148614690Y-84128211D01*
X148551364Y-84018528D01*
X148439653Y-83906817D01*
X148302836Y-83827825D01*
X148230341Y-83808400D01*
X148895600Y-83015576D01*
X148799874Y-82956916D01*
X148799868Y-82956913D01*
X148567201Y-82860539D01*
X148322317Y-82801748D01*
X148071245Y-82781988D01*
X147820172Y-82801748D01*
X147575288Y-82860539D01*
X147342613Y-82956916D01*
X147127888Y-83088500D01*
X147127879Y-83088506D01*
X147021274Y-83179554D01*
X147812522Y-83843489D01*
X147702837Y-83906817D01*
X147591126Y-84018528D01*
X147512134Y-84155345D01*
X147492709Y-84227838D01*
X146699885Y-83562579D01*
X146641225Y-83658306D01*
X146641222Y-83658312D01*
X146544848Y-83890979D01*
X146486057Y-84135863D01*
X146466297Y-84386936D01*
X137039481Y-84386936D01*
X136988534Y-84241336D01*
X136951670Y-84135985D01*
X136816412Y-83855119D01*
X136650558Y-83591163D01*
X136456193Y-83347437D01*
X136235761Y-83127005D01*
X136213904Y-83109575D01*
X136114774Y-83030521D01*
X135992035Y-82932640D01*
X135809736Y-82818094D01*
X135728076Y-82766784D01*
X135447216Y-82631529D01*
X135152981Y-82528571D01*
X135152969Y-82528567D01*
X134849051Y-82459200D01*
X134849035Y-82459198D01*
X134539275Y-82424296D01*
X134539271Y-82424296D01*
X134227533Y-82424296D01*
X134227529Y-82424296D01*
X133917768Y-82459198D01*
X133917752Y-82459200D01*
X133613834Y-82528567D01*
X133613822Y-82528571D01*
X133319587Y-82631529D01*
X133038727Y-82766784D01*
X132774770Y-82932639D01*
X132531043Y-83127004D01*
X132310610Y-83347437D01*
X132116245Y-83591164D01*
X131950390Y-83855121D01*
X131815135Y-84135981D01*
X131712177Y-84430216D01*
X131712173Y-84430228D01*
X131642806Y-84734146D01*
X131642804Y-84734162D01*
X131607902Y-85043922D01*
X95568188Y-85043922D01*
X95618411Y-84834728D01*
X95638177Y-84583580D01*
X95618411Y-84332432D01*
X95559601Y-84087469D01*
X95518439Y-83988094D01*
X95463194Y-83854720D01*
X95331567Y-83639926D01*
X95331566Y-83639923D01*
X95289921Y-83591163D01*
X95167952Y-83448356D01*
X95037530Y-83336965D01*
X94976384Y-83284741D01*
X94976381Y-83284740D01*
X94761587Y-83153113D01*
X94528838Y-83056706D01*
X94283879Y-82997897D01*
X94032728Y-82978131D01*
X93781576Y-82997897D01*
X93536617Y-83056706D01*
X93303868Y-83153113D01*
X93089074Y-83284740D01*
X93089071Y-83284741D01*
X92897504Y-83448356D01*
X92733889Y-83639923D01*
X92733888Y-83639926D01*
X92602261Y-83854720D01*
X92505854Y-84087469D01*
X92447045Y-84332428D01*
X92427279Y-84583580D01*
X90198284Y-84583580D01*
X90201209Y-84571397D01*
X90220969Y-84320327D01*
X90201209Y-84069254D01*
X90142418Y-83824370D01*
X90046041Y-83591695D01*
X89914453Y-83376964D01*
X89914450Y-83376959D01*
X89750889Y-83185454D01*
X89559390Y-83021899D01*
X89559381Y-83021893D01*
X89511124Y-82992320D01*
X89511123Y-82992320D01*
X89073986Y-83929764D01*
X88984430Y-83840208D01*
X88847613Y-83761216D01*
X88695013Y-83720327D01*
X88619960Y-83720327D01*
X89057991Y-82780970D01*
X88867093Y-82735139D01*
X88616022Y-82715379D01*
X88364949Y-82735139D01*
X88120065Y-82793930D01*
X87887390Y-82890307D01*
X87672659Y-83021895D01*
X87672654Y-83021898D01*
X87481149Y-83185459D01*
X87317599Y-83376952D01*
X87317584Y-83376973D01*
X87288015Y-83425223D01*
X87288015Y-83425224D01*
X88225461Y-83862360D01*
X88135903Y-83951919D01*
X88056911Y-84088736D01*
X88016022Y-84241336D01*
X88016022Y-84316386D01*
X87076665Y-83878356D01*
X87030834Y-84069255D01*
X87011074Y-84320327D01*
X84891884Y-84320327D01*
X82913049Y-78883520D01*
X89239309Y-78883520D01*
X89239309Y-79195267D01*
X89274211Y-79505027D01*
X89274213Y-79505043D01*
X89343580Y-79808961D01*
X89343584Y-79808973D01*
X89446542Y-80103208D01*
X89581797Y-80384068D01*
X89581799Y-80384071D01*
X89747653Y-80648027D01*
X89942018Y-80891753D01*
X90162450Y-81112185D01*
X90406176Y-81306550D01*
X90670132Y-81472404D01*
X90950998Y-81607662D01*
X91166899Y-81683209D01*
X91245229Y-81710618D01*
X91245241Y-81710622D01*
X91549163Y-81779990D01*
X91858935Y-81814893D01*
X91858936Y-81814894D01*
X91858940Y-81814894D01*
X92170682Y-81814894D01*
X92170682Y-81814893D01*
X92480455Y-81779990D01*
X92784377Y-81710622D01*
X93078620Y-81607662D01*
X93359486Y-81472404D01*
X93623442Y-81306550D01*
X93867168Y-81112185D01*
X94079228Y-80900125D01*
X96408001Y-80900125D01*
X96427761Y-81151197D01*
X96486552Y-81396081D01*
X96582929Y-81628756D01*
X96714517Y-81843487D01*
X96714520Y-81843492D01*
X96878079Y-82034994D01*
X97069581Y-82198553D01*
X97069582Y-82198554D01*
X97117845Y-82228129D01*
X97117846Y-82228129D01*
X97554982Y-81290685D01*
X97644541Y-81380244D01*
X97781358Y-81459236D01*
X97933958Y-81500125D01*
X98009008Y-81500125D01*
X97570978Y-82439480D01*
X97570979Y-82439481D01*
X97761877Y-82485312D01*
X98012949Y-82505072D01*
X98264021Y-82485312D01*
X98508905Y-82426521D01*
X98741580Y-82330144D01*
X98748723Y-82325767D01*
X127194552Y-82325767D01*
X127214312Y-82576839D01*
X127273103Y-82821723D01*
X127369480Y-83054398D01*
X127501068Y-83269129D01*
X127501071Y-83269134D01*
X127664630Y-83460636D01*
X127686551Y-83479359D01*
X127686552Y-83479359D01*
X128281854Y-82629177D01*
X128319381Y-82694175D01*
X128431092Y-82805886D01*
X128567909Y-82884878D01*
X128690244Y-82917657D01*
X128096072Y-83766226D01*
X128303541Y-83852162D01*
X128548427Y-83910954D01*
X128799500Y-83930714D01*
X129050572Y-83910954D01*
X129295456Y-83852163D01*
X129528131Y-83755786D01*
X129742862Y-83624198D01*
X129742874Y-83624190D01*
X129934358Y-83460648D01*
X129934367Y-83460639D01*
X129953092Y-83438713D01*
X129102912Y-82843411D01*
X129167908Y-82805886D01*
X129279619Y-82694175D01*
X129358611Y-82557358D01*
X129391391Y-82435020D01*
X130239958Y-83029192D01*
X130325897Y-82821718D01*
X130384687Y-82576839D01*
X130404447Y-82325767D01*
X130384687Y-82074694D01*
X130325896Y-81829810D01*
X130229519Y-81597135D01*
X130097931Y-81382404D01*
X130097928Y-81382399D01*
X129934369Y-81190897D01*
X129912447Y-81172173D01*
X129317144Y-82022353D01*
X129279619Y-81957359D01*
X129167908Y-81845648D01*
X129031091Y-81766656D01*
X128908752Y-81733875D01*
X129502925Y-80885307D01*
X129295455Y-80799370D01*
X129050572Y-80740579D01*
X128799500Y-80720819D01*
X128548427Y-80740579D01*
X128303543Y-80799370D01*
X128070868Y-80895747D01*
X127856137Y-81027335D01*
X127856125Y-81027343D01*
X127664632Y-81190893D01*
X127645906Y-81212818D01*
X127645906Y-81212819D01*
X128496088Y-81808122D01*
X128431092Y-81845648D01*
X128319381Y-81957359D01*
X128240389Y-82094176D01*
X128207608Y-82216513D01*
X127359040Y-81622340D01*
X127359039Y-81622340D01*
X127273104Y-81829807D01*
X127273104Y-81829809D01*
X127214312Y-82074694D01*
X127194552Y-82325767D01*
X98748723Y-82325767D01*
X98956311Y-82198556D01*
X98956316Y-82198553D01*
X99147818Y-82034994D01*
X99311370Y-81843500D01*
X99311379Y-81843488D01*
X99340953Y-81795227D01*
X98403510Y-81358090D01*
X98493068Y-81268533D01*
X98572060Y-81131716D01*
X98612949Y-80979116D01*
X98612949Y-80904064D01*
X99552304Y-81342094D01*
X99598136Y-81151195D01*
X99617896Y-80900125D01*
X99598136Y-80649052D01*
X99539345Y-80404168D01*
X99442968Y-80171493D01*
X99311380Y-79956762D01*
X99311377Y-79956757D01*
X99147816Y-79765252D01*
X98956317Y-79601697D01*
X98956308Y-79601691D01*
X98908051Y-79572118D01*
X98908050Y-79572118D01*
X98470913Y-80509562D01*
X98381357Y-80420006D01*
X98244540Y-80341014D01*
X98091940Y-80300125D01*
X98016887Y-80300125D01*
X98454918Y-79360768D01*
X98264020Y-79314937D01*
X98012949Y-79295177D01*
X97761876Y-79314937D01*
X97516992Y-79373728D01*
X97284317Y-79470105D01*
X97069586Y-79601693D01*
X97069581Y-79601696D01*
X96878076Y-79765257D01*
X96714526Y-79956750D01*
X96714511Y-79956771D01*
X96684942Y-80005021D01*
X96684942Y-80005022D01*
X97622388Y-80442158D01*
X97532830Y-80531717D01*
X97453838Y-80668534D01*
X97412949Y-80821134D01*
X97412949Y-80896184D01*
X96473592Y-80458154D01*
X96427761Y-80649053D01*
X96408001Y-80900125D01*
X94079228Y-80900125D01*
X94087600Y-80891753D01*
X94281965Y-80648027D01*
X94447819Y-80384071D01*
X94583077Y-80103205D01*
X94686037Y-79808962D01*
X94755405Y-79505040D01*
X94790309Y-79195263D01*
X94790309Y-78883525D01*
X94755405Y-78573748D01*
X94686037Y-78269826D01*
X94682416Y-78259479D01*
X94640434Y-78139500D01*
X94583077Y-77975583D01*
X94447819Y-77694717D01*
X94281965Y-77430761D01*
X94087600Y-77187035D01*
X93867168Y-76966603D01*
X93623442Y-76772238D01*
X93359486Y-76606384D01*
X93359483Y-76606382D01*
X93078623Y-76471127D01*
X92784388Y-76368169D01*
X92784376Y-76368165D01*
X92480458Y-76298798D01*
X92480442Y-76298796D01*
X92170682Y-76263894D01*
X92170678Y-76263894D01*
X91858940Y-76263894D01*
X91858936Y-76263894D01*
X91549175Y-76298796D01*
X91549159Y-76298798D01*
X91245241Y-76368165D01*
X91245229Y-76368169D01*
X90950994Y-76471127D01*
X90670134Y-76606382D01*
X90406177Y-76772237D01*
X90162450Y-76966602D01*
X89942017Y-77187035D01*
X89747652Y-77430762D01*
X89581797Y-77694719D01*
X89446542Y-77975579D01*
X89343584Y-78269814D01*
X89343580Y-78269826D01*
X89274213Y-78573744D01*
X89274211Y-78573760D01*
X89239309Y-78883520D01*
X82913049Y-78883520D01*
X81635546Y-75373609D01*
X81632293Y-75363292D01*
X81632035Y-75362329D01*
X81611311Y-75284978D01*
X105579012Y-75284978D01*
X105598772Y-75536050D01*
X105657563Y-75780934D01*
X105753940Y-76013609D01*
X105885528Y-76228340D01*
X105885531Y-76228345D01*
X106049090Y-76419847D01*
X106176995Y-76529090D01*
X106693211Y-75634975D01*
X106703841Y-75653386D01*
X106815552Y-75765097D01*
X106952369Y-75844089D01*
X107104969Y-75884978D01*
X107126223Y-75884978D01*
X106610018Y-76779070D01*
X106688009Y-76811375D01*
X106932887Y-76870165D01*
X107183960Y-76889925D01*
X107435032Y-76870165D01*
X107679916Y-76811374D01*
X107912591Y-76714997D01*
X108127322Y-76583409D01*
X108127327Y-76583406D01*
X108318829Y-76419848D01*
X108428071Y-76291940D01*
X107533959Y-75775725D01*
X107552368Y-75765097D01*
X107664079Y-75653386D01*
X107743071Y-75516569D01*
X107783960Y-75363969D01*
X107783960Y-75342712D01*
X108678052Y-75858917D01*
X108710355Y-75780934D01*
X108769147Y-75536049D01*
X108788907Y-75284978D01*
X108769147Y-75033905D01*
X108710356Y-74789021D01*
X108613979Y-74556346D01*
X108482391Y-74341615D01*
X108482388Y-74341610D01*
X108318829Y-74150108D01*
X108190923Y-74040864D01*
X107674706Y-74934977D01*
X107664079Y-74916570D01*
X107552368Y-74804859D01*
X107415551Y-74725867D01*
X107262951Y-74684978D01*
X107241693Y-74684978D01*
X107757899Y-73790884D01*
X107757899Y-73790883D01*
X107679916Y-73758581D01*
X107435032Y-73699790D01*
X107183960Y-73680030D01*
X106932887Y-73699790D01*
X106688003Y-73758581D01*
X106455328Y-73854958D01*
X106240597Y-73986546D01*
X106240592Y-73986549D01*
X106049090Y-74150108D01*
X106049084Y-74150114D01*
X105939846Y-74278013D01*
X106833961Y-74794230D01*
X106815552Y-74804859D01*
X106703841Y-74916570D01*
X106624849Y-75053387D01*
X106583960Y-75205987D01*
X106583960Y-75227242D01*
X105689865Y-74711037D01*
X105657564Y-74789018D01*
X105657564Y-74789020D01*
X105598772Y-75033905D01*
X105579012Y-75284978D01*
X81611311Y-75284978D01*
X81591411Y-75210704D01*
X81587660Y-75189420D01*
X81585776Y-75167875D01*
X81574371Y-75037481D01*
X81574371Y-75015878D01*
X81587668Y-74863924D01*
X81591422Y-74842642D01*
X81605791Y-74789021D01*
X81630903Y-74695309D01*
X81638289Y-74675017D01*
X81702759Y-74536768D01*
X81713555Y-74518070D01*
X81801054Y-74393111D01*
X81814936Y-74376570D01*
X81922795Y-74268715D01*
X81939343Y-74254829D01*
X82064294Y-74167341D01*
X82082999Y-74156541D01*
X82226400Y-74089675D01*
X82236353Y-74085552D01*
X82254332Y-74079009D01*
X82292986Y-74064941D01*
X82292987Y-74064940D01*
X94789081Y-69516735D01*
X94979025Y-69448531D01*
X95348217Y-69281204D01*
X95702657Y-69084549D01*
X96040019Y-68859855D01*
X96358091Y-68608595D01*
X96654786Y-68332420D01*
X96928157Y-68033139D01*
X97176412Y-67712716D01*
X97397921Y-67373254D01*
X97591231Y-67016979D01*
X97755076Y-66646228D01*
X97888378Y-66263434D01*
X97903473Y-66205310D01*
X103146042Y-66205310D01*
X103165802Y-66456382D01*
X103224593Y-66701266D01*
X103320970Y-66933941D01*
X103452558Y-67148672D01*
X103452561Y-67148677D01*
X103616120Y-67340179D01*
X103744025Y-67449422D01*
X104260241Y-66555307D01*
X104270871Y-66573718D01*
X104382582Y-66685429D01*
X104519399Y-66764421D01*
X104671999Y-66805310D01*
X104693253Y-66805310D01*
X104177048Y-67699402D01*
X104255039Y-67731707D01*
X104499917Y-67790497D01*
X104750990Y-67810257D01*
X105002062Y-67790497D01*
X105246946Y-67731706D01*
X105479621Y-67635329D01*
X105694352Y-67503741D01*
X105694357Y-67503738D01*
X105885859Y-67340180D01*
X105995101Y-67212272D01*
X105100989Y-66696057D01*
X105119398Y-66685429D01*
X105231109Y-66573718D01*
X105310101Y-66436901D01*
X105350990Y-66284301D01*
X105350990Y-66263044D01*
X106245082Y-66779249D01*
X106277385Y-66701266D01*
X106336177Y-66456381D01*
X106355937Y-66205310D01*
X106336177Y-65954237D01*
X106277386Y-65709353D01*
X106181009Y-65476678D01*
X106049421Y-65261947D01*
X106049418Y-65261942D01*
X105885859Y-65070440D01*
X105757953Y-64961196D01*
X105241736Y-65855309D01*
X105231109Y-65836902D01*
X105119398Y-65725191D01*
X104982581Y-65646199D01*
X104829981Y-65605310D01*
X104808723Y-65605310D01*
X105324929Y-64711216D01*
X105324929Y-64711215D01*
X105246946Y-64678913D01*
X105002062Y-64620122D01*
X104750990Y-64600362D01*
X104499917Y-64620122D01*
X104255033Y-64678913D01*
X104022358Y-64775290D01*
X103807627Y-64906878D01*
X103807622Y-64906881D01*
X103616120Y-65070440D01*
X103616114Y-65070446D01*
X103506876Y-65198345D01*
X104400991Y-65714562D01*
X104382582Y-65725191D01*
X104270871Y-65836902D01*
X104191879Y-65973719D01*
X104150990Y-66126319D01*
X104150990Y-66147574D01*
X103256895Y-65631369D01*
X103224594Y-65709350D01*
X103224594Y-65709352D01*
X103165802Y-65954237D01*
X103146042Y-66205310D01*
X97903473Y-66205310D01*
X97990265Y-65871108D01*
X98060068Y-65471823D01*
X98097328Y-65068198D01*
X98098774Y-64939747D01*
X98098796Y-64939475D01*
X98099050Y-64916502D01*
X98099050Y-64916499D01*
X98100438Y-64790691D01*
X98100436Y-64790648D01*
X98100605Y-64775290D01*
X98141278Y-61084823D01*
X105821607Y-61084823D01*
X105821607Y-61396570D01*
X105856509Y-61706330D01*
X105856511Y-61706346D01*
X105925878Y-62010264D01*
X105925882Y-62010276D01*
X106028840Y-62304511D01*
X106164095Y-62585371D01*
X106164097Y-62585374D01*
X106329951Y-62849330D01*
X106524316Y-63093056D01*
X106744748Y-63313488D01*
X106988474Y-63507853D01*
X107252430Y-63673707D01*
X107533296Y-63808965D01*
X107754281Y-63886291D01*
X107827527Y-63911921D01*
X107827539Y-63911925D01*
X108131461Y-63981293D01*
X108441233Y-64016196D01*
X108441234Y-64016197D01*
X108441238Y-64016197D01*
X108752980Y-64016197D01*
X108752980Y-64016196D01*
X109062753Y-63981293D01*
X109366675Y-63911925D01*
X109660918Y-63808965D01*
X109941784Y-63673707D01*
X110031842Y-63617120D01*
X112805301Y-63617120D01*
X112825061Y-63868192D01*
X112883852Y-64113076D01*
X112980229Y-64345751D01*
X113111817Y-64560482D01*
X113111820Y-64560487D01*
X113275379Y-64751989D01*
X113403284Y-64861232D01*
X113919500Y-63967117D01*
X113930130Y-63985528D01*
X114041841Y-64097239D01*
X114178658Y-64176231D01*
X114331258Y-64217120D01*
X114352512Y-64217120D01*
X113836307Y-65111212D01*
X113914298Y-65143517D01*
X114159176Y-65202307D01*
X114410249Y-65222067D01*
X114661321Y-65202307D01*
X114906205Y-65143516D01*
X115138880Y-65047139D01*
X115353611Y-64915551D01*
X115353616Y-64915548D01*
X115545118Y-64751990D01*
X115654360Y-64624082D01*
X114760248Y-64107867D01*
X114778657Y-64097239D01*
X114890368Y-63985528D01*
X114969360Y-63848711D01*
X115010249Y-63696111D01*
X115010249Y-63674854D01*
X115904341Y-64191059D01*
X115936644Y-64113076D01*
X115995436Y-63868191D01*
X116015196Y-63617120D01*
X115995436Y-63366047D01*
X115936645Y-63121163D01*
X115840268Y-62888488D01*
X115708680Y-62673757D01*
X115708677Y-62673752D01*
X115545118Y-62482250D01*
X115417212Y-62373006D01*
X114900995Y-63267119D01*
X114890368Y-63248712D01*
X114778657Y-63137001D01*
X114641840Y-63058009D01*
X114489240Y-63017120D01*
X114467982Y-63017120D01*
X114984188Y-62123026D01*
X114984188Y-62123025D01*
X114906205Y-62090723D01*
X114661321Y-62031932D01*
X114410249Y-62012172D01*
X114159176Y-62031932D01*
X113914292Y-62090723D01*
X113681617Y-62187100D01*
X113466886Y-62318688D01*
X113466881Y-62318691D01*
X113275379Y-62482250D01*
X113275373Y-62482256D01*
X113166135Y-62610155D01*
X114060250Y-63126372D01*
X114041841Y-63137001D01*
X113930130Y-63248712D01*
X113851138Y-63385529D01*
X113810249Y-63538129D01*
X113810249Y-63559384D01*
X112916154Y-63043179D01*
X112883853Y-63121160D01*
X112883853Y-63121162D01*
X112825061Y-63366047D01*
X112805301Y-63617120D01*
X110031842Y-63617120D01*
X110205740Y-63507853D01*
X110449466Y-63313488D01*
X110669898Y-63093056D01*
X110864263Y-62849330D01*
X111030117Y-62585374D01*
X111165375Y-62304508D01*
X111268335Y-62010265D01*
X111337703Y-61706343D01*
X111372607Y-61396566D01*
X111372607Y-61084828D01*
X111337703Y-60775051D01*
X111268335Y-60471129D01*
X111165375Y-60176886D01*
X111030117Y-59896020D01*
X110864263Y-59632064D01*
X110669898Y-59388338D01*
X110449466Y-59167906D01*
X110418420Y-59143148D01*
X110327523Y-59070660D01*
X110205740Y-58973541D01*
X109941784Y-58807687D01*
X109941781Y-58807685D01*
X109660921Y-58672430D01*
X109366686Y-58569472D01*
X109366674Y-58569468D01*
X109062756Y-58500101D01*
X109062740Y-58500099D01*
X108752980Y-58465197D01*
X108752976Y-58465197D01*
X108441238Y-58465197D01*
X108441234Y-58465197D01*
X108131473Y-58500099D01*
X108131457Y-58500101D01*
X107827539Y-58569468D01*
X107827527Y-58569472D01*
X107533292Y-58672430D01*
X107252432Y-58807685D01*
X106988475Y-58973540D01*
X106744748Y-59167905D01*
X106524315Y-59388338D01*
X106329950Y-59632065D01*
X106164095Y-59896022D01*
X106028840Y-60176882D01*
X105925882Y-60471117D01*
X105925878Y-60471129D01*
X105856511Y-60775047D01*
X105856509Y-60775063D01*
X105821607Y-61084823D01*
X98141278Y-61084823D01*
X98191712Y-56508741D01*
X98192366Y-56497330D01*
X98209639Y-56330988D01*
X98210469Y-56326805D01*
X122610280Y-56326805D01*
X122630040Y-56577877D01*
X122688831Y-56822761D01*
X122785208Y-57055436D01*
X122916796Y-57270167D01*
X122916799Y-57270172D01*
X123080358Y-57461674D01*
X123102279Y-57480397D01*
X123102280Y-57480397D01*
X123697582Y-56630215D01*
X123735109Y-56695213D01*
X123846820Y-56806924D01*
X123983637Y-56885916D01*
X124105972Y-56918695D01*
X123511800Y-57767264D01*
X123719269Y-57853200D01*
X123964155Y-57911992D01*
X124215228Y-57931752D01*
X124466300Y-57911992D01*
X124711184Y-57853201D01*
X124943859Y-57756824D01*
X125158590Y-57625236D01*
X125158602Y-57625228D01*
X125350086Y-57461686D01*
X125350095Y-57461677D01*
X125368820Y-57439751D01*
X124518640Y-56844449D01*
X124583636Y-56806924D01*
X124695347Y-56695213D01*
X124774339Y-56558396D01*
X124807119Y-56436058D01*
X125655686Y-57030230D01*
X125741625Y-56822756D01*
X125800415Y-56577877D01*
X125820175Y-56326805D01*
X125800415Y-56075732D01*
X125741624Y-55830848D01*
X125645247Y-55598173D01*
X125513659Y-55383442D01*
X125513656Y-55383437D01*
X125350097Y-55191935D01*
X125328175Y-55173211D01*
X124732872Y-56023391D01*
X124695347Y-55958397D01*
X124583636Y-55846686D01*
X124446819Y-55767694D01*
X124324480Y-55734913D01*
X124918653Y-54886345D01*
X124711183Y-54800408D01*
X124466300Y-54741617D01*
X124215228Y-54721857D01*
X123964155Y-54741617D01*
X123719271Y-54800408D01*
X123486596Y-54896785D01*
X123271865Y-55028373D01*
X123271853Y-55028381D01*
X123080360Y-55191931D01*
X123061634Y-55213856D01*
X123061634Y-55213857D01*
X123911816Y-55809160D01*
X123846820Y-55846686D01*
X123735109Y-55958397D01*
X123656117Y-56095214D01*
X123623336Y-56217551D01*
X122774768Y-55623378D01*
X122774767Y-55623378D01*
X122688832Y-55830845D01*
X122688832Y-55830847D01*
X122630040Y-56075732D01*
X122610280Y-56326805D01*
X98210469Y-56326805D01*
X98214087Y-56308564D01*
X98259983Y-56153754D01*
X98268471Y-56132540D01*
X98342020Y-55988801D01*
X98354261Y-55969502D01*
X98452971Y-55841708D01*
X98468548Y-55824990D01*
X98589040Y-55717514D01*
X98607434Y-55703933D01*
X98745615Y-55620422D01*
X98766188Y-55610451D01*
X98922290Y-55551892D01*
X98933708Y-55548230D01*
X102508666Y-54590324D01*
X132458358Y-54590324D01*
X132478118Y-54841396D01*
X132536909Y-55086280D01*
X132633286Y-55318955D01*
X132764874Y-55533686D01*
X132764877Y-55533691D01*
X132928436Y-55725193D01*
X132950357Y-55743916D01*
X132950358Y-55743916D01*
X133545660Y-54893734D01*
X133583187Y-54958732D01*
X133694898Y-55070443D01*
X133831715Y-55149435D01*
X133954050Y-55182214D01*
X133359878Y-56030783D01*
X133567347Y-56116719D01*
X133812233Y-56175511D01*
X134063306Y-56195271D01*
X134314378Y-56175511D01*
X134559262Y-56116720D01*
X134791937Y-56020343D01*
X135006668Y-55888755D01*
X135006680Y-55888747D01*
X135198164Y-55725205D01*
X135198173Y-55725196D01*
X135216898Y-55703270D01*
X134366718Y-55107968D01*
X134431714Y-55070443D01*
X134543425Y-54958732D01*
X134622417Y-54821915D01*
X134655197Y-54699577D01*
X135503764Y-55293749D01*
X135589703Y-55086275D01*
X135648493Y-54841396D01*
X135668253Y-54590324D01*
X135648493Y-54339251D01*
X135589702Y-54094367D01*
X135493325Y-53861692D01*
X135400506Y-53710226D01*
X147644602Y-53710226D01*
X147644602Y-54021973D01*
X147679504Y-54331733D01*
X147679506Y-54331749D01*
X147748873Y-54635667D01*
X147748877Y-54635679D01*
X147851835Y-54929914D01*
X147987090Y-55210774D01*
X148010966Y-55248773D01*
X148152946Y-55474733D01*
X148347311Y-55718459D01*
X148567743Y-55938891D01*
X148811469Y-56133256D01*
X149075425Y-56299110D01*
X149356291Y-56434368D01*
X149552439Y-56503003D01*
X149650522Y-56537324D01*
X149650534Y-56537328D01*
X149954456Y-56606696D01*
X150264228Y-56641599D01*
X150264229Y-56641600D01*
X150264233Y-56641600D01*
X150575975Y-56641600D01*
X150575975Y-56641599D01*
X150885748Y-56606696D01*
X151189670Y-56537328D01*
X151483913Y-56434368D01*
X151764779Y-56299110D01*
X152028735Y-56133256D01*
X152272461Y-55938891D01*
X152492893Y-55718459D01*
X152687258Y-55474733D01*
X152853112Y-55210777D01*
X152988370Y-54929911D01*
X153091330Y-54635668D01*
X153160698Y-54331746D01*
X153195602Y-54021969D01*
X153195602Y-53710231D01*
X153160698Y-53400454D01*
X153091330Y-53096532D01*
X152988370Y-52802289D01*
X152853112Y-52521423D01*
X152687258Y-52257467D01*
X152492893Y-52013741D01*
X152272461Y-51793309D01*
X152028735Y-51598944D01*
X151764779Y-51433090D01*
X151764776Y-51433088D01*
X151483916Y-51297833D01*
X151189681Y-51194875D01*
X151189669Y-51194871D01*
X150885751Y-51125504D01*
X150885735Y-51125502D01*
X150575975Y-51090600D01*
X150575971Y-51090600D01*
X150264233Y-51090600D01*
X150264229Y-51090600D01*
X149954468Y-51125502D01*
X149954452Y-51125504D01*
X149650534Y-51194871D01*
X149650522Y-51194875D01*
X149356287Y-51297833D01*
X149075427Y-51433088D01*
X148811470Y-51598943D01*
X148567743Y-51793308D01*
X148347310Y-52013741D01*
X148152945Y-52257468D01*
X147987090Y-52521425D01*
X147851835Y-52802285D01*
X147748877Y-53096520D01*
X147748873Y-53096532D01*
X147679506Y-53400450D01*
X147679504Y-53400466D01*
X147644602Y-53710226D01*
X135400506Y-53710226D01*
X135361737Y-53646961D01*
X135361734Y-53646956D01*
X135198175Y-53455454D01*
X135176253Y-53436730D01*
X134580950Y-54286910D01*
X134543425Y-54221916D01*
X134431714Y-54110205D01*
X134294897Y-54031213D01*
X134172558Y-53998432D01*
X134766731Y-53149864D01*
X134559261Y-53063927D01*
X134314378Y-53005136D01*
X134063306Y-52985376D01*
X133812233Y-53005136D01*
X133567349Y-53063927D01*
X133334674Y-53160304D01*
X133119943Y-53291892D01*
X133119931Y-53291900D01*
X132928438Y-53455450D01*
X132909712Y-53477375D01*
X132909712Y-53477376D01*
X133759894Y-54072679D01*
X133694898Y-54110205D01*
X133583187Y-54221916D01*
X133504195Y-54358733D01*
X133471414Y-54481070D01*
X132622846Y-53886897D01*
X132622845Y-53886897D01*
X132536910Y-54094364D01*
X132536910Y-54094366D01*
X132478118Y-54339251D01*
X132458358Y-54590324D01*
X102508666Y-54590324D01*
X113248019Y-51712726D01*
X113248028Y-51712725D01*
X113255868Y-51710624D01*
X113299305Y-51698984D01*
X113299309Y-51698984D01*
X113299309Y-51698983D01*
X113392945Y-51673894D01*
X113392945Y-51673897D01*
X113392957Y-51673890D01*
X113483047Y-51649760D01*
X113518710Y-51640209D01*
X113518713Y-51640207D01*
X113518724Y-51640205D01*
X113741257Y-51560421D01*
X125703904Y-51560421D01*
X125703904Y-51872168D01*
X125738806Y-52181928D01*
X125738808Y-52181944D01*
X125808175Y-52485862D01*
X125808179Y-52485874D01*
X125911137Y-52780109D01*
X126046392Y-53060969D01*
X126046394Y-53060972D01*
X126212248Y-53324928D01*
X126406613Y-53568654D01*
X126627045Y-53789086D01*
X126870771Y-53983451D01*
X127134727Y-54149305D01*
X127415593Y-54284563D01*
X127627559Y-54358733D01*
X127709824Y-54387519D01*
X127709836Y-54387523D01*
X128013758Y-54456891D01*
X128323530Y-54491794D01*
X128323531Y-54491795D01*
X128323535Y-54491795D01*
X128635277Y-54491795D01*
X128635277Y-54491794D01*
X128945050Y-54456891D01*
X129248972Y-54387523D01*
X129543215Y-54284563D01*
X129824081Y-54149305D01*
X130088037Y-53983451D01*
X130331763Y-53789086D01*
X130552195Y-53568654D01*
X130746560Y-53324928D01*
X130912414Y-53060972D01*
X131047672Y-52780106D01*
X131150632Y-52485863D01*
X131220000Y-52181941D01*
X131254904Y-51872164D01*
X131254904Y-51560426D01*
X131220000Y-51250649D01*
X131150632Y-50946727D01*
X131134012Y-50899231D01*
X131095419Y-50788937D01*
X131047672Y-50652484D01*
X130957500Y-50465240D01*
X130912415Y-50371620D01*
X130912414Y-50371618D01*
X130746560Y-50107662D01*
X130552195Y-49863936D01*
X130331763Y-49643504D01*
X130088037Y-49449139D01*
X129824081Y-49283285D01*
X129824078Y-49283283D01*
X129543218Y-49148028D01*
X129248983Y-49045070D01*
X129248971Y-49045066D01*
X128945053Y-48975699D01*
X128945037Y-48975697D01*
X128635277Y-48940795D01*
X128635273Y-48940795D01*
X128323535Y-48940795D01*
X128323531Y-48940795D01*
X128013770Y-48975697D01*
X128013754Y-48975699D01*
X127709836Y-49045066D01*
X127709824Y-49045070D01*
X127415589Y-49148028D01*
X127134729Y-49283283D01*
X126870772Y-49449138D01*
X126627045Y-49643503D01*
X126406612Y-49863936D01*
X126212247Y-50107663D01*
X126046392Y-50371620D01*
X125911137Y-50652480D01*
X125808179Y-50946715D01*
X125808175Y-50946727D01*
X125738808Y-51250645D01*
X125738806Y-51250661D01*
X125703904Y-51560421D01*
X113741257Y-51560421D01*
X113906991Y-51501001D01*
X114056376Y-51433088D01*
X114282466Y-51330304D01*
X114282469Y-51330302D01*
X114282467Y-51330302D01*
X114282476Y-51330299D01*
X114642630Y-51129258D01*
X114985006Y-50899243D01*
X115307280Y-50641817D01*
X115607261Y-50358728D01*
X115882914Y-50051899D01*
X116132365Y-49723414D01*
X116353920Y-49375503D01*
X116431699Y-49227728D01*
X116446554Y-49199506D01*
X116446563Y-49199488D01*
X116446568Y-49199479D01*
X116449977Y-49193006D01*
X116480674Y-49134701D01*
X116480674Y-49134700D01*
X116485288Y-49125937D01*
X116485297Y-49125915D01*
X118205358Y-45858721D01*
X118205414Y-45858635D01*
X118218119Y-45834494D01*
X118238234Y-45796279D01*
X118242908Y-45788160D01*
X118316061Y-45671608D01*
X118327240Y-45656483D01*
X118414080Y-45555955D01*
X118427426Y-45542691D01*
X118528481Y-45456472D01*
X118543678Y-45445384D01*
X118656622Y-45375457D01*
X118673321Y-45366798D01*
X118795548Y-45314776D01*
X118813369Y-45308743D01*
X118946817Y-45274610D01*
X118956008Y-45272628D01*
X119016097Y-45262041D01*
X119016100Y-45262039D01*
X119024439Y-45260570D01*
X119024565Y-45260538D01*
X135154014Y-42416471D01*
X135154066Y-42416467D01*
X135164430Y-42414638D01*
X135164432Y-42414639D01*
X135224678Y-42404012D01*
X135233977Y-42402734D01*
X135370940Y-42389188D01*
X135389737Y-42388764D01*
X135522414Y-42395854D01*
G37*
G04 #@! TD.AperFunction*
G04 #@! TA.AperFunction,Conductor*
G36*
X203949441Y-58070468D02*
G01*
X203949445Y-58070470D01*
X203974106Y-58070470D01*
X204033906Y-58070470D01*
X204046060Y-58071067D01*
X204193576Y-58085596D01*
X204217416Y-58090338D01*
X204248405Y-58099738D01*
X204353411Y-58131590D01*
X204375859Y-58140888D01*
X204501201Y-58207882D01*
X204521400Y-58221379D01*
X204631259Y-58311535D01*
X204648442Y-58328718D01*
X204738602Y-58438573D01*
X204752105Y-58458781D01*
X204774193Y-58500101D01*
X204819097Y-58584108D01*
X204828400Y-58606565D01*
X204869656Y-58742555D01*
X204874399Y-58766395D01*
X204888904Y-58913619D01*
X204889501Y-58925777D01*
X204889505Y-90847439D01*
X204889500Y-90847551D01*
X204889506Y-90913928D01*
X204888910Y-90926083D01*
X204874394Y-91073595D01*
X204869653Y-91097439D01*
X204828412Y-91233423D01*
X204819109Y-91255884D01*
X204752126Y-91381212D01*
X204738621Y-91401426D01*
X204648475Y-91511274D01*
X204631285Y-91528464D01*
X204521439Y-91618612D01*
X204501225Y-91632118D01*
X204375905Y-91699100D01*
X204353445Y-91708403D01*
X204217459Y-91749648D01*
X204193614Y-91754390D01*
X204046565Y-91768863D01*
X204034413Y-91769459D01*
X203992423Y-91769457D01*
X203974148Y-91769456D01*
X203974146Y-91769456D01*
X203967753Y-91769456D01*
X203967677Y-91769460D01*
X187046078Y-91769460D01*
X187033922Y-91768863D01*
X186886401Y-91754331D01*
X186862560Y-91749588D01*
X186726574Y-91708335D01*
X186704118Y-91699034D01*
X186578783Y-91632042D01*
X186558572Y-91618537D01*
X186448721Y-91528387D01*
X186431533Y-91511200D01*
X186402207Y-91475468D01*
X186341373Y-91401344D01*
X186327870Y-91381135D01*
X186304416Y-91337260D01*
X186260876Y-91255808D01*
X186251574Y-91233353D01*
X186249206Y-91225549D01*
X186210315Y-91097361D01*
X186205573Y-91073524D01*
X186191104Y-90926701D01*
X186190508Y-90914582D01*
X186190504Y-84439787D01*
X186210189Y-84372749D01*
X186262992Y-84326994D01*
X186332151Y-84317050D01*
X186338588Y-84319290D01*
X186376560Y-84332433D01*
X186458209Y-84379574D01*
X186458210Y-84379574D01*
X186458215Y-84379577D01*
X186610942Y-84420500D01*
X186610943Y-84420500D01*
X186642609Y-84420500D01*
X186709648Y-84440185D01*
X186755403Y-84492989D01*
X186765347Y-84562147D01*
X186754991Y-84596905D01*
X186733261Y-84643502D01*
X186733258Y-84643511D01*
X186674366Y-84863302D01*
X186674364Y-84863313D01*
X186654532Y-85089998D01*
X186654532Y-85090001D01*
X186674364Y-85316686D01*
X186674366Y-85316697D01*
X186733258Y-85536488D01*
X186733261Y-85536497D01*
X186829431Y-85742732D01*
X186829432Y-85742734D01*
X186959954Y-85929141D01*
X187120858Y-86090045D01*
X187120861Y-86090047D01*
X187307266Y-86220568D01*
X187365275Y-86247618D01*
X187417714Y-86293791D01*
X187436866Y-86360984D01*
X187416650Y-86427865D01*
X187365275Y-86472382D01*
X187307267Y-86499431D01*
X187307265Y-86499432D01*
X187120858Y-86629954D01*
X186959954Y-86790858D01*
X186829432Y-86977265D01*
X186829431Y-86977267D01*
X186733261Y-87183502D01*
X186733258Y-87183511D01*
X186674366Y-87403302D01*
X186674364Y-87403313D01*
X186654532Y-87629998D01*
X186654532Y-87630001D01*
X186674364Y-87856686D01*
X186674366Y-87856697D01*
X186733258Y-88076488D01*
X186733261Y-88076497D01*
X186829431Y-88282732D01*
X186829432Y-88282734D01*
X186959954Y-88469141D01*
X187120858Y-88630045D01*
X187120861Y-88630047D01*
X187307266Y-88760568D01*
X187365275Y-88787618D01*
X187417714Y-88833791D01*
X187436866Y-88900984D01*
X187416650Y-88967865D01*
X187365275Y-89012382D01*
X187307267Y-89039431D01*
X187307265Y-89039432D01*
X187120858Y-89169954D01*
X186959954Y-89330858D01*
X186829432Y-89517265D01*
X186829431Y-89517267D01*
X186733261Y-89723502D01*
X186733258Y-89723511D01*
X186674366Y-89943302D01*
X186674364Y-89943313D01*
X186654532Y-90169998D01*
X186654532Y-90170001D01*
X186674364Y-90396686D01*
X186674366Y-90396697D01*
X186733258Y-90616488D01*
X186733261Y-90616497D01*
X186829431Y-90822732D01*
X186829432Y-90822734D01*
X186959954Y-91009141D01*
X187120858Y-91170045D01*
X187120861Y-91170047D01*
X187307266Y-91300568D01*
X187513504Y-91396739D01*
X187733308Y-91455635D01*
X187895230Y-91469801D01*
X187959998Y-91475468D01*
X187960000Y-91475468D01*
X187960002Y-91475468D01*
X188016673Y-91470509D01*
X188186692Y-91455635D01*
X188406496Y-91396739D01*
X188612734Y-91300568D01*
X188799139Y-91170047D01*
X188960047Y-91009139D01*
X189090568Y-90822734D01*
X189186739Y-90616496D01*
X189245635Y-90396692D01*
X189265468Y-90170000D01*
X189265442Y-90169708D01*
X189250932Y-90003853D01*
X189245635Y-89943308D01*
X189186739Y-89723504D01*
X189090568Y-89517266D01*
X188960047Y-89330861D01*
X188960045Y-89330858D01*
X188799141Y-89169954D01*
X188612734Y-89039432D01*
X188612728Y-89039429D01*
X188554725Y-89012382D01*
X188502285Y-88966210D01*
X188483133Y-88899017D01*
X188503348Y-88832135D01*
X188554725Y-88787618D01*
X188612734Y-88760568D01*
X188799139Y-88630047D01*
X188960047Y-88469139D01*
X189090568Y-88282734D01*
X189186739Y-88076496D01*
X189245635Y-87856692D01*
X189265468Y-87630000D01*
X189265069Y-87625445D01*
X189248799Y-87439472D01*
X189245635Y-87403308D01*
X189186739Y-87183504D01*
X189090568Y-86977266D01*
X188960047Y-86790861D01*
X188960045Y-86790858D01*
X188799141Y-86629954D01*
X188612734Y-86499432D01*
X188612728Y-86499429D01*
X188554725Y-86472382D01*
X188502285Y-86426210D01*
X188483133Y-86359017D01*
X188503348Y-86292135D01*
X188554725Y-86247618D01*
X188612734Y-86220568D01*
X188799139Y-86090047D01*
X188960047Y-85929139D01*
X189090568Y-85742734D01*
X189186739Y-85536496D01*
X189186741Y-85536488D01*
X189186742Y-85536486D01*
X189189376Y-85526656D01*
X189225740Y-85466995D01*
X189288586Y-85436465D01*
X189357962Y-85444759D01*
X189396832Y-85471067D01*
X194460132Y-90534367D01*
X194460142Y-90534378D01*
X194464472Y-90538708D01*
X194464473Y-90538709D01*
X194576277Y-90650513D01*
X194621516Y-90676631D01*
X194663088Y-90700632D01*
X194663090Y-90700634D01*
X194713206Y-90729569D01*
X194713208Y-90729570D01*
X194865935Y-90770493D01*
X194865936Y-90770493D01*
X201968320Y-90770493D01*
X202035359Y-90790178D01*
X202069892Y-90823368D01*
X202138013Y-90920654D01*
X202199964Y-91009131D01*
X202360868Y-91170035D01*
X202360871Y-91170037D01*
X202547276Y-91300558D01*
X202753514Y-91396729D01*
X202753519Y-91396730D01*
X202753521Y-91396731D01*
X202806259Y-91410862D01*
X202973318Y-91455625D01*
X203135240Y-91469791D01*
X203200008Y-91475458D01*
X203200010Y-91475458D01*
X203200012Y-91475458D01*
X203256683Y-91470499D01*
X203426702Y-91455625D01*
X203646506Y-91396729D01*
X203852744Y-91300558D01*
X204039149Y-91170037D01*
X204200057Y-91009129D01*
X204330578Y-90822724D01*
X204426749Y-90616486D01*
X204485645Y-90396682D01*
X204505478Y-90169990D01*
X204505453Y-90169708D01*
X204495929Y-90060845D01*
X204485645Y-89943298D01*
X204426749Y-89723494D01*
X204330578Y-89517256D01*
X204200057Y-89330851D01*
X204200055Y-89330848D01*
X204039151Y-89169944D01*
X203852744Y-89039422D01*
X203852738Y-89039419D01*
X203823896Y-89025970D01*
X203794734Y-89012371D01*
X203742295Y-88966200D01*
X203723143Y-88899007D01*
X203743358Y-88832125D01*
X203794735Y-88787608D01*
X203852744Y-88760558D01*
X204039149Y-88630037D01*
X204200057Y-88469129D01*
X204330578Y-88282724D01*
X204426749Y-88076486D01*
X204485645Y-87856682D01*
X204505478Y-87629990D01*
X204505080Y-87625445D01*
X204495855Y-87519996D01*
X204485645Y-87403298D01*
X204426749Y-87183494D01*
X204330578Y-86977256D01*
X204200057Y-86790851D01*
X204200055Y-86790848D01*
X204039151Y-86629944D01*
X203852744Y-86499422D01*
X203852738Y-86499419D01*
X203825048Y-86486507D01*
X203794734Y-86472371D01*
X203742295Y-86426200D01*
X203723143Y-86359007D01*
X203743358Y-86292125D01*
X203794735Y-86247608D01*
X203852744Y-86220558D01*
X204039149Y-86090037D01*
X204200057Y-85929129D01*
X204330578Y-85742724D01*
X204426749Y-85536486D01*
X204485645Y-85316682D01*
X204505478Y-85089990D01*
X204485645Y-84863298D01*
X204426749Y-84643494D01*
X204330578Y-84437256D01*
X204200057Y-84250851D01*
X204200055Y-84250848D01*
X204039151Y-84089944D01*
X203852744Y-83959422D01*
X203852738Y-83959419D01*
X203794735Y-83932372D01*
X203742295Y-83886200D01*
X203723143Y-83819007D01*
X203743358Y-83752125D01*
X203794735Y-83707608D01*
X203852744Y-83680558D01*
X204039149Y-83550037D01*
X204200057Y-83389129D01*
X204330578Y-83202724D01*
X204426749Y-82996486D01*
X204485645Y-82776682D01*
X204505478Y-82549990D01*
X204485645Y-82323298D01*
X204430015Y-82115682D01*
X204426751Y-82103501D01*
X204426748Y-82103492D01*
X204418292Y-82085358D01*
X204330578Y-81897256D01*
X204209375Y-81724158D01*
X204200055Y-81710848D01*
X204039151Y-81549944D01*
X203852744Y-81419422D01*
X203852738Y-81419419D01*
X203794735Y-81392372D01*
X203742295Y-81346200D01*
X203723143Y-81279007D01*
X203743358Y-81212125D01*
X203794735Y-81167608D01*
X203852744Y-81140558D01*
X204039149Y-81010037D01*
X204200057Y-80849129D01*
X204330578Y-80662724D01*
X204426749Y-80456486D01*
X204485645Y-80236682D01*
X204505478Y-80009990D01*
X204505043Y-80005022D01*
X204499811Y-79945220D01*
X204485645Y-79783298D01*
X204426749Y-79563494D01*
X204330578Y-79357256D01*
X204200057Y-79170851D01*
X204200055Y-79170848D01*
X204039151Y-79009944D01*
X203852744Y-78879422D01*
X203852738Y-78879419D01*
X203794735Y-78852372D01*
X203742295Y-78806200D01*
X203723143Y-78739007D01*
X203743358Y-78672125D01*
X203794735Y-78627608D01*
X203852744Y-78600558D01*
X204039149Y-78470037D01*
X204200057Y-78309129D01*
X204330578Y-78122724D01*
X204426749Y-77916486D01*
X204485645Y-77696682D01*
X204505478Y-77469990D01*
X204485645Y-77243298D01*
X204426749Y-77023494D01*
X204330578Y-76817256D01*
X204200057Y-76630851D01*
X204200055Y-76630848D01*
X204039151Y-76469944D01*
X203852744Y-76339422D01*
X203852738Y-76339419D01*
X203825048Y-76326507D01*
X203794734Y-76312371D01*
X203742295Y-76266200D01*
X203723143Y-76199007D01*
X203743358Y-76132125D01*
X203794735Y-76087608D01*
X203802168Y-76084142D01*
X203852744Y-76060558D01*
X204039149Y-75930037D01*
X204200057Y-75769129D01*
X204330578Y-75582724D01*
X204426749Y-75376486D01*
X204485645Y-75156682D01*
X204505478Y-74929990D01*
X204504674Y-74920805D01*
X204497836Y-74842642D01*
X204485645Y-74703298D01*
X204426749Y-74483494D01*
X204330578Y-74277256D01*
X204200057Y-74090851D01*
X204200055Y-74090848D01*
X204039151Y-73929944D01*
X203852744Y-73799422D01*
X203852738Y-73799419D01*
X203794735Y-73772372D01*
X203742295Y-73726200D01*
X203723143Y-73659007D01*
X203743358Y-73592125D01*
X203794735Y-73547608D01*
X203852744Y-73520558D01*
X204039149Y-73390037D01*
X204200057Y-73229129D01*
X204330578Y-73042724D01*
X204426749Y-72836486D01*
X204485645Y-72616682D01*
X204505478Y-72389990D01*
X204485645Y-72163298D01*
X204431825Y-71962439D01*
X204426751Y-71943501D01*
X204426748Y-71943492D01*
X204388816Y-71862147D01*
X204330578Y-71737256D01*
X204214147Y-71570974D01*
X204200055Y-71550848D01*
X204039151Y-71389944D01*
X203852744Y-71259422D01*
X203852738Y-71259419D01*
X203825048Y-71246507D01*
X203794734Y-71232371D01*
X203742295Y-71186200D01*
X203723143Y-71119007D01*
X203743358Y-71052125D01*
X203794735Y-71007608D01*
X203852744Y-70980558D01*
X204039149Y-70850037D01*
X204200057Y-70689129D01*
X204330578Y-70502724D01*
X204426749Y-70296486D01*
X204485645Y-70076682D01*
X204505478Y-69849990D01*
X204502990Y-69821557D01*
X204495643Y-69737580D01*
X204485645Y-69623298D01*
X204426749Y-69403494D01*
X204330578Y-69197256D01*
X204200057Y-69010851D01*
X204200055Y-69010848D01*
X204039151Y-68849944D01*
X203852744Y-68719422D01*
X203852738Y-68719419D01*
X203794735Y-68692372D01*
X203742295Y-68646200D01*
X203723143Y-68579007D01*
X203743358Y-68512125D01*
X203794735Y-68467608D01*
X203852744Y-68440558D01*
X204039149Y-68310037D01*
X204200057Y-68149129D01*
X204330578Y-67962724D01*
X204426749Y-67756486D01*
X204485645Y-67536682D01*
X204505478Y-67309990D01*
X204505323Y-67308223D01*
X204491364Y-67148672D01*
X204485645Y-67083298D01*
X204431838Y-66882487D01*
X204426751Y-66863501D01*
X204426748Y-66863492D01*
X204330578Y-66657256D01*
X204200057Y-66470851D01*
X204200055Y-66470848D01*
X204039151Y-66309944D01*
X203852744Y-66179422D01*
X203852738Y-66179419D01*
X203825048Y-66166507D01*
X203794734Y-66152371D01*
X203742295Y-66106200D01*
X203723143Y-66039007D01*
X203743358Y-65972125D01*
X203794735Y-65927608D01*
X203852744Y-65900558D01*
X204039149Y-65770037D01*
X204200057Y-65609129D01*
X204330578Y-65422724D01*
X204426749Y-65216486D01*
X204485645Y-64996682D01*
X204505478Y-64769990D01*
X204504923Y-64763651D01*
X204496966Y-64672694D01*
X204485645Y-64543298D01*
X204426749Y-64323494D01*
X204330578Y-64117256D01*
X204200057Y-63930851D01*
X204200055Y-63930848D01*
X204039151Y-63769944D01*
X203852744Y-63639422D01*
X203852738Y-63639419D01*
X203821829Y-63625006D01*
X203794734Y-63612371D01*
X203742295Y-63566200D01*
X203723143Y-63499007D01*
X203743358Y-63432125D01*
X203794735Y-63387608D01*
X203852744Y-63360558D01*
X204039149Y-63230037D01*
X204200057Y-63069129D01*
X204330578Y-62882724D01*
X204426749Y-62676486D01*
X204485645Y-62456682D01*
X204505478Y-62229990D01*
X204502864Y-62200117D01*
X204486255Y-62010276D01*
X204485645Y-62003298D01*
X204426749Y-61783494D01*
X204330578Y-61577256D01*
X204232849Y-61437683D01*
X204200055Y-61390848D01*
X204039151Y-61229944D01*
X203882130Y-61119998D01*
X203852744Y-61099422D01*
X203794142Y-61072095D01*
X203741704Y-61025923D01*
X203722553Y-60958729D01*
X203742769Y-60891848D01*
X203794145Y-60847331D01*
X203852492Y-60820123D01*
X203925481Y-60769014D01*
X203294473Y-60138006D01*
X203376483Y-60116032D01*
X203480737Y-60055841D01*
X203565861Y-59970717D01*
X203626052Y-59866463D01*
X203648026Y-59784453D01*
X204279034Y-60415461D01*
X204330146Y-60342468D01*
X204426274Y-60136321D01*
X204426279Y-60136307D01*
X204485149Y-59916600D01*
X204485151Y-59916589D01*
X204504976Y-59689992D01*
X204504976Y-59689987D01*
X204485151Y-59463390D01*
X204485149Y-59463379D01*
X204426279Y-59243672D01*
X204426274Y-59243658D01*
X204330146Y-59037511D01*
X204330142Y-59037503D01*
X204279035Y-58964516D01*
X203648026Y-59595525D01*
X203626052Y-59513517D01*
X203565861Y-59409263D01*
X203480737Y-59324139D01*
X203376483Y-59263948D01*
X203294472Y-59241972D01*
X203925482Y-58610964D01*
X203852488Y-58559853D01*
X203646341Y-58463725D01*
X203646327Y-58463720D01*
X203426620Y-58404850D01*
X203426609Y-58404848D01*
X203200012Y-58385024D01*
X203200008Y-58385024D01*
X202973410Y-58404848D01*
X202973399Y-58404850D01*
X202753692Y-58463720D01*
X202753683Y-58463724D01*
X202547526Y-58559856D01*
X202547522Y-58559858D01*
X202474536Y-58610963D01*
X202474536Y-58610964D01*
X203105546Y-59241973D01*
X203023537Y-59263948D01*
X202919283Y-59324139D01*
X202834159Y-59409263D01*
X202773968Y-59513517D01*
X202751993Y-59595526D01*
X202120984Y-58964516D01*
X202120983Y-58964516D01*
X202069878Y-59037502D01*
X202069876Y-59037506D01*
X201973744Y-59243663D01*
X201973740Y-59243672D01*
X201914870Y-59463379D01*
X201914868Y-59463390D01*
X201895044Y-59689987D01*
X201895044Y-59689992D01*
X201914868Y-59916589D01*
X201914870Y-59916600D01*
X201973740Y-60136307D01*
X201973745Y-60136321D01*
X202069873Y-60342468D01*
X202120984Y-60415462D01*
X202751993Y-59784453D01*
X202773968Y-59866463D01*
X202834159Y-59970717D01*
X202919283Y-60055841D01*
X203023537Y-60116032D01*
X203105546Y-60138006D01*
X202474536Y-60769015D01*
X202547523Y-60820122D01*
X202547531Y-60820126D01*
X202605874Y-60847332D01*
X202658314Y-60893504D01*
X202677466Y-60960697D01*
X202657251Y-61027579D01*
X202605876Y-61072095D01*
X202547282Y-61099418D01*
X202547275Y-61099422D01*
X202360868Y-61229944D01*
X202199964Y-61390848D01*
X202069442Y-61577255D01*
X202069441Y-61577257D01*
X201973271Y-61783492D01*
X201973268Y-61783501D01*
X201914376Y-62003292D01*
X201914374Y-62003303D01*
X201894542Y-62229988D01*
X201894542Y-62229991D01*
X201914374Y-62456676D01*
X201914376Y-62456687D01*
X201973268Y-62676478D01*
X201973271Y-62676487D01*
X202069441Y-62882722D01*
X202069442Y-62882724D01*
X202199964Y-63069131D01*
X202360868Y-63230035D01*
X202387542Y-63248712D01*
X202547276Y-63360558D01*
X202605285Y-63387608D01*
X202657724Y-63433781D01*
X202676876Y-63500974D01*
X202656660Y-63567855D01*
X202605285Y-63612371D01*
X202588282Y-63620300D01*
X202547277Y-63639421D01*
X202547275Y-63639422D01*
X202360868Y-63769944D01*
X202199964Y-63930848D01*
X202069442Y-64117255D01*
X202069441Y-64117257D01*
X201973271Y-64323492D01*
X201973268Y-64323501D01*
X201914376Y-64543292D01*
X201914374Y-64543303D01*
X201894542Y-64769988D01*
X201894542Y-64769991D01*
X201914374Y-64996676D01*
X201914376Y-64996687D01*
X201973268Y-65216478D01*
X201973271Y-65216487D01*
X202069441Y-65422722D01*
X202069442Y-65422724D01*
X202199964Y-65609131D01*
X202360868Y-65770035D01*
X202360871Y-65770037D01*
X202547276Y-65900558D01*
X202600200Y-65925237D01*
X202605285Y-65927608D01*
X202657724Y-65973781D01*
X202676876Y-66040974D01*
X202656660Y-66107855D01*
X202605285Y-66152371D01*
X202588282Y-66160300D01*
X202547277Y-66179421D01*
X202547275Y-66179422D01*
X202360868Y-66309944D01*
X202199964Y-66470848D01*
X202069442Y-66657255D01*
X202069441Y-66657257D01*
X201973271Y-66863492D01*
X201973267Y-66863503D01*
X201970627Y-66873357D01*
X201934258Y-66933015D01*
X201871409Y-66963540D01*
X201802034Y-66955241D01*
X201763175Y-66928939D01*
X201663716Y-66829480D01*
X201663715Y-66829479D01*
X201659385Y-66825149D01*
X201659374Y-66825139D01*
X200512590Y-65678355D01*
X200512588Y-65678352D01*
X200393717Y-65559481D01*
X200393709Y-65559475D01*
X200291792Y-65500634D01*
X200291791Y-65500633D01*
X200291791Y-65500634D01*
X200256785Y-65480423D01*
X200104057Y-65439499D01*
X199945943Y-65439499D01*
X199938347Y-65439499D01*
X199938331Y-65439500D01*
X191420266Y-65439500D01*
X191353227Y-65419815D01*
X191307472Y-65367011D01*
X191297046Y-65329384D01*
X191285369Y-65225749D01*
X191285368Y-65225745D01*
X191275780Y-65198345D01*
X191225789Y-65055478D01*
X191213732Y-65036290D01*
X191166548Y-64961196D01*
X191129816Y-64902738D01*
X191002262Y-64775184D01*
X190965349Y-64751990D01*
X190849521Y-64679210D01*
X190679249Y-64619630D01*
X190592330Y-64609837D01*
X190527916Y-64582770D01*
X190518533Y-64574298D01*
X190352590Y-64408355D01*
X190352588Y-64408352D01*
X190233717Y-64289481D01*
X190233716Y-64289480D01*
X190136599Y-64233410D01*
X190096785Y-64210423D01*
X189944057Y-64169499D01*
X189785943Y-64169499D01*
X189778347Y-64169499D01*
X189778331Y-64169500D01*
X189191692Y-64169500D01*
X189124653Y-64149815D01*
X189090119Y-64116625D01*
X188960047Y-63930861D01*
X188960045Y-63930858D01*
X188799141Y-63769954D01*
X188612734Y-63639432D01*
X188612728Y-63639429D01*
X188581800Y-63625007D01*
X188554724Y-63612381D01*
X188502285Y-63566210D01*
X188483133Y-63499017D01*
X188503348Y-63432135D01*
X188554725Y-63387618D01*
X188612734Y-63360568D01*
X188799139Y-63230047D01*
X188960047Y-63069139D01*
X189090568Y-62882734D01*
X189186739Y-62676496D01*
X189245635Y-62456692D01*
X189264363Y-62242635D01*
X189265468Y-62230001D01*
X189265468Y-62229998D01*
X189248139Y-62031932D01*
X189245635Y-62003308D01*
X189186739Y-61783504D01*
X189090568Y-61577266D01*
X188992839Y-61437693D01*
X188960045Y-61390858D01*
X188799141Y-61229954D01*
X188643328Y-61120854D01*
X188612734Y-61099432D01*
X188554132Y-61072105D01*
X188501694Y-61025933D01*
X188482543Y-60958739D01*
X188502759Y-60891858D01*
X188554135Y-60847341D01*
X188612482Y-60820133D01*
X188685471Y-60769024D01*
X188054463Y-60138016D01*
X188136473Y-60116042D01*
X188240727Y-60055851D01*
X188325851Y-59970727D01*
X188386042Y-59866473D01*
X188408016Y-59784463D01*
X189039024Y-60415471D01*
X189090136Y-60342478D01*
X189186264Y-60136331D01*
X189186269Y-60136317D01*
X189245139Y-59916610D01*
X189245141Y-59916599D01*
X189264966Y-59690002D01*
X189264966Y-59689997D01*
X189245141Y-59463400D01*
X189245139Y-59463389D01*
X189186269Y-59243682D01*
X189186264Y-59243668D01*
X189090136Y-59037521D01*
X189090132Y-59037513D01*
X189039025Y-58964526D01*
X188408016Y-59595535D01*
X188386042Y-59513527D01*
X188325851Y-59409273D01*
X188240727Y-59324149D01*
X188136473Y-59263958D01*
X188054462Y-59241982D01*
X188685472Y-58610974D01*
X188612478Y-58559863D01*
X188406331Y-58463735D01*
X188406317Y-58463730D01*
X188186610Y-58404860D01*
X188186599Y-58404858D01*
X187960002Y-58385034D01*
X187959998Y-58385034D01*
X187733400Y-58404858D01*
X187733389Y-58404860D01*
X187513682Y-58463730D01*
X187513673Y-58463734D01*
X187307516Y-58559866D01*
X187307512Y-58559868D01*
X187234526Y-58610973D01*
X187234526Y-58610974D01*
X187865536Y-59241983D01*
X187783527Y-59263958D01*
X187679273Y-59324149D01*
X187594149Y-59409273D01*
X187533958Y-59513527D01*
X187511983Y-59595536D01*
X186880974Y-58964526D01*
X186880973Y-58964526D01*
X186829868Y-59037512D01*
X186829866Y-59037516D01*
X186733734Y-59243673D01*
X186733730Y-59243682D01*
X186674860Y-59463389D01*
X186674858Y-59463400D01*
X186655034Y-59689997D01*
X186655034Y-59690002D01*
X186674858Y-59916599D01*
X186674860Y-59916610D01*
X186733730Y-60136317D01*
X186733735Y-60136331D01*
X186829863Y-60342478D01*
X186880974Y-60415472D01*
X187511983Y-59784463D01*
X187533958Y-59866473D01*
X187594149Y-59970727D01*
X187679273Y-60055851D01*
X187783527Y-60116042D01*
X187865536Y-60138016D01*
X187234526Y-60769025D01*
X187307513Y-60820132D01*
X187307521Y-60820136D01*
X187365864Y-60847342D01*
X187418304Y-60893514D01*
X187437456Y-60960707D01*
X187417241Y-61027589D01*
X187365866Y-61072105D01*
X187307272Y-61099428D01*
X187307265Y-61099432D01*
X187120858Y-61229954D01*
X186959954Y-61390858D01*
X186829432Y-61577265D01*
X186829431Y-61577267D01*
X186733261Y-61783502D01*
X186733258Y-61783511D01*
X186674366Y-62003302D01*
X186674364Y-62003313D01*
X186654532Y-62229998D01*
X186654532Y-62230001D01*
X186674364Y-62456686D01*
X186674366Y-62456697D01*
X186733258Y-62676488D01*
X186733261Y-62676497D01*
X186829431Y-62882732D01*
X186829432Y-62882734D01*
X186959954Y-63069141D01*
X187120858Y-63230045D01*
X187120861Y-63230047D01*
X187307266Y-63360568D01*
X187365275Y-63387618D01*
X187417714Y-63433791D01*
X187436866Y-63500984D01*
X187416650Y-63567865D01*
X187365275Y-63612382D01*
X187307267Y-63639431D01*
X187307265Y-63639432D01*
X187120858Y-63769954D01*
X186959954Y-63930858D01*
X186829432Y-64117265D01*
X186829431Y-64117267D01*
X186733261Y-64323502D01*
X186733258Y-64323511D01*
X186674366Y-64543302D01*
X186674364Y-64543313D01*
X186654532Y-64769998D01*
X186654532Y-64770001D01*
X186674364Y-64996686D01*
X186674366Y-64996697D01*
X186733258Y-65216488D01*
X186733261Y-65216497D01*
X186742300Y-65235881D01*
X186754455Y-65261947D01*
X186754991Y-65263095D01*
X186765483Y-65332172D01*
X186736964Y-65395956D01*
X186678487Y-65434196D01*
X186642609Y-65439500D01*
X186610942Y-65439500D01*
X186458213Y-65480423D01*
X186423209Y-65500634D01*
X186423208Y-65500634D01*
X186376503Y-65527599D01*
X186308603Y-65544072D01*
X186242576Y-65521219D01*
X186199385Y-65466298D01*
X186190503Y-65420212D01*
X186190503Y-58926035D01*
X186191101Y-58913874D01*
X186197000Y-58854015D01*
X186205637Y-58766372D01*
X186210377Y-58742549D01*
X186251638Y-58606554D01*
X186260939Y-58584106D01*
X186268762Y-58569472D01*
X186327930Y-58458786D01*
X186341424Y-58438591D01*
X186431586Y-58328733D01*
X186448766Y-58311555D01*
X186517052Y-58255517D01*
X186558614Y-58221410D01*
X186578823Y-58207907D01*
X186586677Y-58203709D01*
X186704144Y-58140921D01*
X186726586Y-58131625D01*
X186862582Y-58090370D01*
X186886398Y-58085632D01*
X187034339Y-58071058D01*
X187046481Y-58070462D01*
X203949441Y-58070468D01*
G37*
G04 #@! TD.AperFunction*
G04 #@! TA.AperFunction,Conductor*
G36*
X196616942Y-79360185D02*
G01*
X196637584Y-79376819D01*
X201908063Y-84647299D01*
X201941548Y-84708622D01*
X201940157Y-84767072D01*
X201914377Y-84863290D01*
X201914374Y-84863303D01*
X201894542Y-85089989D01*
X201894542Y-85089991D01*
X201914374Y-85316676D01*
X201914376Y-85316687D01*
X201973268Y-85536478D01*
X201973271Y-85536487D01*
X202069441Y-85742722D01*
X202069442Y-85742724D01*
X202199964Y-85929131D01*
X202360868Y-86090035D01*
X202360871Y-86090037D01*
X202547276Y-86220558D01*
X202605285Y-86247608D01*
X202657724Y-86293781D01*
X202676876Y-86360974D01*
X202656660Y-86427855D01*
X202605285Y-86472371D01*
X202588282Y-86480300D01*
X202547277Y-86499421D01*
X202547275Y-86499422D01*
X202360868Y-86629944D01*
X202199964Y-86790848D01*
X202154167Y-86856255D01*
X202069884Y-86976624D01*
X202015310Y-87020248D01*
X201968311Y-87029500D01*
X194610097Y-87029500D01*
X194543058Y-87009815D01*
X194522416Y-86993181D01*
X190501819Y-82972584D01*
X190468334Y-82911261D01*
X190465500Y-82884903D01*
X190465500Y-82004060D01*
X190465501Y-82004047D01*
X190465501Y-81835944D01*
X190465501Y-81835943D01*
X190424577Y-81683216D01*
X190389431Y-81622340D01*
X190345524Y-81546290D01*
X190345518Y-81546282D01*
X189717590Y-80918355D01*
X189717588Y-80918352D01*
X189598717Y-80799481D01*
X189598716Y-80799480D01*
X189511904Y-80749360D01*
X189511904Y-80749359D01*
X189511900Y-80749358D01*
X189461785Y-80720423D01*
X189309057Y-80679499D01*
X189277392Y-80679499D01*
X189210353Y-80659814D01*
X189164598Y-80607010D01*
X189154654Y-80537852D01*
X189165010Y-80503095D01*
X189186736Y-80456502D01*
X189186739Y-80456496D01*
X189245635Y-80236692D01*
X189264172Y-80024815D01*
X189265468Y-80010001D01*
X189265468Y-80009998D01*
X189254579Y-79885540D01*
X189245635Y-79783308D01*
X189186739Y-79563504D01*
X189165008Y-79516903D01*
X189154517Y-79447828D01*
X189183036Y-79384044D01*
X189241513Y-79345804D01*
X189277391Y-79340500D01*
X196549903Y-79340500D01*
X196616942Y-79360185D01*
G37*
G04 #@! TD.AperFunction*
G04 #@! TD*
M02*
