G04 #@! TF.GenerationSoftware,KiCad,Pcbnew,8.0.7*
G04 #@! TF.CreationDate,2025-05-01T11:51:32+07:00*
G04 #@! TF.ProjectId,Lapka_ChocV1V2_Solder,4c61706b-615f-4436-986f-63563156325f,rev?*
G04 #@! TF.SameCoordinates,Original*
G04 #@! TF.FileFunction,Profile,NP*
%FSLAX46Y46*%
G04 Gerber Fmt 4.6, Leading zero omitted, Abs format (unit mm)*
G04 Created by KiCad (PCBNEW 8.0.7) date 2025-05-01 11:51:32*
%MOMM*%
%LPD*%
G01*
G04 APERTURE LIST*
G04 #@! TA.AperFunction,Profile*
%ADD10C,0.200000*%
G04 #@! TD*
G04 APERTURE END LIST*
D10*
X116007107Y-48959839D02*
G75*
G02*
X113189967Y-51210118I-3981907J2096439D01*
G01*
X117331862Y-113977554D02*
G75*
G02*
X114164021Y-116205278I-5752262J4813554D01*
G01*
X155652753Y-122793347D02*
X163461639Y-122110160D01*
X210359153Y-110773841D02*
X201317877Y-108351244D01*
X135142394Y-41910301D02*
G75*
G02*
X136411228Y-42277013I260506J-1477099D01*
G01*
X97599142Y-64860017D02*
G75*
G02*
X94619241Y-69045934I-4499732J49667D01*
G01*
X161748652Y-47969682D02*
X159144403Y-45153933D01*
X157912470Y-44678131D02*
G75*
G02*
X159144405Y-45153931I130730J-1494269D01*
G01*
X99502931Y-121541486D02*
G75*
G02*
X97580331Y-120644977I-513031J1409586D01*
G01*
X81163372Y-75539686D02*
G75*
G02*
X82059900Y-73617177I1409528J512986D01*
G01*
X179589958Y-49419972D02*
X165057528Y-49419969D01*
X207796414Y-126133876D02*
G75*
G02*
X205959234Y-127194551I-1449114J388576D01*
G01*
X163461639Y-122110160D02*
G75*
G02*
X180718394Y-122110163I8628361J-98625840D01*
G01*
X164590002Y-104952999D02*
X163461586Y-105045223D01*
X181090002Y-65919959D02*
X181090000Y-50919996D01*
X184356204Y-105363488D02*
G75*
G02*
X201317877Y-108351244I-8628604J-98625212D01*
G01*
X185690004Y-83919967D02*
X185690010Y-90919972D01*
X99502931Y-121541486D02*
X114164019Y-116205273D01*
X157912470Y-44678131D02*
X142673819Y-46011333D01*
X187039972Y-92269960D02*
G75*
G02*
X185689940Y-90919972I28J1350060D01*
G01*
X204039997Y-57569970D02*
G75*
G02*
X205390030Y-58919959I3J-1350030D01*
G01*
X117331862Y-113977554D02*
X125529061Y-104181569D01*
X181090002Y-83919963D02*
X185690004Y-83919967D01*
X135142394Y-41910301D02*
X118864350Y-44780569D01*
X181090003Y-98920037D02*
G75*
G02*
X179590002Y-100420003I-1500003J37D01*
G01*
X204039997Y-57569970D02*
X187039963Y-57569962D01*
X198387742Y-125165809D02*
X205959229Y-127194569D01*
X164590007Y-100419970D02*
X164590002Y-104952999D01*
X165057528Y-49419969D02*
G75*
G02*
X161748630Y-47969702I-228J4499369D01*
G01*
X139256699Y-44860200D02*
X139256669Y-44860207D01*
X94619240Y-69045932D02*
X82059893Y-73617158D01*
X210359153Y-110773841D02*
G75*
G02*
X211419880Y-112610973I-388253J-1448959D01*
G01*
X184356204Y-105363488D02*
X180718423Y-105045227D01*
X179590005Y-104952999D02*
X179590002Y-100420007D01*
X163461586Y-105045223D02*
X154158899Y-105859100D01*
X205390007Y-90919975D02*
G75*
G02*
X204040005Y-92270007I-1349907J-125D01*
G01*
X152807597Y-107483176D02*
G75*
G02*
X154158902Y-105859127I1494403J130776D01*
G01*
X155652753Y-122793347D02*
G75*
G02*
X154027764Y-121429778I-130653J1494347D01*
G01*
X81163372Y-75539686D02*
X97580350Y-120644970D01*
X113189969Y-51210125D02*
X98796299Y-55066894D01*
X179589958Y-49419972D02*
G75*
G02*
X181089928Y-50919998I142J-1499828D01*
G01*
X97691307Y-56497447D02*
X97599142Y-64860017D01*
X205390007Y-90919975D02*
X205390001Y-58919959D01*
X185690003Y-58919907D02*
X185690003Y-65919970D01*
X125529061Y-104181569D02*
G75*
G02*
X133581610Y-100419977I8052439J-6738131D01*
G01*
X185690003Y-58919907D02*
G75*
G02*
X187039963Y-57570003I1349997J-93D01*
G01*
X117797531Y-45558997D02*
X116007107Y-48959839D01*
X181089990Y-50919998D02*
X181090000Y-50919996D01*
X180718423Y-105045227D02*
X179590005Y-104952999D01*
X152807597Y-107483176D02*
X154027763Y-121429778D01*
X180718395Y-122110155D02*
X181393133Y-122169195D01*
X97691307Y-56497447D02*
G75*
G02*
X98796295Y-55066879I1500093J-16653D01*
G01*
X181090003Y-98920037D02*
X181090002Y-83919963D01*
X136411232Y-42277008D02*
X136411233Y-42276985D01*
X142673819Y-46011333D02*
G75*
G02*
X139256695Y-44860204I-392419J4482533D01*
G01*
X181393133Y-122169195D02*
G75*
G02*
X198387742Y-125165810I-8628633J-98624105D01*
G01*
X185690003Y-65919970D02*
X181090002Y-65919959D01*
X117797531Y-45558997D02*
G75*
G02*
X118864352Y-44780581I1327069J-698503D01*
G01*
X139256669Y-44860207D02*
X136411233Y-42276985D01*
X207796414Y-126133876D02*
X211419868Y-112610970D01*
X187039972Y-92269960D02*
X204040005Y-92269961D01*
X133581610Y-100419969D02*
X164590007Y-100419970D01*
M02*
