M48
; DRILL file {KiCad 8.0.7} date 2025-05-01T11:51:27+0700
; FORMAT={-:-/ absolute / metric / decimal}
; #@! TF.CreationDate,2025-05-01T11:51:27+07:00
; #@! TF.GenerationSoftware,Kicad,Pcbnew,8.0.7
; #@! TF.FileFunction,Plated,1,2,PTH
FMAT,2
METRIC
; #@! TA.AperFunction,Plated,PTH,ViaDrill
T1C0.300
; #@! TA.AperFunction,Plated,PTH,ComponentDrill
T2C0.914
; #@! TA.AperFunction,Plated,PTH,ComponentDrill
T3C1.200
%
G90
G05
T1
X190.5Y-65.405
X193.04Y-82.55
X193.04Y-83.185
X193.675Y-82.55
X193.675Y-83.185
X193.675Y-84.455
X193.675Y-85.09
X193.88Y-74.27
X193.88Y-67.97
X194.31Y-81.28
X194.31Y-81.915
X194.31Y-83.82
X194.31Y-84.455
X194.31Y-85.09
X194.31Y-85.725
X194.945Y-81.28
X194.945Y-81.915
X194.945Y-83.185
X194.945Y-83.82
X194.945Y-84.455
X194.945Y-85.09
X194.945Y-85.725
X195.58Y-83.185
X195.58Y-83.82
X195.58Y-84.455
X195.58Y-85.09
X196.215Y-81.28
X196.215Y-81.915
X196.215Y-83.185
X196.215Y-83.82
X196.215Y-84.455
X196.215Y-85.09
X196.215Y-85.725
X196.85Y-81.28
X196.85Y-81.915
X196.85Y-83.82
X196.85Y-84.455
X196.85Y-85.09
X196.85Y-85.725
X197.48Y-67.97
X197.48Y-74.27
X197.485Y-82.55
X197.485Y-83.185
X197.485Y-84.455
X197.485Y-85.09
X198.12Y-82.55
X198.12Y-83.185
T2
X187.96Y-59.69
X187.96Y-62.23
X187.96Y-64.77
X187.96Y-67.31
X187.96Y-69.85
X187.96Y-72.39
X187.96Y-74.93
X187.96Y-77.47
X187.96Y-80.01
X187.96Y-82.55
X187.96Y-85.09
X187.96Y-87.63
X187.96Y-90.17
X203.2Y-59.69
X203.2Y-62.23
X203.2Y-64.77
X203.2Y-67.31
X203.2Y-69.85
X203.2Y-72.39
X203.2Y-74.93
X203.2Y-77.47
X203.2Y-80.01
X203.2Y-82.55
X203.2Y-85.09
X203.2Y-87.63
X203.2Y-90.17
T3
X88.616Y-84.32
X91.831Y-93.153
X94.033Y-84.584
X95.811Y-89.47
X97.645Y-109.128
X98.013Y-80.9
X101.228Y-89.733
X101.625Y-105.445
X104.751Y-66.205
X107.042Y-105.708
X107.184Y-75.285
X110.124Y-66.94
X111.47Y-71.962
X111.584Y-91.706
X114.41Y-63.617
X115.87Y-88.383
X116.843Y-72.697
X121.243Y-89.117
X124.215Y-56.327
X125.847Y-65.584
X128.799Y-82.326
X129.504Y-57.527
X130.407Y-62.648
X133.359Y-79.389
X134.063Y-54.59
X135.696Y-63.848
X138.648Y-80.589
X145.77Y-58.087
X146.59Y-67.452
X148.071Y-84.387
X150.934Y-59.744
X151.388Y-64.924
X152.869Y-81.859
X155.732Y-57.216
X156.552Y-66.58
X157.09Y-110.322
X158.033Y-83.515
X161.888Y-107.795
X167.052Y-109.451
X167.09Y-61.72
X167.09Y-88.12
X167.09Y-71.12
X172.09Y-63.82
X172.09Y-86.02
X172.09Y-69.02
X177.09Y-61.72
X177.09Y-88.12
X177.09Y-71.12
X177.165Y-109.451
X182.329Y-107.795
X187.127Y-110.322
X197.087Y-112.078
X202.46Y-111.344
X206.746Y-114.667
M30
