%TF.GenerationSoftware,KiCad,Pcbnew,8.0.7*%
%TF.CreationDate,2025-03-14T09:47:26+07:00*%
%TF.ProjectId,Lapka,4c61706b-612e-46b6-9963-61645f706362,rev?*%
%TF.SameCoordinates,Original*%
%TF.FileFunction,Drillmap*%
%TF.FilePolarity,Positive*%
%FSLAX45Y45*%
G04 Gerber Fmt 4.5, Leading zero omitted, Abs format (unit mm)*
G04 Created by KiCad (PCBNEW 8.0.7) date 2025-03-14 09:47:26*
%MOMM*%
%LPD*%
G01*
G04 APERTURE LIST*
%ADD10C,0.200000*%
%ADD11C,0.505000*%
G04 APERTURE END LIST*
D10*
X11600711Y-4895984D02*
G75*
G02*
X11318997Y-5121012I-398191J209644D01*
G01*
X11733186Y-11397755D02*
G75*
G02*
X11416402Y-11620528I-575226J481355D01*
G01*
X15565275Y-12279335D02*
X16346164Y-12211016D01*
X21035915Y-11077384D02*
X20131788Y-10835124D01*
X13514239Y-4191030D02*
G75*
G02*
X13641123Y-4227701I26051J-147710D01*
G01*
X9759914Y-6486002D02*
G75*
G02*
X9461924Y-6904593I-449973J4967D01*
G01*
X16174865Y-4796968D02*
X15914440Y-4515393D01*
X15791247Y-4467813D02*
G75*
G02*
X15914440Y-4515393I13073J-149427D01*
G01*
X9950293Y-12154149D02*
G75*
G02*
X9758033Y-12064498I-51303J140959D01*
G01*
X8116337Y-7553969D02*
G75*
G02*
X8205990Y-7361718I140953J51299D01*
G01*
X17958996Y-4941997D02*
X16505753Y-4941997D01*
X20779641Y-12613388D02*
G75*
G02*
X20595923Y-12719455I-144911J38858D01*
G01*
X16346164Y-12211016D02*
G75*
G02*
X18071839Y-12211016I862836J-9862584D01*
G01*
X16459000Y-10495300D02*
X16346159Y-10504522D01*
X18109000Y-6591996D02*
X18109000Y-5092000D01*
X18435620Y-10536349D02*
G75*
G02*
X20131788Y-10835124I-862860J-9862521D01*
G01*
X18569000Y-8391997D02*
X18569001Y-9091997D01*
X9950293Y-12154149D02*
X11416402Y-11620527D01*
X15791247Y-4467813D02*
X14267382Y-4601133D01*
X18703997Y-9226996D02*
G75*
G02*
X18568994Y-9091997I3J135006D01*
G01*
X20404000Y-5756997D02*
G75*
G02*
X20539003Y-5891996I0J-135003D01*
G01*
X11733186Y-11397755D02*
X12552906Y-10418157D01*
X18109000Y-8391996D02*
X18569000Y-8391997D01*
X13514239Y-4191030D02*
X11886435Y-4478057D01*
X18109000Y-9892004D02*
G75*
G02*
X17959000Y-10042000I-150000J4D01*
G01*
X20404000Y-5756997D02*
X18703996Y-5756996D01*
X19838774Y-12516581D02*
X20595923Y-12719457D01*
X16459001Y-10041997D02*
X16459000Y-10495300D01*
X16505753Y-4941997D02*
G75*
G02*
X16174863Y-4796970I-23J449937D01*
G01*
X13925670Y-4486020D02*
X13925667Y-4486021D01*
X9461924Y-6904593D02*
X8205989Y-7361716D01*
X21035915Y-11077384D02*
G75*
G02*
X21141988Y-11261097I-38825J-144896D01*
G01*
X18435620Y-10536349D02*
X18071842Y-10504523D01*
X17959001Y-10495300D02*
X17959000Y-10042001D01*
X16346159Y-10504522D02*
X15415890Y-10585910D01*
X20539001Y-9091998D02*
G75*
G02*
X20404001Y-9227001I-134991J-13D01*
G01*
X15280760Y-10748318D02*
G75*
G02*
X15415890Y-10585913I149440J13078D01*
G01*
X15565275Y-12279335D02*
G75*
G02*
X15402776Y-12142978I-13065J149435D01*
G01*
X8116337Y-7553969D02*
X9758035Y-12064497D01*
X11318997Y-5121013D02*
X9879630Y-5506689D01*
X17958996Y-4941997D02*
G75*
G02*
X18108993Y-5092000I14J-149983D01*
G01*
X9769131Y-5649745D02*
X9759914Y-6486002D01*
X20539001Y-9091998D02*
X20539000Y-5891996D01*
X18569000Y-5891991D02*
X18569000Y-6591997D01*
X12552906Y-10418157D02*
G75*
G02*
X13358161Y-10041998I805244J-673813D01*
G01*
X18569000Y-5891991D02*
G75*
G02*
X18703996Y-5757000I135000J-9D01*
G01*
X11779753Y-4555900D02*
X11600711Y-4895984D01*
X18108999Y-5092000D02*
X18109000Y-5092000D01*
X18071842Y-10504523D02*
X17959001Y-10495300D01*
X15280760Y-10748318D02*
X15402776Y-12142978D01*
X18071840Y-12211015D02*
X18139313Y-12216919D01*
X9769131Y-5649745D02*
G75*
G02*
X9879630Y-5506688I150009J-1665D01*
G01*
X18109000Y-9892004D02*
X18109000Y-8391996D01*
X13641123Y-4227701D02*
X13641123Y-4227699D01*
X14267382Y-4601133D02*
G75*
G02*
X13925669Y-4486020I-39242J448253D01*
G01*
X18139313Y-12216919D02*
G75*
G02*
X19838774Y-12516581I-862863J-9862411D01*
G01*
X18569000Y-6591997D02*
X18109000Y-6591996D01*
X11779753Y-4555900D02*
G75*
G02*
X11886435Y-4478058I132707J-69850D01*
G01*
X13925667Y-4486021D02*
X13641123Y-4227699D01*
X20779641Y-12613388D02*
X21141987Y-11261097D01*
X18703997Y-9226996D02*
X20404001Y-9226996D01*
X13358161Y-10041997D02*
X16459001Y-10041997D01*
D11*
X8948981Y-7651439D02*
X9453981Y-8156439D01*
X9453981Y-7651439D02*
X8948981Y-8156439D01*
X9530411Y-9248919D02*
X10035411Y-9753919D01*
X10035411Y-9248919D02*
X9530411Y-9753919D01*
X10111840Y-10846399D02*
X10616840Y-11351399D01*
X10616840Y-10846399D02*
X10111840Y-11351399D01*
X10607211Y-5871570D02*
X11112211Y-6376570D01*
X11112211Y-5871570D02*
X10607211Y-6376570D01*
X11047210Y-7513640D02*
X11552210Y-8018640D01*
X11552210Y-7513640D02*
X11047210Y-8018640D01*
X11487200Y-9155709D02*
X11992200Y-9660709D01*
X11992200Y-9155709D02*
X11487200Y-9660709D01*
X12595440Y-4919130D02*
X13100440Y-5424130D01*
X13100440Y-4919130D02*
X12595440Y-5424130D01*
X12890640Y-6593309D02*
X13395640Y-7098309D01*
X13395640Y-6593309D02*
X12890640Y-7098309D01*
X13185840Y-8267480D02*
X13690840Y-8772480D01*
X13690840Y-8267480D02*
X13185840Y-8772480D01*
X14789510Y-5134110D02*
X15294510Y-5639110D01*
X15294510Y-5134110D02*
X14789510Y-5639110D01*
X14937680Y-6827639D02*
X15442680Y-7332639D01*
X15442680Y-6827639D02*
X14937680Y-7332639D01*
X15085841Y-8521170D02*
X15590841Y-9026170D01*
X15590841Y-8521170D02*
X15085841Y-9026170D01*
X15987680Y-11114710D02*
X16492680Y-11619710D01*
X16492680Y-11114710D02*
X15987680Y-11619710D01*
X16956500Y-5539500D02*
X17461500Y-6044500D01*
X17461500Y-5539500D02*
X16956500Y-6044500D01*
X16956500Y-8939500D02*
X17461500Y-9444500D01*
X17461500Y-8939500D02*
X16956500Y-9444500D01*
X16956501Y-7239499D02*
X17461501Y-7744499D01*
X17461501Y-7239499D02*
X16956501Y-7744499D01*
X17928990Y-11114709D02*
X18433990Y-11619709D01*
X18433990Y-11114709D02*
X17928990Y-11619709D01*
X19840819Y-11451809D02*
X20345819Y-11956809D01*
X20345819Y-11451809D02*
X19840819Y-11956809D01*
D10*
X8358069Y-13046045D02*
X8358069Y-12846045D01*
X8358069Y-12846045D02*
X8405688Y-12846045D01*
X8405688Y-12846045D02*
X8434260Y-12855568D01*
X8434260Y-12855568D02*
X8453307Y-12874616D01*
X8453307Y-12874616D02*
X8462831Y-12893664D01*
X8462831Y-12893664D02*
X8472355Y-12931759D01*
X8472355Y-12931759D02*
X8472355Y-12960330D01*
X8472355Y-12960330D02*
X8462831Y-12998425D01*
X8462831Y-12998425D02*
X8453307Y-13017473D01*
X8453307Y-13017473D02*
X8434260Y-13036521D01*
X8434260Y-13036521D02*
X8405688Y-13046045D01*
X8405688Y-13046045D02*
X8358069Y-13046045D01*
X8558069Y-13046045D02*
X8558069Y-12912711D01*
X8558069Y-12950806D02*
X8567593Y-12931759D01*
X8567593Y-12931759D02*
X8577117Y-12922235D01*
X8577117Y-12922235D02*
X8596165Y-12912711D01*
X8596165Y-12912711D02*
X8615212Y-12912711D01*
X8681879Y-13046045D02*
X8681879Y-12912711D01*
X8681879Y-12846045D02*
X8672355Y-12855568D01*
X8672355Y-12855568D02*
X8681879Y-12865092D01*
X8681879Y-12865092D02*
X8691403Y-12855568D01*
X8691403Y-12855568D02*
X8681879Y-12846045D01*
X8681879Y-12846045D02*
X8681879Y-12865092D01*
X8805688Y-13046045D02*
X8786641Y-13036521D01*
X8786641Y-13036521D02*
X8777117Y-13017473D01*
X8777117Y-13017473D02*
X8777117Y-12846045D01*
X8910450Y-13046045D02*
X8891403Y-13036521D01*
X8891403Y-13036521D02*
X8881879Y-13017473D01*
X8881879Y-13017473D02*
X8881879Y-12846045D01*
X9139022Y-13046045D02*
X9139022Y-12846045D01*
X9139022Y-12846045D02*
X9205688Y-12988902D01*
X9205688Y-12988902D02*
X9272355Y-12846045D01*
X9272355Y-12846045D02*
X9272355Y-13046045D01*
X9453307Y-13046045D02*
X9453307Y-12941283D01*
X9453307Y-12941283D02*
X9443784Y-12922235D01*
X9443784Y-12922235D02*
X9424736Y-12912711D01*
X9424736Y-12912711D02*
X9386641Y-12912711D01*
X9386641Y-12912711D02*
X9367593Y-12922235D01*
X9453307Y-13036521D02*
X9434260Y-13046045D01*
X9434260Y-13046045D02*
X9386641Y-13046045D01*
X9386641Y-13046045D02*
X9367593Y-13036521D01*
X9367593Y-13036521D02*
X9358069Y-13017473D01*
X9358069Y-13017473D02*
X9358069Y-12998425D01*
X9358069Y-12998425D02*
X9367593Y-12979378D01*
X9367593Y-12979378D02*
X9386641Y-12969854D01*
X9386641Y-12969854D02*
X9434260Y-12969854D01*
X9434260Y-12969854D02*
X9453307Y-12960330D01*
X9548546Y-12912711D02*
X9548546Y-13112711D01*
X9548546Y-12922235D02*
X9567593Y-12912711D01*
X9567593Y-12912711D02*
X9605688Y-12912711D01*
X9605688Y-12912711D02*
X9624736Y-12922235D01*
X9624736Y-12922235D02*
X9634260Y-12931759D01*
X9634260Y-12931759D02*
X9643784Y-12950806D01*
X9643784Y-12950806D02*
X9643784Y-13007949D01*
X9643784Y-13007949D02*
X9634260Y-13026997D01*
X9634260Y-13026997D02*
X9624736Y-13036521D01*
X9624736Y-13036521D02*
X9605688Y-13046045D01*
X9605688Y-13046045D02*
X9567593Y-13046045D01*
X9567593Y-13046045D02*
X9548546Y-13036521D01*
X9729498Y-13026997D02*
X9739022Y-13036521D01*
X9739022Y-13036521D02*
X9729498Y-13046045D01*
X9729498Y-13046045D02*
X9719974Y-13036521D01*
X9719974Y-13036521D02*
X9729498Y-13026997D01*
X9729498Y-13026997D02*
X9729498Y-13046045D01*
X9729498Y-12922235D02*
X9739022Y-12931759D01*
X9739022Y-12931759D02*
X9729498Y-12941283D01*
X9729498Y-12941283D02*
X9719974Y-12931759D01*
X9719974Y-12931759D02*
X9729498Y-12922235D01*
X9729498Y-12922235D02*
X9729498Y-12941283D01*
X7897292Y-13274561D02*
X8097292Y-13474561D01*
X8097292Y-13274561D02*
X7897292Y-13474561D01*
X8453307Y-13266045D02*
X8358069Y-13266045D01*
X8358069Y-13266045D02*
X8348545Y-13361283D01*
X8348545Y-13361283D02*
X8358069Y-13351759D01*
X8358069Y-13351759D02*
X8377117Y-13342235D01*
X8377117Y-13342235D02*
X8424736Y-13342235D01*
X8424736Y-13342235D02*
X8443784Y-13351759D01*
X8443784Y-13351759D02*
X8453307Y-13361283D01*
X8453307Y-13361283D02*
X8462831Y-13380330D01*
X8462831Y-13380330D02*
X8462831Y-13427949D01*
X8462831Y-13427949D02*
X8453307Y-13446997D01*
X8453307Y-13446997D02*
X8443784Y-13456521D01*
X8443784Y-13456521D02*
X8424736Y-13466045D01*
X8424736Y-13466045D02*
X8377117Y-13466045D01*
X8377117Y-13466045D02*
X8358069Y-13456521D01*
X8358069Y-13456521D02*
X8348545Y-13446997D01*
X8548546Y-13446997D02*
X8558069Y-13456521D01*
X8558069Y-13456521D02*
X8548546Y-13466045D01*
X8548546Y-13466045D02*
X8539022Y-13456521D01*
X8539022Y-13456521D02*
X8548546Y-13446997D01*
X8548546Y-13446997D02*
X8548546Y-13466045D01*
X8681879Y-13266045D02*
X8700927Y-13266045D01*
X8700927Y-13266045D02*
X8719974Y-13275568D01*
X8719974Y-13275568D02*
X8729498Y-13285092D01*
X8729498Y-13285092D02*
X8739022Y-13304140D01*
X8739022Y-13304140D02*
X8748546Y-13342235D01*
X8748546Y-13342235D02*
X8748546Y-13389854D01*
X8748546Y-13389854D02*
X8739022Y-13427949D01*
X8739022Y-13427949D02*
X8729498Y-13446997D01*
X8729498Y-13446997D02*
X8719974Y-13456521D01*
X8719974Y-13456521D02*
X8700927Y-13466045D01*
X8700927Y-13466045D02*
X8681879Y-13466045D01*
X8681879Y-13466045D02*
X8662831Y-13456521D01*
X8662831Y-13456521D02*
X8653307Y-13446997D01*
X8653307Y-13446997D02*
X8643784Y-13427949D01*
X8643784Y-13427949D02*
X8634260Y-13389854D01*
X8634260Y-13389854D02*
X8634260Y-13342235D01*
X8634260Y-13342235D02*
X8643784Y-13304140D01*
X8643784Y-13304140D02*
X8653307Y-13285092D01*
X8653307Y-13285092D02*
X8662831Y-13275568D01*
X8662831Y-13275568D02*
X8681879Y-13266045D01*
X8929498Y-13266045D02*
X8834260Y-13266045D01*
X8834260Y-13266045D02*
X8824736Y-13361283D01*
X8824736Y-13361283D02*
X8834260Y-13351759D01*
X8834260Y-13351759D02*
X8853307Y-13342235D01*
X8853307Y-13342235D02*
X8900927Y-13342235D01*
X8900927Y-13342235D02*
X8919974Y-13351759D01*
X8919974Y-13351759D02*
X8929498Y-13361283D01*
X8929498Y-13361283D02*
X8939022Y-13380330D01*
X8939022Y-13380330D02*
X8939022Y-13427949D01*
X8939022Y-13427949D02*
X8929498Y-13446997D01*
X8929498Y-13446997D02*
X8919974Y-13456521D01*
X8919974Y-13456521D02*
X8900927Y-13466045D01*
X8900927Y-13466045D02*
X8853307Y-13466045D01*
X8853307Y-13466045D02*
X8834260Y-13456521D01*
X8834260Y-13456521D02*
X8824736Y-13446997D01*
X9062831Y-13266045D02*
X9081879Y-13266045D01*
X9081879Y-13266045D02*
X9100927Y-13275568D01*
X9100927Y-13275568D02*
X9110450Y-13285092D01*
X9110450Y-13285092D02*
X9119974Y-13304140D01*
X9119974Y-13304140D02*
X9129498Y-13342235D01*
X9129498Y-13342235D02*
X9129498Y-13389854D01*
X9129498Y-13389854D02*
X9119974Y-13427949D01*
X9119974Y-13427949D02*
X9110450Y-13446997D01*
X9110450Y-13446997D02*
X9100927Y-13456521D01*
X9100927Y-13456521D02*
X9081879Y-13466045D01*
X9081879Y-13466045D02*
X9062831Y-13466045D01*
X9062831Y-13466045D02*
X9043784Y-13456521D01*
X9043784Y-13456521D02*
X9034260Y-13446997D01*
X9034260Y-13446997D02*
X9024736Y-13427949D01*
X9024736Y-13427949D02*
X9015212Y-13389854D01*
X9015212Y-13389854D02*
X9015212Y-13342235D01*
X9015212Y-13342235D02*
X9024736Y-13304140D01*
X9024736Y-13304140D02*
X9034260Y-13285092D01*
X9034260Y-13285092D02*
X9043784Y-13275568D01*
X9043784Y-13275568D02*
X9062831Y-13266045D01*
X9215212Y-13466045D02*
X9215212Y-13332711D01*
X9215212Y-13351759D02*
X9224736Y-13342235D01*
X9224736Y-13342235D02*
X9243784Y-13332711D01*
X9243784Y-13332711D02*
X9272355Y-13332711D01*
X9272355Y-13332711D02*
X9291403Y-13342235D01*
X9291403Y-13342235D02*
X9300927Y-13361283D01*
X9300927Y-13361283D02*
X9300927Y-13466045D01*
X9300927Y-13361283D02*
X9310450Y-13342235D01*
X9310450Y-13342235D02*
X9329498Y-13332711D01*
X9329498Y-13332711D02*
X9358069Y-13332711D01*
X9358069Y-13332711D02*
X9377117Y-13342235D01*
X9377117Y-13342235D02*
X9386641Y-13361283D01*
X9386641Y-13361283D02*
X9386641Y-13466045D01*
X9481879Y-13466045D02*
X9481879Y-13332711D01*
X9481879Y-13351759D02*
X9491403Y-13342235D01*
X9491403Y-13342235D02*
X9510450Y-13332711D01*
X9510450Y-13332711D02*
X9539022Y-13332711D01*
X9539022Y-13332711D02*
X9558069Y-13342235D01*
X9558069Y-13342235D02*
X9567593Y-13361283D01*
X9567593Y-13361283D02*
X9567593Y-13466045D01*
X9567593Y-13361283D02*
X9577117Y-13342235D01*
X9577117Y-13342235D02*
X9596165Y-13332711D01*
X9596165Y-13332711D02*
X9624736Y-13332711D01*
X9624736Y-13332711D02*
X9643784Y-13342235D01*
X9643784Y-13342235D02*
X9653308Y-13361283D01*
X9653308Y-13361283D02*
X9653308Y-13466045D01*
X10043784Y-13256521D02*
X9872355Y-13513664D01*
X10300927Y-13266045D02*
X10319974Y-13266045D01*
X10319974Y-13266045D02*
X10339022Y-13275568D01*
X10339022Y-13275568D02*
X10348546Y-13285092D01*
X10348546Y-13285092D02*
X10358070Y-13304140D01*
X10358070Y-13304140D02*
X10367593Y-13342235D01*
X10367593Y-13342235D02*
X10367593Y-13389854D01*
X10367593Y-13389854D02*
X10358070Y-13427949D01*
X10358070Y-13427949D02*
X10348546Y-13446997D01*
X10348546Y-13446997D02*
X10339022Y-13456521D01*
X10339022Y-13456521D02*
X10319974Y-13466045D01*
X10319974Y-13466045D02*
X10300927Y-13466045D01*
X10300927Y-13466045D02*
X10281879Y-13456521D01*
X10281879Y-13456521D02*
X10272355Y-13446997D01*
X10272355Y-13446997D02*
X10262831Y-13427949D01*
X10262831Y-13427949D02*
X10253308Y-13389854D01*
X10253308Y-13389854D02*
X10253308Y-13342235D01*
X10253308Y-13342235D02*
X10262831Y-13304140D01*
X10262831Y-13304140D02*
X10272355Y-13285092D01*
X10272355Y-13285092D02*
X10281879Y-13275568D01*
X10281879Y-13275568D02*
X10300927Y-13266045D01*
X10453308Y-13446997D02*
X10462831Y-13456521D01*
X10462831Y-13456521D02*
X10453308Y-13466045D01*
X10453308Y-13466045D02*
X10443784Y-13456521D01*
X10443784Y-13456521D02*
X10453308Y-13446997D01*
X10453308Y-13446997D02*
X10453308Y-13466045D01*
X10653308Y-13466045D02*
X10539022Y-13466045D01*
X10596165Y-13466045D02*
X10596165Y-13266045D01*
X10596165Y-13266045D02*
X10577117Y-13294616D01*
X10577117Y-13294616D02*
X10558070Y-13313664D01*
X10558070Y-13313664D02*
X10539022Y-13323187D01*
X10748546Y-13466045D02*
X10786641Y-13466045D01*
X10786641Y-13466045D02*
X10805689Y-13456521D01*
X10805689Y-13456521D02*
X10815212Y-13446997D01*
X10815212Y-13446997D02*
X10834260Y-13418425D01*
X10834260Y-13418425D02*
X10843784Y-13380330D01*
X10843784Y-13380330D02*
X10843784Y-13304140D01*
X10843784Y-13304140D02*
X10834260Y-13285092D01*
X10834260Y-13285092D02*
X10824736Y-13275568D01*
X10824736Y-13275568D02*
X10805689Y-13266045D01*
X10805689Y-13266045D02*
X10767593Y-13266045D01*
X10767593Y-13266045D02*
X10748546Y-13275568D01*
X10748546Y-13275568D02*
X10739022Y-13285092D01*
X10739022Y-13285092D02*
X10729498Y-13304140D01*
X10729498Y-13304140D02*
X10729498Y-13351759D01*
X10729498Y-13351759D02*
X10739022Y-13370806D01*
X10739022Y-13370806D02*
X10748546Y-13380330D01*
X10748546Y-13380330D02*
X10767593Y-13389854D01*
X10767593Y-13389854D02*
X10805689Y-13389854D01*
X10805689Y-13389854D02*
X10824736Y-13380330D01*
X10824736Y-13380330D02*
X10834260Y-13370806D01*
X10834260Y-13370806D02*
X10843784Y-13351759D01*
X10958070Y-13351759D02*
X10939022Y-13342235D01*
X10939022Y-13342235D02*
X10929498Y-13332711D01*
X10929498Y-13332711D02*
X10919974Y-13313664D01*
X10919974Y-13313664D02*
X10919974Y-13304140D01*
X10919974Y-13304140D02*
X10929498Y-13285092D01*
X10929498Y-13285092D02*
X10939022Y-13275568D01*
X10939022Y-13275568D02*
X10958070Y-13266045D01*
X10958070Y-13266045D02*
X10996165Y-13266045D01*
X10996165Y-13266045D02*
X11015212Y-13275568D01*
X11015212Y-13275568D02*
X11024736Y-13285092D01*
X11024736Y-13285092D02*
X11034260Y-13304140D01*
X11034260Y-13304140D02*
X11034260Y-13313664D01*
X11034260Y-13313664D02*
X11024736Y-13332711D01*
X11024736Y-13332711D02*
X11015212Y-13342235D01*
X11015212Y-13342235D02*
X10996165Y-13351759D01*
X10996165Y-13351759D02*
X10958070Y-13351759D01*
X10958070Y-13351759D02*
X10939022Y-13361283D01*
X10939022Y-13361283D02*
X10929498Y-13370806D01*
X10929498Y-13370806D02*
X10919974Y-13389854D01*
X10919974Y-13389854D02*
X10919974Y-13427949D01*
X10919974Y-13427949D02*
X10929498Y-13446997D01*
X10929498Y-13446997D02*
X10939022Y-13456521D01*
X10939022Y-13456521D02*
X10958070Y-13466045D01*
X10958070Y-13466045D02*
X10996165Y-13466045D01*
X10996165Y-13466045D02*
X11015212Y-13456521D01*
X11015212Y-13456521D02*
X11024736Y-13446997D01*
X11024736Y-13446997D02*
X11034260Y-13427949D01*
X11034260Y-13427949D02*
X11034260Y-13389854D01*
X11034260Y-13389854D02*
X11024736Y-13370806D01*
X11024736Y-13370806D02*
X11015212Y-13361283D01*
X11015212Y-13361283D02*
X10996165Y-13351759D01*
X11148546Y-13351759D02*
X11129498Y-13342235D01*
X11129498Y-13342235D02*
X11119974Y-13332711D01*
X11119974Y-13332711D02*
X11110451Y-13313664D01*
X11110451Y-13313664D02*
X11110451Y-13304140D01*
X11110451Y-13304140D02*
X11119974Y-13285092D01*
X11119974Y-13285092D02*
X11129498Y-13275568D01*
X11129498Y-13275568D02*
X11148546Y-13266045D01*
X11148546Y-13266045D02*
X11186641Y-13266045D01*
X11186641Y-13266045D02*
X11205689Y-13275568D01*
X11205689Y-13275568D02*
X11215212Y-13285092D01*
X11215212Y-13285092D02*
X11224736Y-13304140D01*
X11224736Y-13304140D02*
X11224736Y-13313664D01*
X11224736Y-13313664D02*
X11215212Y-13332711D01*
X11215212Y-13332711D02*
X11205689Y-13342235D01*
X11205689Y-13342235D02*
X11186641Y-13351759D01*
X11186641Y-13351759D02*
X11148546Y-13351759D01*
X11148546Y-13351759D02*
X11129498Y-13361283D01*
X11129498Y-13361283D02*
X11119974Y-13370806D01*
X11119974Y-13370806D02*
X11110451Y-13389854D01*
X11110451Y-13389854D02*
X11110451Y-13427949D01*
X11110451Y-13427949D02*
X11119974Y-13446997D01*
X11119974Y-13446997D02*
X11129498Y-13456521D01*
X11129498Y-13456521D02*
X11148546Y-13466045D01*
X11148546Y-13466045D02*
X11186641Y-13466045D01*
X11186641Y-13466045D02*
X11205689Y-13456521D01*
X11205689Y-13456521D02*
X11215212Y-13446997D01*
X11215212Y-13446997D02*
X11224736Y-13427949D01*
X11224736Y-13427949D02*
X11224736Y-13389854D01*
X11224736Y-13389854D02*
X11215212Y-13370806D01*
X11215212Y-13370806D02*
X11205689Y-13361283D01*
X11205689Y-13361283D02*
X11186641Y-13351759D01*
X11300927Y-13266045D02*
X11300927Y-13304140D01*
X11377117Y-13266045D02*
X11377117Y-13304140D01*
X11672355Y-13542235D02*
X11662831Y-13532711D01*
X11662831Y-13532711D02*
X11643784Y-13504140D01*
X11643784Y-13504140D02*
X11634260Y-13485092D01*
X11634260Y-13485092D02*
X11624736Y-13456521D01*
X11624736Y-13456521D02*
X11615212Y-13408902D01*
X11615212Y-13408902D02*
X11615212Y-13370806D01*
X11615212Y-13370806D02*
X11624736Y-13323187D01*
X11624736Y-13323187D02*
X11634260Y-13294616D01*
X11634260Y-13294616D02*
X11643784Y-13275568D01*
X11643784Y-13275568D02*
X11662831Y-13246997D01*
X11662831Y-13246997D02*
X11672355Y-13237473D01*
X11853308Y-13466045D02*
X11739022Y-13466045D01*
X11796165Y-13466045D02*
X11796165Y-13266045D01*
X11796165Y-13266045D02*
X11777117Y-13294616D01*
X11777117Y-13294616D02*
X11758070Y-13313664D01*
X11758070Y-13313664D02*
X11739022Y-13323187D01*
X11967593Y-13351759D02*
X11948546Y-13342235D01*
X11948546Y-13342235D02*
X11939022Y-13332711D01*
X11939022Y-13332711D02*
X11929498Y-13313664D01*
X11929498Y-13313664D02*
X11929498Y-13304140D01*
X11929498Y-13304140D02*
X11939022Y-13285092D01*
X11939022Y-13285092D02*
X11948546Y-13275568D01*
X11948546Y-13275568D02*
X11967593Y-13266045D01*
X11967593Y-13266045D02*
X12005689Y-13266045D01*
X12005689Y-13266045D02*
X12024736Y-13275568D01*
X12024736Y-13275568D02*
X12034260Y-13285092D01*
X12034260Y-13285092D02*
X12043784Y-13304140D01*
X12043784Y-13304140D02*
X12043784Y-13313664D01*
X12043784Y-13313664D02*
X12034260Y-13332711D01*
X12034260Y-13332711D02*
X12024736Y-13342235D01*
X12024736Y-13342235D02*
X12005689Y-13351759D01*
X12005689Y-13351759D02*
X11967593Y-13351759D01*
X11967593Y-13351759D02*
X11948546Y-13361283D01*
X11948546Y-13361283D02*
X11939022Y-13370806D01*
X11939022Y-13370806D02*
X11929498Y-13389854D01*
X11929498Y-13389854D02*
X11929498Y-13427949D01*
X11929498Y-13427949D02*
X11939022Y-13446997D01*
X11939022Y-13446997D02*
X11948546Y-13456521D01*
X11948546Y-13456521D02*
X11967593Y-13466045D01*
X11967593Y-13466045D02*
X12005689Y-13466045D01*
X12005689Y-13466045D02*
X12024736Y-13456521D01*
X12024736Y-13456521D02*
X12034260Y-13446997D01*
X12034260Y-13446997D02*
X12043784Y-13427949D01*
X12043784Y-13427949D02*
X12043784Y-13389854D01*
X12043784Y-13389854D02*
X12034260Y-13370806D01*
X12034260Y-13370806D02*
X12024736Y-13361283D01*
X12024736Y-13361283D02*
X12005689Y-13351759D01*
X12281879Y-13466045D02*
X12281879Y-13266045D01*
X12367593Y-13466045D02*
X12367593Y-13361283D01*
X12367593Y-13361283D02*
X12358070Y-13342235D01*
X12358070Y-13342235D02*
X12339022Y-13332711D01*
X12339022Y-13332711D02*
X12310451Y-13332711D01*
X12310451Y-13332711D02*
X12291403Y-13342235D01*
X12291403Y-13342235D02*
X12281879Y-13351759D01*
X12491403Y-13466045D02*
X12472355Y-13456521D01*
X12472355Y-13456521D02*
X12462832Y-13446997D01*
X12462832Y-13446997D02*
X12453308Y-13427949D01*
X12453308Y-13427949D02*
X12453308Y-13370806D01*
X12453308Y-13370806D02*
X12462832Y-13351759D01*
X12462832Y-13351759D02*
X12472355Y-13342235D01*
X12472355Y-13342235D02*
X12491403Y-13332711D01*
X12491403Y-13332711D02*
X12519974Y-13332711D01*
X12519974Y-13332711D02*
X12539022Y-13342235D01*
X12539022Y-13342235D02*
X12548546Y-13351759D01*
X12548546Y-13351759D02*
X12558070Y-13370806D01*
X12558070Y-13370806D02*
X12558070Y-13427949D01*
X12558070Y-13427949D02*
X12548546Y-13446997D01*
X12548546Y-13446997D02*
X12539022Y-13456521D01*
X12539022Y-13456521D02*
X12519974Y-13466045D01*
X12519974Y-13466045D02*
X12491403Y-13466045D01*
X12672355Y-13466045D02*
X12653308Y-13456521D01*
X12653308Y-13456521D02*
X12643784Y-13437473D01*
X12643784Y-13437473D02*
X12643784Y-13266045D01*
X12824736Y-13456521D02*
X12805689Y-13466045D01*
X12805689Y-13466045D02*
X12767593Y-13466045D01*
X12767593Y-13466045D02*
X12748546Y-13456521D01*
X12748546Y-13456521D02*
X12739022Y-13437473D01*
X12739022Y-13437473D02*
X12739022Y-13361283D01*
X12739022Y-13361283D02*
X12748546Y-13342235D01*
X12748546Y-13342235D02*
X12767593Y-13332711D01*
X12767593Y-13332711D02*
X12805689Y-13332711D01*
X12805689Y-13332711D02*
X12824736Y-13342235D01*
X12824736Y-13342235D02*
X12834260Y-13361283D01*
X12834260Y-13361283D02*
X12834260Y-13380330D01*
X12834260Y-13380330D02*
X12739022Y-13399378D01*
X12910451Y-13456521D02*
X12929498Y-13466045D01*
X12929498Y-13466045D02*
X12967593Y-13466045D01*
X12967593Y-13466045D02*
X12986641Y-13456521D01*
X12986641Y-13456521D02*
X12996165Y-13437473D01*
X12996165Y-13437473D02*
X12996165Y-13427949D01*
X12996165Y-13427949D02*
X12986641Y-13408902D01*
X12986641Y-13408902D02*
X12967593Y-13399378D01*
X12967593Y-13399378D02*
X12939022Y-13399378D01*
X12939022Y-13399378D02*
X12919974Y-13389854D01*
X12919974Y-13389854D02*
X12910451Y-13370806D01*
X12910451Y-13370806D02*
X12910451Y-13361283D01*
X12910451Y-13361283D02*
X12919974Y-13342235D01*
X12919974Y-13342235D02*
X12939022Y-13332711D01*
X12939022Y-13332711D02*
X12967593Y-13332711D01*
X12967593Y-13332711D02*
X12986641Y-13342235D01*
X13062832Y-13542235D02*
X13072355Y-13532711D01*
X13072355Y-13532711D02*
X13091403Y-13504140D01*
X13091403Y-13504140D02*
X13100927Y-13485092D01*
X13100927Y-13485092D02*
X13110451Y-13456521D01*
X13110451Y-13456521D02*
X13119974Y-13408902D01*
X13119974Y-13408902D02*
X13119974Y-13370806D01*
X13119974Y-13370806D02*
X13110451Y-13323187D01*
X13110451Y-13323187D02*
X13100927Y-13294616D01*
X13100927Y-13294616D02*
X13091403Y-13275568D01*
X13091403Y-13275568D02*
X13072355Y-13246997D01*
X13072355Y-13246997D02*
X13062832Y-13237473D01*
X13424736Y-13542235D02*
X13415213Y-13532711D01*
X13415213Y-13532711D02*
X13396165Y-13504140D01*
X13396165Y-13504140D02*
X13386641Y-13485092D01*
X13386641Y-13485092D02*
X13377117Y-13456521D01*
X13377117Y-13456521D02*
X13367594Y-13408902D01*
X13367594Y-13408902D02*
X13367594Y-13370806D01*
X13367594Y-13370806D02*
X13377117Y-13323187D01*
X13377117Y-13323187D02*
X13386641Y-13294616D01*
X13386641Y-13294616D02*
X13396165Y-13275568D01*
X13396165Y-13275568D02*
X13415213Y-13246997D01*
X13415213Y-13246997D02*
X13424736Y-13237473D01*
X13500927Y-13332711D02*
X13500927Y-13466045D01*
X13500927Y-13351759D02*
X13510451Y-13342235D01*
X13510451Y-13342235D02*
X13529498Y-13332711D01*
X13529498Y-13332711D02*
X13558070Y-13332711D01*
X13558070Y-13332711D02*
X13577117Y-13342235D01*
X13577117Y-13342235D02*
X13586641Y-13361283D01*
X13586641Y-13361283D02*
X13586641Y-13466045D01*
X13710451Y-13466045D02*
X13691403Y-13456521D01*
X13691403Y-13456521D02*
X13681879Y-13446997D01*
X13681879Y-13446997D02*
X13672355Y-13427949D01*
X13672355Y-13427949D02*
X13672355Y-13370806D01*
X13672355Y-13370806D02*
X13681879Y-13351759D01*
X13681879Y-13351759D02*
X13691403Y-13342235D01*
X13691403Y-13342235D02*
X13710451Y-13332711D01*
X13710451Y-13332711D02*
X13739022Y-13332711D01*
X13739022Y-13332711D02*
X13758070Y-13342235D01*
X13758070Y-13342235D02*
X13767594Y-13351759D01*
X13767594Y-13351759D02*
X13777117Y-13370806D01*
X13777117Y-13370806D02*
X13777117Y-13427949D01*
X13777117Y-13427949D02*
X13767594Y-13446997D01*
X13767594Y-13446997D02*
X13758070Y-13456521D01*
X13758070Y-13456521D02*
X13739022Y-13466045D01*
X13739022Y-13466045D02*
X13710451Y-13466045D01*
X13834260Y-13332711D02*
X13910451Y-13332711D01*
X13862832Y-13266045D02*
X13862832Y-13437473D01*
X13862832Y-13437473D02*
X13872355Y-13456521D01*
X13872355Y-13456521D02*
X13891403Y-13466045D01*
X13891403Y-13466045D02*
X13910451Y-13466045D01*
X14129498Y-13332711D02*
X14129498Y-13532711D01*
X14129498Y-13342235D02*
X14148546Y-13332711D01*
X14148546Y-13332711D02*
X14186641Y-13332711D01*
X14186641Y-13332711D02*
X14205689Y-13342235D01*
X14205689Y-13342235D02*
X14215213Y-13351759D01*
X14215213Y-13351759D02*
X14224736Y-13370806D01*
X14224736Y-13370806D02*
X14224736Y-13427949D01*
X14224736Y-13427949D02*
X14215213Y-13446997D01*
X14215213Y-13446997D02*
X14205689Y-13456521D01*
X14205689Y-13456521D02*
X14186641Y-13466045D01*
X14186641Y-13466045D02*
X14148546Y-13466045D01*
X14148546Y-13466045D02*
X14129498Y-13456521D01*
X14339022Y-13466045D02*
X14319975Y-13456521D01*
X14319975Y-13456521D02*
X14310451Y-13437473D01*
X14310451Y-13437473D02*
X14310451Y-13266045D01*
X14500927Y-13466045D02*
X14500927Y-13361283D01*
X14500927Y-13361283D02*
X14491403Y-13342235D01*
X14491403Y-13342235D02*
X14472356Y-13332711D01*
X14472356Y-13332711D02*
X14434260Y-13332711D01*
X14434260Y-13332711D02*
X14415213Y-13342235D01*
X14500927Y-13456521D02*
X14481879Y-13466045D01*
X14481879Y-13466045D02*
X14434260Y-13466045D01*
X14434260Y-13466045D02*
X14415213Y-13456521D01*
X14415213Y-13456521D02*
X14405689Y-13437473D01*
X14405689Y-13437473D02*
X14405689Y-13418425D01*
X14405689Y-13418425D02*
X14415213Y-13399378D01*
X14415213Y-13399378D02*
X14434260Y-13389854D01*
X14434260Y-13389854D02*
X14481879Y-13389854D01*
X14481879Y-13389854D02*
X14500927Y-13380330D01*
X14567594Y-13332711D02*
X14643784Y-13332711D01*
X14596165Y-13266045D02*
X14596165Y-13437473D01*
X14596165Y-13437473D02*
X14605689Y-13456521D01*
X14605689Y-13456521D02*
X14624736Y-13466045D01*
X14624736Y-13466045D02*
X14643784Y-13466045D01*
X14786641Y-13456521D02*
X14767594Y-13466045D01*
X14767594Y-13466045D02*
X14729498Y-13466045D01*
X14729498Y-13466045D02*
X14710451Y-13456521D01*
X14710451Y-13456521D02*
X14700927Y-13437473D01*
X14700927Y-13437473D02*
X14700927Y-13361283D01*
X14700927Y-13361283D02*
X14710451Y-13342235D01*
X14710451Y-13342235D02*
X14729498Y-13332711D01*
X14729498Y-13332711D02*
X14767594Y-13332711D01*
X14767594Y-13332711D02*
X14786641Y-13342235D01*
X14786641Y-13342235D02*
X14796165Y-13361283D01*
X14796165Y-13361283D02*
X14796165Y-13380330D01*
X14796165Y-13380330D02*
X14700927Y-13399378D01*
X14967594Y-13466045D02*
X14967594Y-13266045D01*
X14967594Y-13456521D02*
X14948546Y-13466045D01*
X14948546Y-13466045D02*
X14910451Y-13466045D01*
X14910451Y-13466045D02*
X14891403Y-13456521D01*
X14891403Y-13456521D02*
X14881879Y-13446997D01*
X14881879Y-13446997D02*
X14872356Y-13427949D01*
X14872356Y-13427949D02*
X14872356Y-13370806D01*
X14872356Y-13370806D02*
X14881879Y-13351759D01*
X14881879Y-13351759D02*
X14891403Y-13342235D01*
X14891403Y-13342235D02*
X14910451Y-13332711D01*
X14910451Y-13332711D02*
X14948546Y-13332711D01*
X14948546Y-13332711D02*
X14967594Y-13342235D01*
X15043784Y-13542235D02*
X15053308Y-13532711D01*
X15053308Y-13532711D02*
X15072356Y-13504140D01*
X15072356Y-13504140D02*
X15081879Y-13485092D01*
X15081879Y-13485092D02*
X15091403Y-13456521D01*
X15091403Y-13456521D02*
X15100927Y-13408902D01*
X15100927Y-13408902D02*
X15100927Y-13370806D01*
X15100927Y-13370806D02*
X15091403Y-13323187D01*
X15091403Y-13323187D02*
X15081879Y-13294616D01*
X15081879Y-13294616D02*
X15072356Y-13275568D01*
X15072356Y-13275568D02*
X15053308Y-13246997D01*
X15053308Y-13246997D02*
X15043784Y-13237473D01*
M02*
