G04 #@! TF.GenerationSoftware,KiCad,Pcbnew,8.0.7*
G04 #@! TF.CreationDate,2025-03-14T09:47:22+07:00*
G04 #@! TF.ProjectId,Lapka,4c61706b-612e-46b6-9963-61645f706362,rev?*
G04 #@! TF.SameCoordinates,Original*
G04 #@! TF.FileFunction,Soldermask,Top*
G04 #@! TF.FilePolarity,Negative*
%FSLAX46Y46*%
G04 Gerber Fmt 4.6, Leading zero omitted, Abs format (unit mm)*
G04 Created by KiCad (PCBNEW 8.0.7) date 2025-03-14 09:47:22*
%MOMM*%
%LPD*%
G01*
G04 APERTURE LIST*
%ADD10C,5.050000*%
%ADD11C,2.200000*%
%ADD12R,1.400000X1.700000*%
%ADD13C,1.600000*%
G04 APERTURE END LIST*
D10*
G04 #@! TO.C,SW6*
X97829107Y-95014189D03*
D11*
X95811188Y-89470003D03*
X91830967Y-93153458D03*
X101227894Y-89733256D03*
G04 #@! TD*
D10*
G04 #@! TO.C,SW4*
X150420102Y-53866100D03*
D11*
X150934321Y-59743649D03*
X155732267Y-57215861D03*
X145770320Y-58087419D03*
G04 #@! TD*
D10*
G04 #@! TO.C,SW5*
X172090001Y-57919998D03*
D11*
X172090001Y-63819998D03*
X177090001Y-61719998D03*
X167090001Y-61719998D03*
G04 #@! TD*
D10*
G04 #@! TO.C,SW13*
X134383402Y-85199796D03*
D11*
X133358878Y-79389430D03*
X128799500Y-82325767D03*
X138647578Y-80589286D03*
G04 #@! TD*
D12*
G04 #@! TO.C,REF\u002A\u002A*
X193879999Y-74269998D03*
X193880002Y-67969999D03*
X197480002Y-74269999D03*
X197479999Y-67969999D03*
G04 #@! TD*
D13*
G04 #@! TO.C,U2*
X187960000Y-62230000D03*
X187960000Y-64770000D03*
X187960000Y-67310000D03*
X187960000Y-69850000D03*
X187960000Y-72390000D03*
X187960000Y-74930000D03*
X187960000Y-77470000D03*
X187960000Y-80010000D03*
X187960000Y-82550000D03*
X187960000Y-85090000D03*
X187960000Y-87630000D03*
X187960000Y-90170000D03*
X203200010Y-62229990D03*
X203200010Y-64769990D03*
X203200010Y-67309990D03*
X203200010Y-69849990D03*
X203200010Y-72389990D03*
X203200010Y-74929990D03*
X203200010Y-77469990D03*
X203200010Y-80009990D03*
X203200010Y-82549990D03*
X203200010Y-85089990D03*
X203200010Y-87629990D03*
X203200010Y-90169990D03*
X187960000Y-59690000D03*
X203200010Y-59689990D03*
G04 #@! TD*
D10*
G04 #@! TO.C,SW3*
X128479404Y-51716295D03*
D11*
X129503928Y-57526661D03*
X134063306Y-54590324D03*
X124215228Y-56326805D03*
G04 #@! TD*
D10*
G04 #@! TO.C,SW7*
X112997102Y-77661401D03*
D11*
X111470070Y-71962439D03*
X107183960Y-75284978D03*
X116843219Y-72696788D03*
G04 #@! TD*
D10*
G04 #@! TO.C,SW12*
X117396999Y-94082091D03*
D11*
X115869967Y-88383129D03*
X111583857Y-91705668D03*
X121243116Y-89117478D03*
G04 #@! TD*
D10*
G04 #@! TO.C,SW17*
X181814900Y-113672093D03*
D11*
X182329119Y-107794544D03*
X177165118Y-109450774D03*
X187127065Y-110322332D03*
G04 #@! TD*
D10*
G04 #@! TO.C,SW10*
X172090008Y-74919990D03*
D11*
X172090008Y-69019990D03*
X167090008Y-71119990D03*
X177090008Y-71119990D03*
G04 #@! TD*
D10*
G04 #@! TO.C,SW1*
X92014809Y-79039394D03*
D11*
X94032728Y-84583580D03*
X98012949Y-80900125D03*
X88616022Y-84320327D03*
G04 #@! TD*
D10*
G04 #@! TO.C,SW2*
X108597107Y-61240697D03*
D11*
X110124139Y-66939659D03*
X114410249Y-63617120D03*
X104750990Y-66205310D03*
G04 #@! TD*
D10*
G04 #@! TO.C,SW18*
X200933190Y-117043093D03*
D11*
X202460222Y-111344131D03*
X197087073Y-112078480D03*
X206746332Y-114666670D03*
G04 #@! TD*
D10*
G04 #@! TO.C,SW15*
X172090003Y-91919996D03*
D11*
X172090003Y-86019996D03*
X167090003Y-88119996D03*
X177090003Y-88119996D03*
G04 #@! TD*
D10*
G04 #@! TO.C,SW11*
X103643400Y-110988987D03*
D11*
X101625481Y-105444801D03*
X97645260Y-109128256D03*
X107042187Y-105708054D03*
G04 #@! TD*
D10*
G04 #@! TO.C,SW9*
X151901803Y-70801395D03*
D11*
X151387584Y-64923846D03*
X146589638Y-67451634D03*
X156551585Y-66580076D03*
G04 #@! TD*
D10*
G04 #@! TO.C,SW8*
X131431401Y-68458093D03*
D11*
X130406877Y-62647727D03*
X125847499Y-65584064D03*
X135695577Y-63847583D03*
G04 #@! TD*
D10*
G04 #@! TO.C,SW14*
X153383410Y-87736697D03*
D11*
X152869191Y-81859148D03*
X148071245Y-84386936D03*
X158033192Y-83515378D03*
G04 #@! TD*
D10*
G04 #@! TO.C,SW16*
X162401804Y-113672096D03*
D11*
X161887585Y-107794547D03*
X157089639Y-110322335D03*
X167051586Y-109450777D03*
G04 #@! TD*
M02*
